<svg width="1101" height="974" viewBox="0 0 1101 974" fill="none" xmlns="http://www.w3.org/2000/svg">
<rect width="1101" height="974" rx="79" fill="#86A9AB"/>
<path d="M547.834 604.423H65V545.321V209.178V140.577L550.472 142.16V118.942L565.248 101V140.577H1037V209.178V545.321V604.423H565.248V625.003L547.834 644V604.423Z" fill="#C87C62"/>
<path d="M547.834 604.423H65V545.321M547.834 604.423V644L565.248 625.003V604.423M547.834 604.423L550.472 142.16M565.248 604.423H1037V545.321M565.248 604.423V140.577M565.248 140.577H1037V209.178M565.248 140.577V101L550.472 118.942V142.16M550.472 142.16L65 140.577V209.178M550.472 142.16L550.09 209.178H294.544M65 209.178V545.321M65 209.178H294.544M65 545.321H294.544M550.472 545.321H294.544M565.248 545.321H810.094M1037 545.321H810.094M1037 545.321V209.178M810.094 545.321V377.249M1037 209.178H565.248H810.094V377.249M810.094 377.249H565.248M550.472 377.249H294.544M294.544 377.249V209.178M294.544 377.249V545.321" stroke="white" stroke-width="4"/>
<path d="M870.141 267.479C839.243 264.531 833.036 245.785 832.246 223.176C826.428 230.428 814.635 238.366 814.012 212.1C813.388 185.835 837.659 167.138 849.872 161.073C858.057 157.008 882.926 154.428 898.206 161.073C907.439 165.089 915.397 174.836 920.847 186.785C965.137 193.695 960.535 266.4 952.563 302.676C954.176 296.402 960.573 291.661 963.69 290.026C968.367 299.519 959.402 308.485 954.335 311.782L907.95 312.177H877.547C871.31 315.658 864.034 313.364 861.176 311.782C860.396 310.991 858.837 308.934 858.837 307.035C857.902 305.453 865.983 297.673 870.141 293.982V267.479Z" fill="#E5DFCD"/>
<path d="M908.341 183.224C909.408 195.991 909.232 214.114 905.741 230.296M870.141 267.479C839.243 264.531 833.036 245.785 832.246 223.176M870.141 267.479C890.855 269.455 901.157 251.55 905.741 230.296M870.141 267.479V293.982C865.983 297.673 857.902 305.453 858.837 307.035C858.837 308.934 860.396 310.991 861.176 311.782C864.034 313.364 871.31 315.658 877.547 312.177M832.722 189.553C832.722 200.779 831.871 212.415 832.246 223.176M832.246 223.176C826.428 230.428 814.635 238.366 814.012 212.1C813.388 185.835 837.659 167.138 849.872 161.073C858.057 157.008 882.926 154.428 898.206 161.073C907.439 165.089 915.397 174.836 920.847 186.785M905.741 230.296C917.383 246.119 925.577 235.57 928.219 228.318C929.629 214.832 926.67 199.552 920.847 186.785M872.09 176.5L858.057 234.252H886.902M860.786 245.328C863.514 248.228 871.154 252.289 879.886 245.328M877.547 312.177C877.027 310.2 876.299 306.086 877.547 305.453C879.106 304.662 890.8 298.728 888.851 287.257M877.547 312.177H907.95M907.95 312.177C904.529 306.376 899.297 293.27 905.741 287.257C907.647 287.389 912.394 288.918 916.136 293.982C917.045 295.3 920.345 296.355 926.27 290.026C932.195 283.697 936.275 290.026 937.574 293.982M907.95 312.177L954.335 311.782C959.402 308.485 968.367 299.519 963.69 290.026C960.442 291.73 953.633 296.806 952.386 303.475C960.464 267.479 965.465 193.746 920.847 186.785M853.38 167.402C852.211 167.798 849.767 171.952 852.262 171.319C853.821 169.42 854.419 167.27 853.38 167.402ZM888.461 167.798C889.37 167.402 890.41 167.402 890.02 168.984C886.226 176.096 887.681 167.798 888.461 167.798Z" stroke="black" stroke-width="3"/>
<path d="M154.628 258.257C141.039 259.551 117.615 253.858 132.627 220.736C125.941 209.307 118.521 185.155 142.334 179.98C142.334 150.869 186.336 125.639 195.395 179.98C207.474 183.43 225.679 196.411 201.866 220.736C210.71 233.243 218.82 258.257 180.512 258.257L180.878 267.315L182.078 297.073H208.337C208.911 297.705 209.546 298.596 210.072 299.661C217.864 298.38 228.427 298.785 208.337 310.659H182.626L183.748 338.476H174.689L175.983 359.825H189.571V365H170.806L168.865 338.476H163.041L159.159 365H142.334V359.825H153.335L157.864 338.476H142.334L150.157 293.192C144.961 292.545 133.663 292.415 130.04 297.073C126.416 301.731 138.02 305.483 144.275 306.777L143.04 317.071C143.63 318.986 143.053 321.349 142.334 322.95L143.04 317.071C142.438 315.119 140.623 313.632 136.51 313.893C126.328 314.54 120.333 308.416 119.039 295.779C117.745 283.143 148.805 284.135 151.722 284.135L154.628 267.315V258.257Z" fill="#E5DFCD"/>
<path d="M154.628 267.315H180.878M154.628 267.315V258.257C141.039 259.551 117.615 253.858 132.627 220.736C125.941 209.307 118.521 185.155 142.334 179.98C142.334 150.869 186.336 125.639 195.395 179.98C207.474 183.43 225.679 196.411 201.866 220.736C210.71 233.243 218.82 258.257 180.512 258.257L180.878 267.315M154.628 267.315L151.722 284.135M180.878 267.315L182.078 297.073M156.57 180.627V186.45M181.806 180.627V186.45M154.628 231.734C159.589 235.852 172.877 241.616 186.336 231.734M182.078 297.073H208.337C208.911 297.705 209.546 298.596 210.072 299.661M182.078 297.073L182.626 310.659M208.337 310.659H182.626M208.337 310.659C209.072 309.924 209.641 309.172 210.072 308.416C211.867 305.261 211.24 302.03 210.072 299.661M208.337 310.659C228.427 298.785 217.864 298.38 210.072 299.661M182.626 310.659L183.748 338.476H174.689M157.864 338.476H142.334L150.157 293.192M157.864 338.476L153.335 359.825H142.334V365H159.159L163.041 338.476M157.864 338.476H163.041M163.041 338.476H174.689M168.865 338.476L170.806 365H189.571V359.825H175.983L174.689 338.476M151.722 284.135C148.805 284.135 117.745 283.143 119.039 295.779C120.333 308.416 126.328 314.54 136.51 313.893C144.656 313.376 143.787 319.715 142.334 322.95L144.275 306.777C138.02 305.483 126.416 301.731 130.04 297.073C133.663 292.415 144.961 292.545 150.157 293.192M151.722 284.135L150.157 293.192M177.924 215.561C174.904 212.542 166.406 208.315 156.57 215.561C160.237 219.227 169.641 224.359 177.924 215.561Z" stroke="black" stroke-width="3"/>
<path d="M211.372 316.526L214.288 308.416L216.876 298.897L218.603 292.262L222.476 277.379L225.288 266.578L228.369 261.777C229.225 253.899 225.947 247.217 223.641 244.048C223.345 243.701 223.082 243.367 222.853 243.053C222.003 242.157 221.203 241.202 220.455 240.194C219.088 238.354 217.892 236.339 216.876 234.197C216.319 233.024 215.816 231.813 215.368 230.571C214.916 229.319 214.52 228.036 214.181 226.73C213.533 224.237 213.092 221.658 212.865 219.049C212.628 216.327 212.625 213.571 212.865 210.843C213.167 209.501 213.713 207.22 214.387 204.646C215.115 201.864 215.993 198.74 216.876 196.091C217.996 193.822 219.346 191.68 220.934 189.718C222.711 187.522 224.786 185.551 227.17 183.876C228.511 182.934 229.949 182.085 231.487 181.343C233.307 180.465 235.066 179.737 236.763 179.144C239.939 178.035 242.899 177.4 245.636 177.14C248.236 176.893 250.636 176.984 252.831 177.329C255.865 177.805 258.508 178.767 260.745 179.989C263.699 181.603 265.947 183.673 267.46 185.683C268.28 187.047 269.024 188.392 269.695 189.718C270.954 192.203 271.96 194.619 272.738 196.965C273.618 199.616 274.207 202.177 274.544 204.646C274.835 206.781 274.936 208.847 274.874 210.843C274.784 213.726 274.35 216.462 273.647 219.049C272.906 221.777 271.865 224.339 270.61 226.73C269.187 229.441 267.49 231.932 265.645 234.197C264.164 236.015 262.587 237.688 260.979 239.212C260.504 239.663 260.025 240.101 259.546 240.526C258.019 241.88 256.482 243.1 254.989 244.186C253.294 245.418 251.656 246.476 250.155 247.355C248.427 248.366 246.88 249.141 245.636 249.674C244.607 250.115 243.784 250.389 243.238 250.495C242.847 250.628 242.458 250.744 242.072 250.844C237.614 252.657 234.011 259.513 232.686 262.977L231.966 268.031L231.652 269.458L228.585 283.381L222.853 305.505L221.407 311.374L219.256 320.107C221.159 324.506 218.462 325.941 216.876 326.108C206.53 325.34 208.556 320.347 210.862 317.947L211.372 316.526Z" fill="#E5DFCD"/>
<path d="M214.288 308.416L210.862 317.947M214.288 308.416C217.48 307.862 220.712 306.943 222.853 305.505M214.288 308.416L216.876 298.897M216.876 298.897C220.448 298.694 221.652 304.126 222.853 305.505M216.876 298.897L218.603 292.262M210.862 317.947L219.256 320.107M210.862 317.947C208.556 320.347 206.53 325.34 216.876 326.108C218.462 325.941 221.159 324.506 219.256 320.107M219.256 320.107L221.407 311.374M222.853 305.505L228.585 283.381M222.853 305.505L221.407 311.374M225.288 266.578L231.966 268.031M225.288 266.578L228.369 261.777M225.288 266.578L222.476 277.379M231.966 268.031L232.686 262.977M231.966 268.031L231.652 269.458M228.369 261.777L232.686 262.977M228.369 261.777C229.328 252.943 225.091 245.614 222.853 243.053M232.686 262.977C234.125 259.216 238.25 251.455 243.238 250.495M243.238 250.495C242.261 250.827 241.3 251.055 240.36 251.191M243.238 250.495C243.784 250.389 244.607 250.115 245.636 249.674M267.46 185.683C265.947 183.673 263.699 181.603 260.745 179.989M267.46 185.683L250.155 247.355M267.46 185.683C268.28 187.047 269.024 188.392 269.695 189.718M222.853 243.053C223.773 244.316 225.255 245.906 227.17 247.355M222.853 243.053C220.449 240.52 218.449 237.511 216.876 234.197M222.853 243.053L245.636 249.674M227.17 183.876C228.511 182.934 229.949 182.085 231.487 181.343C233.307 180.465 235.066 179.737 236.763 179.144M227.17 183.876L215.368 230.571M227.17 183.876C224.786 185.551 222.711 187.522 220.934 189.718M227.17 183.876L272.738 196.965M215.368 230.571C215.816 231.813 216.319 233.024 216.876 234.197M215.368 230.571C214.916 229.319 214.52 228.036 214.181 226.73M220.455 240.194L236.763 179.144M236.763 179.144C239.939 178.035 242.899 177.4 245.636 177.14M236.763 179.144L269.695 189.718M245.636 177.14L227.17 247.355M245.636 177.14C248.236 176.893 250.636 176.984 252.831 177.329M227.17 247.355C228.825 248.607 230.804 249.754 233.024 250.495M233.024 250.495L252.831 177.329M233.024 250.495C235.254 251.238 237.727 251.572 240.36 251.191M252.831 177.329C255.865 177.805 258.508 178.767 260.745 179.989M260.745 179.989L240.36 251.191M250.155 247.355C251.656 246.476 253.294 245.418 254.989 244.186M250.155 247.355C248.427 248.366 246.88 249.141 245.636 249.674M272.738 196.965L259.546 240.526M272.738 196.965C273.618 199.616 274.207 202.177 274.544 204.646M272.738 196.965C271.96 194.619 270.954 192.203 269.695 189.718M259.546 240.526C258.019 241.88 256.482 243.1 254.989 244.186M259.546 240.526C260.025 240.101 260.504 239.663 260.979 239.212M216.876 234.197L254.989 244.186M214.181 226.73L260.979 239.212M214.181 226.73C213.533 224.237 213.092 221.658 212.865 219.049M260.979 239.212C262.587 237.688 264.164 236.015 265.645 234.197M212.865 219.049L265.645 234.197M212.865 219.049C212.628 216.327 212.625 213.571 212.865 210.843M265.645 234.197C267.49 231.932 269.187 229.441 270.61 226.73M212.865 210.843L270.61 226.73M212.865 210.843C213.167 209.501 213.713 207.22 214.387 204.646M270.61 226.73C271.865 224.339 272.906 221.777 273.647 219.049M273.647 219.049C274.35 216.462 274.784 213.726 274.874 210.843M273.647 219.049L214.387 204.646M216.876 196.091L274.874 210.843M216.876 196.091C217.996 193.822 219.346 191.68 220.934 189.718M216.876 196.091C215.993 198.74 215.115 201.864 214.387 204.646M274.874 210.843C274.936 208.847 274.835 206.781 274.544 204.646M220.934 189.718L274.544 204.646M231.652 269.458C229.667 272.819 225.053 279.108 222.476 277.379M231.652 269.458L228.585 283.381M222.476 277.379L218.603 292.262M228.585 283.381C226.399 286.901 221.342 293.606 218.603 292.262M221.407 311.374C218.691 313.245 212.78 316.891 210.862 316.507" stroke="black" stroke-width="2"/>
<path d="M775.699 507.166L771.588 499.296L766.176 490.699L762.351 484.768L753.769 471.462L747.54 461.804L746.06 456.101C740.677 449.978 733.297 447.868 729.267 447.446C728.795 447.433 728.357 447.404 727.958 447.363C726.679 447.396 725.391 447.349 724.1 447.227C721.74 447.003 719.369 446.526 717.027 445.823C715.745 445.438 714.471 444.985 713.212 444.469C711.944 443.949 710.691 443.364 709.46 442.719C707.11 441.489 704.841 440.04 702.699 438.405C700.465 436.699 698.37 434.79 696.466 432.713C695.659 431.55 694.309 429.547 692.828 427.243C691.227 424.752 689.471 421.909 688.08 419.392C687.143 416.956 686.466 414.43 686.092 411.846C685.674 408.955 685.636 405.989 686.039 402.992C686.266 401.306 686.633 399.609 687.15 397.91C687.763 395.9 688.447 394.04 689.19 392.322C690.581 389.107 692.18 386.387 693.907 384.098C695.548 381.924 697.305 380.139 699.11 378.688C701.606 376.682 704.194 375.314 706.696 374.439C709.999 373.284 713.152 372.988 715.743 373.216C717.356 373.531 718.901 373.892 720.38 374.294C723.153 375.048 725.696 375.949 728.025 376.977C730.657 378.138 733.017 379.461 735.129 380.914C736.956 382.171 738.597 383.526 740.069 384.958C742.196 387.027 743.97 389.259 745.44 391.594C746.992 394.058 748.205 396.637 749.139 399.262C750.198 402.237 750.897 405.272 751.321 408.264C751.66 410.666 751.822 413.041 751.85 415.336C751.858 416.015 751.854 416.688 751.84 417.351C751.795 419.466 751.641 421.496 751.416 423.399C751.16 425.559 750.811 427.554 750.424 429.32C749.977 431.352 749.478 433.081 749.008 434.409C748.619 435.507 748.249 436.331 747.945 436.825C747.771 437.219 747.586 437.599 747.391 437.965C745.633 442.656 748.308 450.186 750.007 453.609L753.34 457.669L754.203 458.901L762.623 470.92L775.399 490.68L778.841 495.865L783.962 503.579C788.643 505.164 787.836 508.236 786.848 509.574C778.989 517.009 776.621 511.986 776.419 508.545L775.699 507.166Z" fill="#E5DFCD"/>
<path d="M771.588 499.296L776.419 508.545M771.588 499.296C773.412 496.453 774.986 493.326 775.399 490.68M771.588 499.296L766.176 490.699M766.176 490.699C768.534 487.808 773.507 490.648 775.399 490.68M766.176 490.699L762.351 484.768M776.419 508.545L783.962 503.579M776.419 508.545C776.621 511.986 778.989 517.009 786.848 509.574C787.836 508.236 788.643 505.164 783.962 503.579M783.962 503.579L778.841 495.865M775.399 490.68L762.623 470.92M775.399 490.68L778.841 495.865M747.54 461.804L753.34 457.669M747.54 461.804L746.06 456.101M747.54 461.804L753.769 471.462M753.34 457.669L750.007 453.609M753.34 457.669L754.203 458.901M746.06 456.101L750.007 453.609M746.06 456.101C740.024 449.235 731.477 447.415 727.958 447.363M750.007 453.609C748.162 449.893 745.167 441.332 747.945 436.825M747.945 436.825C747.51 437.808 747.008 438.705 746.45 439.524M747.945 436.825C748.249 436.331 748.619 435.507 749.008 434.409M715.743 373.216C713.152 372.988 709.999 373.284 706.696 374.439M715.743 373.216L750.424 429.32M715.743 373.216C717.356 373.531 718.901 373.892 720.38 374.294M727.958 447.363C729.564 447.53 731.813 447.492 734.261 447.022M727.958 447.363C724.343 447.457 720.65 446.911 717.027 445.823M727.958 447.363L749.008 434.409M686.039 402.992C686.266 401.306 686.633 399.609 687.15 397.91C687.763 395.9 688.447 394.04 689.19 392.322M686.039 402.992L713.212 444.469M686.039 402.992C685.636 405.989 685.674 408.955 686.092 411.846M686.039 402.992L728.025 376.977M713.212 444.469C714.471 444.985 715.745 445.438 717.027 445.823M713.212 444.469C711.944 443.949 710.691 443.364 709.46 442.719M724.1 447.227L689.19 392.322M689.19 392.322C690.581 389.107 692.18 386.387 693.907 384.098M689.19 392.322L720.38 374.294M693.907 384.098L734.261 447.022M693.907 384.098C695.548 381.924 697.305 380.139 699.11 378.688M734.261 447.022C736.376 446.615 738.639 445.887 740.762 444.691M740.762 444.691L699.11 378.688M740.762 444.691C742.895 443.49 744.888 441.817 746.45 439.524M699.11 378.688C701.606 376.682 704.194 375.314 706.696 374.439M706.696 374.439L746.45 439.524M750.424 429.32C750.811 427.554 751.16 425.559 751.416 423.399M750.424 429.32C749.977 431.352 749.478 433.081 749.008 434.409M728.025 376.977L751.84 417.351M728.025 376.977C730.657 378.138 733.017 379.461 735.129 380.914M728.025 376.977C725.696 375.949 723.153 375.048 720.38 374.294M751.84 417.351C751.795 419.466 751.641 421.496 751.416 423.399M751.84 417.351C751.854 416.688 751.858 416.015 751.85 415.336M717.027 445.823L751.416 423.399M709.46 442.719L751.85 415.336M709.46 442.719C707.11 441.489 704.841 440.04 702.699 438.405M751.85 415.336C751.822 413.041 751.66 410.666 751.321 408.264M702.699 438.405L751.321 408.264M702.699 438.405C700.465 436.699 698.37 434.79 696.466 432.713M751.321 408.264C750.897 405.272 750.198 402.237 749.139 399.262M696.466 432.713L749.139 399.262M696.466 432.713C695.659 431.55 694.309 429.547 692.828 427.243M749.139 399.262C748.205 396.637 746.992 394.058 745.44 391.594M745.44 391.594C743.97 389.259 742.196 387.027 740.069 384.958M745.44 391.594L692.828 427.243M688.08 419.392L740.069 384.958M688.08 419.392C687.143 416.956 686.466 414.43 686.092 411.846M688.08 419.392C689.471 421.909 691.227 424.752 692.828 427.243M740.069 384.958C738.597 383.526 736.956 382.171 735.129 380.914M686.092 411.846L735.129 380.914M754.203 458.901C755.361 462.761 756.894 470.676 753.769 471.462M754.203 458.901L762.623 470.92M753.769 471.462L762.351 484.768M762.623 470.92C763.76 475.045 765.298 483.591 762.351 484.768M778.841 495.865C778.353 499.254 776.966 506.334 775.325 507.546" stroke="black" stroke-width="2"/>
<path d="M856.816 307.524L850.561 301.758L842.898 295.759L837.529 291.648L825.483 282.428L816.74 275.736L813.559 271.073C806.723 267.294 799.385 267.78 795.615 268.704C795.185 268.845 794.781 268.961 794.407 269.053C793.265 269.497 792.089 269.872 790.884 270.179C788.684 270.741 786.392 271.079 784.053 271.203C782.771 271.271 781.476 271.275 780.174 271.217C778.862 271.158 777.543 271.037 776.224 270.854C773.707 270.505 771.192 269.934 768.731 269.152C766.165 268.337 763.657 267.294 761.268 266.038C760.164 265.25 758.299 263.881 756.217 262.283C753.967 260.555 751.464 258.559 749.394 256.74C747.761 254.847 746.333 252.789 745.159 250.579C743.846 248.108 742.852 245.446 742.245 242.613C741.904 241.019 741.686 239.37 741.602 237.671C741.504 235.659 741.519 233.761 741.633 231.971C741.846 228.622 742.407 225.652 743.224 223.029C743.999 220.537 745.006 218.359 746.164 216.466C747.765 213.849 749.656 211.778 751.629 210.179C754.233 208.068 756.98 206.78 759.391 206.148C760.947 205.91 762.457 205.735 763.921 205.618C766.666 205.401 769.25 205.39 771.683 205.563C774.433 205.758 776.989 206.187 779.364 206.814C781.418 207.356 783.336 208.046 785.128 208.861C787.715 210.038 790.037 211.476 792.119 213.106C794.315 214.826 796.244 216.758 797.936 218.823C799.854 221.163 801.467 223.673 802.817 226.234C803.901 228.29 804.816 230.379 805.584 232.44C805.811 233.05 806.025 233.657 806.227 234.26C806.871 236.182 807.39 238.062 807.802 239.851C808.271 241.881 808.603 243.793 808.825 245.511C809.08 247.488 809.19 249.209 809.195 250.558C809.2 251.674 809.133 252.537 809.019 253.081C808.989 253.492 808.946 253.895 808.889 254.288C808.822 259.087 813.672 265.012 816.312 267.548L820.631 270.129L821.809 270.961L833.292 279.073L851.209 292.755L855.991 296.316L863.106 301.615C867.839 301.529 868.106 304.56 867.648 306.087C862.969 315.334 859.207 311.572 857.911 308.534L856.816 307.524Z" fill="#E5DFCD"/>
<path d="M850.561 301.758L857.911 308.534M850.561 301.758C851.285 298.604 851.692 295.276 851.209 292.755M850.561 301.758L842.898 295.759M842.898 295.759C844.088 292.388 849.492 293.339 851.209 292.755M842.898 295.759L837.529 291.648M857.911 308.534L863.106 301.615M857.911 308.534C859.207 311.572 862.969 315.334 867.648 306.087C868.106 304.56 867.839 301.529 863.106 301.615M863.106 301.615L855.991 296.316M851.209 292.755L833.292 279.073M851.209 292.755L855.991 296.316M816.74 275.736L820.631 270.129M816.74 275.736L813.559 271.073M816.74 275.736L825.483 282.428M820.631 270.129L816.312 267.548M820.631 270.129L821.809 270.961M813.559 271.073L816.312 267.548M813.559 271.073C805.894 266.836 797.597 267.961 794.407 269.053M816.312 267.548C813.445 264.794 807.973 258.045 809.019 253.081M809.019 253.081C808.945 254.108 808.783 255.08 808.545 255.998M809.019 253.081C809.133 252.537 809.2 251.674 809.195 250.558M759.391 206.148C756.98 206.78 754.233 208.068 751.629 210.179M759.391 206.148L808.825 245.511M759.391 206.148C760.947 205.91 762.457 205.735 763.921 205.618M794.407 269.053C795.91 268.684 797.926 267.921 799.981 266.705M794.407 269.053C791.179 270.308 787.672 271.011 784.053 271.203M794.407 269.053L809.195 250.558M742.245 242.613C741.904 241.019 741.686 239.37 741.602 237.671C741.504 235.659 741.519 233.761 741.633 231.971M742.245 242.613L780.174 271.217M742.245 242.613C742.852 245.446 743.846 248.108 745.159 250.579M742.245 242.613L771.683 205.563M780.174 271.217C781.476 271.275 782.771 271.271 784.053 271.203M780.174 271.217C778.862 271.158 777.543 271.037 776.224 270.854M790.884 270.179L741.633 231.971M741.633 231.971C741.846 228.622 742.407 225.652 743.224 223.029M741.633 231.971L763.921 205.618M743.224 223.029L799.981 266.705M743.224 223.029C743.999 220.537 745.006 218.359 746.164 216.466M799.981 266.705C801.756 265.654 803.561 264.265 805.089 262.499M805.089 262.499L746.164 216.466M805.089 262.499C806.623 260.725 807.879 258.571 808.545 255.998M746.164 216.466C747.765 213.849 749.656 211.778 751.629 210.179M751.629 210.179L808.545 255.998M808.825 245.511C808.603 243.793 808.271 241.881 807.802 239.851M808.825 245.511C809.08 247.488 809.19 249.209 809.195 250.558M771.683 205.563L806.227 234.26M771.683 205.563C774.433 205.758 776.989 206.187 779.364 206.814M771.683 205.563C769.25 205.39 766.666 205.401 763.921 205.618M806.227 234.26C806.871 236.182 807.39 238.062 807.802 239.851M806.227 234.26C806.025 233.657 805.811 233.05 805.584 232.44M784.053 271.203L807.802 239.851M776.224 270.854L805.584 232.44M776.224 270.854C773.707 270.505 771.192 269.934 768.731 269.152M805.584 232.44C804.816 230.379 803.901 228.29 802.817 226.234M768.731 269.152L802.817 226.234M768.731 269.152C766.165 268.337 763.657 267.294 761.268 266.038M802.817 226.234C801.467 223.673 799.854 221.163 797.936 218.823M761.268 266.038L797.936 218.823M761.268 266.038C760.164 265.25 758.299 263.881 756.217 262.283M797.936 218.823C796.244 216.758 794.315 214.826 792.119 213.106M792.119 213.106C790.037 211.476 787.715 210.038 785.128 208.861M792.119 213.106L756.217 262.283M749.394 256.74L785.128 208.861M749.394 256.74C747.761 254.847 746.333 252.789 745.159 250.579M749.394 256.74C751.464 258.559 753.967 260.555 756.217 262.283M785.128 208.861C783.336 208.046 781.418 207.356 779.364 206.814M745.159 250.579L779.364 206.814M821.809 270.961C824.102 274.067 828.046 280.708 825.483 282.428M821.809 270.961L833.292 279.073M825.483 282.428L837.529 291.648M833.292 279.073C835.653 282.425 839.805 289.633 837.529 291.648M855.991 296.316C856.647 299.53 857.689 306.364 856.601 307.988" stroke="black" stroke-width="2"/>
<path d="M818.402 389.126C823.144 376.957 835.652 359.921 847.745 389.126C854.265 377.254 869.263 360.633 877.088 389.126V405.153V409.021C877.088 409.021 877.088 409.02 877.088 409.02C878.104 407.151 879.015 405.265 880.642 402.481L877.088 409.02C877.088 409.02 877.088 409.021 877.088 409.021V484.398C875.646 485.842 873.95 487.357 872.049 488.85C877.003 492.115 886.551 501.672 885.111 513.782C891.074 497.652 899.914 476.235 905.54 463.029C916.803 491.522 927.235 545.836 878.865 535.151C880.286 539.425 878.272 542.868 877.088 544.055H867.305C868.585 551.5 868.585 554.102 867.305 560.082C875.84 565.069 879.295 573.438 879.956 577H839.741H797.949C798.097 571.361 801.151 560.082 812.177 560.082C810.755 557.945 811.584 548.507 812.177 544.055H804.173C804.173 537.449 806.841 526.841 812.177 521.795C809.213 523.576 801.685 526.425 795.283 523.576C792.886 522.509 791.91 520.16 791.767 517.343C790.038 517.343 781.944 520.014 779.277 510.22C777.143 502.384 787.867 505.174 793.496 507.549C794.064 505.869 794.699 504.331 795.283 503.097L818.402 497.754V484.398V410.495V407.824V403.372V389.126Z" fill="#E5DFCD"/>
<path d="M818.402 484.398V497.754L795.283 503.097C794.699 504.331 794.064 505.869 793.496 507.549M818.402 484.398C835.213 508.715 858.701 499.331 872.049 488.85M818.402 484.398V410.495M847.745 422.961C840.928 430.084 828.36 446.289 832.629 454.125H856.637M835.73 474.604C841.96 479.163 847.745 478.878 854.858 474.604M793.496 507.549C787.867 505.174 777.143 502.384 779.277 510.22C781.944 520.014 790.038 517.343 791.767 517.343M793.496 507.549C792.439 510.671 791.612 514.283 791.767 517.343M791.767 517.343C791.91 520.16 792.886 522.509 795.283 523.576C801.685 526.425 809.213 523.576 812.177 521.795C806.841 526.841 804.173 537.449 804.173 544.055H812.177M878.865 535.151C880.286 539.425 878.272 542.868 877.088 544.055H867.305M878.865 535.151C927.235 545.836 916.803 491.522 905.54 463.029C899.914 476.235 891.074 497.652 885.111 513.782M878.865 535.151C878.601 534.358 879.027 532.143 879.956 528.918M872.049 488.85C873.95 487.357 875.646 485.842 877.088 484.398V409.021M872.049 488.85C877.003 492.115 886.551 501.672 885.111 513.782M885.111 513.782C882.888 519.795 881.064 525.074 879.956 528.918M879.956 528.918C859.489 536.042 851.731 527.138 850.411 521.795C851.135 521.588 852.113 521.156 853.078 520.47M865.527 507.549C867.661 517.75 860.489 515.954 856.637 513.782C856.637 514.088 856.621 514.385 856.591 514.672M856.591 514.672C856.304 517.428 854.708 519.312 853.078 520.47M856.591 514.672C850.411 504.878 828.181 512.001 853.078 520.47M812.177 544.055C811.584 548.507 810.755 557.945 812.177 560.082M812.177 544.055H839.741M812.177 560.082H839.741M812.177 560.082C801.151 560.082 798.097 571.361 797.949 577H839.741M867.305 560.082C868.585 554.102 868.585 551.5 867.305 544.055M867.305 560.082H839.741M867.305 560.082C875.84 565.069 879.295 573.438 879.956 577H839.741M867.305 544.055H839.741M839.741 544.055V560.082M839.741 560.082V577M814.347 402.481L818.402 407.824M818.402 407.824V403.372M818.402 407.824V410.495M818.402 403.372V389.126C823.144 376.957 835.652 359.921 847.745 389.126C854.265 377.254 869.263 360.633 877.088 389.126V405.153M818.402 403.372C822.254 395.655 838.851 389.126 844.186 403.372M844.186 403.372C843.002 411.682 836.187 424.741 818.402 410.495M844.186 403.372H851.299M830.848 403.372V407.824H832.6V405.265V403.372M851.299 403.372C853.968 396.249 868.194 385.564 877.088 405.153M851.299 403.372C854.504 419.837 870.861 421.18 877.088 405.153M877.088 405.153V409.021M864.637 403.372V407.824H866.415V403.372M877.088 409.021C878.104 407.152 879.015 405.265 880.642 402.481L877.088 409.021Z" stroke="black" stroke-width="3"/>
<path d="M188.384 535.756C177.656 499.79 188.384 444.206 194.16 440.119C194.918 439.584 195.7 438.441 196.488 436.85C188.835 441.482 172.705 445.514 169.404 424.588C167.003 409.368 175.719 400.965 184.6 389.532C185.869 387.898 188.477 385.029 189.721 383.606C194.732 377.868 199.243 374.036 201.236 373.048C207.838 369.779 230.944 356.7 261.476 373.048C267.362 376.2 268.401 378.394 272.241 382.26C274.409 384.441 276.11 386.936 277.868 389.047C285.994 398.804 290.999 403.857 288.233 415.597C282.457 440.119 268.428 436.032 258.526 432.763C268.594 438.265 273.114 454 273.5 476C277.491 480.096 276.326 483.88 273.394 486.483C272.793 504.202 270.271 523.948 268.428 535.756H249.036C252.2 542.023 261.002 554.883 270.904 556.191V566H229.644H188.384V556.191C194.986 554.883 201.587 542.023 204.063 535.756H188.384Z" fill="#E5DFCD"/>
<path d="M258.526 432.763C239.382 474.614 209.191 452.925 196.488 436.85M258.526 432.763C268.429 436.032 282.457 440.119 288.233 415.597C290.999 403.857 285.994 398.804 277.868 389.047M258.526 432.763C254.861 424.327 247.434 405.25 247.042 396.433M258.526 432.763C268.594 438.265 273.114 454 273.5 476M206.539 398.431C204.698 408.912 200.512 428.727 196.488 436.85M196.488 436.85C195.7 438.441 194.918 439.584 194.16 440.119C188.384 444.206 177.656 499.79 188.384 535.756H204.063M196.488 436.85C188.835 441.482 172.705 445.514 169.404 424.588C167.003 409.368 175.719 400.965 184.6 389.532M219.741 429.493C221.736 421.977 235.627 422.996 235.627 429.493M221.736 443.134C225.337 446.448 229.71 446.448 232.283 443.134M204.063 535.756C201.587 542.023 194.986 554.883 188.384 556.191V566H229.644M204.063 535.756H229.644M229.644 566H270.904V556.191C261.002 554.883 252.2 542.023 249.036 535.756M229.644 566V535.756M229.644 535.756H249.036M249.036 535.756H268.428C270.646 521.545 273.848 495.836 273.5 476M198.287 470.364L213.965 480.172C214.134 481.344 214.283 482.755 214.366 484.259M194.16 490.799C197.186 492.978 204.558 497.338 209.839 497.338C211.365 497.338 212.423 496.383 213.135 494.886M214.366 484.259C214.573 487.978 214.384 492.263 213.135 494.886M214.366 484.259C218.533 483.26 226.382 482.856 227.143 488.347C227.212 488.842 227.223 489.386 227.169 489.981C226.508 497.174 217.538 496.248 213.135 494.886M189.721 383.606C194.732 377.868 199.243 374.036 201.236 373.048C207.838 369.779 230.944 356.7 261.476 373.048C267.362 376.2 268.401 378.394 272.241 382.26M189.721 383.606C203.571 387.641 239.465 393.021 272.241 382.26M189.721 383.606C188.477 385.029 185.869 387.898 184.6 389.532M272.241 382.26C274.409 384.441 276.11 386.936 277.868 389.047M277.868 389.047C270.685 391.581 259.579 394.566 247.042 396.433M184.6 389.532C201.865 399.547 226.393 399.507 247.042 396.433M242 483L257 477C258.555 476.983 263.532 475.325 263 478.5M263.5 490C257.919 498.561 247.5 496.5 238.5 496.5M263.5 490C263.101 490.751 264.077 489.115 263.5 490ZM263.5 490C269.87 490.545 281.144 483.847 273.5 476M263.5 490C264.38 488.342 262.818 479.584 263 478.5M273.5 476C271.492 473.007 264.837 475.891 263 478.5M213.965 413.145V415.597H216.44V413.145H213.965ZM240.371 413.145V415.597H242.847V413.145H240.371Z" stroke="black" stroke-width="3"/>
<path d="M274.489 472.421L279.019 466.777L283.664 459.926L286.84 455.13L293.964 444.371L299.135 436.563L302.907 433.592C305.716 427.571 304.877 421.372 303.874 418.226C303.729 417.87 303.607 417.533 303.507 417.222C303.064 416.278 302.678 415.302 302.347 414.298C301.742 412.463 301.322 410.537 301.08 408.559C300.948 407.476 300.869 406.377 300.843 405.269C300.816 404.152 300.843 403.025 300.921 401.896C301.071 399.739 301.41 397.572 301.93 395.438C302.472 393.213 303.211 391.024 304.138 388.924C304.743 387.941 305.796 386.278 307.031 384.419C308.367 382.409 309.914 380.168 311.338 378.306C312.85 376.81 314.513 375.478 316.32 374.354C318.341 373.096 320.542 372.097 322.911 371.417C324.244 371.035 325.63 370.754 327.068 370.585C328.769 370.384 330.381 370.286 331.906 370.279C334.761 370.265 337.314 370.569 339.588 371.109C341.747 371.622 343.654 372.35 345.328 373.222C347.642 374.429 349.51 375.913 350.981 377.494C352.924 379.582 354.177 381.838 354.854 383.847C355.146 385.154 355.383 386.425 355.566 387.66C355.911 389.977 356.07 392.17 356.065 394.244C356.059 396.589 355.844 398.783 355.45 400.835C355.11 402.61 354.636 404.278 354.048 405.846C353.199 408.109 352.114 410.164 350.852 412.025C349.521 413.989 347.993 415.739 346.339 417.295C344.465 419.059 342.429 420.573 340.333 421.868C338.652 422.908 336.932 423.805 335.228 424.577C334.724 424.805 334.221 425.022 333.721 425.229C332.128 425.887 330.562 426.436 329.068 426.891C327.372 427.406 325.769 427.799 324.324 428.087C322.661 428.419 321.208 428.612 320.063 428.695C319.115 428.764 318.38 428.758 317.912 428.692C317.561 428.691 317.217 428.678 316.879 428.652C312.803 428.874 308.057 433.335 306.058 435.723L304.119 439.539L303.482 440.586L297.266 450.803L286.696 466.803L283.953 471.069L279.87 477.415C280.218 481.427 277.661 481.83 276.339 481.53C268.219 478.097 271.194 474.686 273.696 473.409L274.489 472.421Z" fill="#E5DFCD"/>
<path d="M279.019 466.777L273.696 473.409M279.019 466.777C281.737 467.208 284.586 467.36 286.696 466.803M279.019 466.777L283.664 459.926M283.664 459.926C286.594 460.74 286.101 465.381 286.696 466.803M283.664 459.926L286.84 455.13M273.696 473.409L279.87 477.415M273.696 473.409C271.194 474.686 268.219 478.097 276.339 481.53C277.661 481.83 280.218 481.427 279.87 477.415M279.87 477.415L283.953 471.069M286.696 466.803L297.266 450.803M286.696 466.803L283.953 471.069M299.135 436.563L304.119 439.539M299.135 436.563L302.907 433.592M299.135 436.563L293.964 444.371M304.119 439.539L306.058 435.723M304.119 439.539L303.482 440.586M302.907 433.592L306.058 435.723M302.907 433.592C306.057 426.84 304.62 419.865 303.507 417.222M306.058 435.723C308.229 433.13 313.638 428.093 317.912 428.692M317.912 428.692C317.036 428.69 316.201 428.608 315.408 428.46M317.912 428.692C318.38 428.758 319.115 428.764 320.063 428.695M354.854 383.847C354.177 381.838 352.924 379.582 350.981 377.494M354.854 383.847L324.324 428.087M354.854 383.847C355.146 385.154 355.383 386.425 355.566 387.66M303.507 417.222C303.908 418.475 304.672 420.142 305.824 421.815M303.507 417.222C302.254 414.555 301.454 411.62 301.08 408.559M303.507 417.222L320.063 428.695M322.911 371.417C324.244 371.035 325.63 370.754 327.068 370.585C328.769 370.384 330.381 370.286 331.906 370.279M322.911 371.417L300.843 405.269M322.911 371.417C320.542 372.097 318.341 373.096 316.32 374.354M322.911 371.417L356.065 394.244M300.843 405.269C300.869 406.377 300.948 407.476 301.08 408.559M300.843 405.269C300.816 404.152 300.843 403.025 300.921 401.896M302.347 414.298L331.906 370.279M331.906 370.279C334.761 370.265 337.314 370.569 339.588 371.109M331.906 370.279L355.566 387.66M339.588 371.109L305.824 421.815M339.588 371.109C341.747 371.622 343.654 372.35 345.328 373.222M305.824 421.815C306.819 423.26 308.103 424.711 309.69 425.905M309.69 425.905L345.328 373.222M309.69 425.905C311.285 427.104 313.186 428.044 315.408 428.46M345.328 373.222C347.642 374.429 349.51 375.913 350.981 377.494M350.981 377.494L315.408 428.46M324.324 428.087C325.769 427.799 327.372 427.406 329.068 426.891M324.324 428.087C322.661 428.419 321.208 428.612 320.063 428.695M356.065 394.244L333.721 425.229M356.065 394.244C356.059 396.589 355.844 398.783 355.45 400.835M356.065 394.244C356.07 392.17 355.911 389.977 355.566 387.66M333.721 425.229C332.128 425.887 330.562 426.436 329.068 426.891M333.721 425.229C334.221 425.022 334.724 424.805 335.228 424.577M301.08 408.559L329.068 426.891M300.921 401.896L335.228 424.577M300.921 401.896C301.071 399.739 301.41 397.572 301.93 395.438M335.228 424.577C336.932 423.805 338.652 422.908 340.333 421.868M301.93 395.438L340.333 421.868M301.93 395.438C302.472 393.213 303.211 391.024 304.138 388.924M340.333 421.868C342.429 420.573 344.465 419.059 346.339 417.295M304.138 388.924L346.339 417.295M304.138 388.924C304.743 387.941 305.796 386.278 307.031 384.419M346.339 417.295C347.993 415.739 349.521 413.989 350.852 412.025M350.852 412.025C352.114 410.164 353.199 408.109 354.048 405.846M350.852 412.025L307.031 384.419M311.338 378.306L354.048 405.846M311.338 378.306C312.85 376.81 314.513 375.478 316.32 374.354M311.338 378.306C309.914 380.168 308.367 382.409 307.031 384.419M354.048 405.846C354.636 404.278 355.11 402.61 355.45 400.835M316.32 374.354L355.45 400.835M303.482 440.586C300.979 442.713 295.573 446.447 293.964 444.371M303.482 440.586L297.266 450.803M293.964 444.371L286.84 455.13M297.266 450.803C294.558 453.001 288.683 456.945 286.84 455.13M283.953 471.069C281.263 471.813 275.524 473.094 274.083 472.266" stroke="black" stroke-width="2"/>
<path d="M319.099 401.644C317.515 403.503 315.298 408.504 319.099 413.636C320.838 411.859 323.274 406.974 319.099 401.644Z" fill="#AED385"/>
<path d="M331.627 398.637C327.893 395.672 324.047 397.402 322.59 398.637C326.901 403.325 324.797 414.434 323.001 416.344C327.108 419.343 330.737 417.594 332.038 416.344C327.863 411.587 329.887 400.519 331.627 398.637Z" fill="#AED385"/>
<path d="M335.864 402.344C337.476 404.048 339.733 408.692 335.864 413.636C334.181 411.854 331.825 407.102 335.864 402.344Z" fill="#AED385"/>
<path d="M319.099 401.644C317.515 403.503 315.298 408.504 319.099 413.636C320.838 411.859 323.274 406.974 319.099 401.644Z" stroke="#AED385" stroke-width="3"/>
<path d="M331.627 398.637C327.893 395.672 324.047 397.402 322.59 398.637C326.901 403.325 324.797 414.434 323.001 416.344C327.108 419.343 330.737 417.594 332.038 416.344C327.863 411.587 329.887 400.519 331.627 398.637Z" stroke="#AED385" stroke-width="3"/>
<path d="M335.864 402.344C337.476 404.048 339.733 408.692 335.864 413.636C334.181 411.854 331.825 407.102 335.864 402.344Z" stroke="#AED385" stroke-width="3"/>
</svg>
