<svg width="1101" height="974" viewBox="0 0 1101 974" fill="none" xmlns="http://www.w3.org/2000/svg">
<rect width="1101" height="974" rx="79" fill="#86A9AB"/>
<path d="M547.834 604.423H65V545.321V209.178V140.577L550.472 142.16V118.942L565.248 101V140.577H1037V209.178V545.321V604.423H565.248V625.003L547.834 644V604.423Z" fill="#C87C62"/>
<path d="M547.834 604.423H65V545.321M547.834 604.423V644L565.248 625.003V604.423M547.834 604.423L550.472 142.16M565.248 604.423H1037V545.321M565.248 604.423V140.577M565.248 140.577H1037V209.178M565.248 140.577V101L550.472 118.942V142.16M550.472 142.16L65 140.577V209.178M550.472 142.16L550.09 209.178H294.544M65 209.178V545.321M65 209.178H294.544M65 545.321H294.544M550.472 545.321H294.544M565.248 545.321H810.094M1037 545.321H810.094M1037 545.321V209.178M810.094 545.321V377.249M1037 209.178H565.248H810.094V377.249M810.094 377.249H565.248M550.472 377.249H294.544M294.544 377.249V209.178M294.544 377.249V545.321" stroke="white" stroke-width="4"/>
<path d="M870.141 267.479C839.243 264.531 833.036 245.785 832.246 223.176C826.428 230.428 814.635 238.366 814.012 212.1C813.388 185.835 837.659 167.138 849.872 161.073C858.057 157.008 882.926 154.428 898.206 161.073C907.439 165.089 915.397 174.836 920.847 186.785C965.137 193.695 960.535 266.4 952.563 302.676C954.176 296.402 960.573 291.661 963.69 290.026C968.367 299.519 959.402 308.485 954.335 311.782L907.95 312.177H877.547C871.31 315.658 864.034 313.364 861.176 311.782C860.396 310.991 858.837 308.934 858.837 307.035C857.902 305.453 865.983 297.673 870.141 293.982V267.479Z" fill="#E5DFCD"/>
<path d="M908.341 183.224C909.408 195.991 909.232 214.114 905.741 230.296M870.141 267.479C839.243 264.531 833.036 245.785 832.246 223.176M870.141 267.479C890.855 269.455 901.157 251.55 905.741 230.296M870.141 267.479V293.982C865.983 297.673 857.902 305.453 858.837 307.035C858.837 308.934 860.396 310.991 861.176 311.782C864.034 313.364 871.31 315.658 877.547 312.177M832.722 189.553C832.722 200.779 831.871 212.415 832.246 223.176M832.246 223.176C826.428 230.428 814.635 238.366 814.012 212.1C813.388 185.835 837.659 167.138 849.872 161.073C858.057 157.008 882.926 154.428 898.206 161.073C907.439 165.089 915.397 174.836 920.847 186.785M905.741 230.296C917.383 246.119 925.577 235.57 928.219 228.318C929.629 214.832 926.67 199.552 920.847 186.785M872.09 176.5L858.057 234.252H886.902M860.786 245.328C863.514 248.228 871.154 252.289 879.886 245.328M877.547 312.177C877.027 310.2 876.299 306.086 877.547 305.453C879.106 304.662 890.8 298.728 888.851 287.257M877.547 312.177H907.95M907.95 312.177C904.529 306.376 899.297 293.27 905.741 287.257C907.647 287.389 912.394 288.918 916.136 293.982C917.045 295.3 920.345 296.355 926.27 290.026C932.195 283.697 936.275 290.026 937.574 293.982M907.95 312.177L954.335 311.782C959.402 308.485 968.367 299.519 963.69 290.026C960.442 291.73 953.633 296.806 952.386 303.475C960.464 267.479 965.465 193.746 920.847 186.785M853.38 167.402C852.211 167.798 849.767 171.952 852.262 171.319C853.821 169.42 854.419 167.27 853.38 167.402ZM888.461 167.798C889.37 167.402 890.41 167.402 890.02 168.984C886.226 176.096 887.681 167.798 888.461 167.798Z" stroke="black" stroke-width="3"/>
<path d="M775.699 507.166L771.588 499.296L766.176 490.699L762.351 484.768L753.769 471.462L747.54 461.804L746.06 456.101C740.677 449.978 733.297 447.868 729.267 447.446C728.795 447.433 728.357 447.404 727.958 447.363C726.679 447.396 725.391 447.349 724.1 447.227C721.74 447.003 719.369 446.526 717.027 445.823C715.745 445.438 714.471 444.985 713.212 444.469C711.944 443.949 710.691 443.364 709.46 442.719C707.11 441.489 704.841 440.04 702.699 438.405C700.465 436.699 698.37 434.79 696.466 432.713C695.659 431.55 694.309 429.547 692.828 427.243C691.227 424.752 689.471 421.909 688.08 419.392C687.143 416.956 686.466 414.43 686.092 411.846C685.674 408.955 685.636 405.989 686.039 402.992C686.266 401.306 686.633 399.609 687.15 397.91C687.763 395.9 688.447 394.04 689.19 392.322C690.581 389.107 692.18 386.387 693.907 384.098C695.548 381.924 697.305 380.139 699.11 378.688C701.606 376.682 704.194 375.314 706.696 374.439C709.999 373.284 713.152 372.988 715.743 373.216C717.356 373.531 718.901 373.892 720.38 374.294C723.153 375.048 725.696 375.949 728.025 376.977C730.657 378.138 733.017 379.461 735.129 380.914C736.956 382.171 738.597 383.526 740.069 384.958C742.196 387.027 743.97 389.259 745.44 391.594C746.992 394.058 748.205 396.637 749.139 399.262C750.198 402.237 750.897 405.272 751.321 408.264C751.66 410.666 751.822 413.041 751.85 415.336C751.858 416.015 751.854 416.688 751.84 417.351C751.795 419.466 751.641 421.496 751.416 423.399C751.16 425.559 750.811 427.554 750.424 429.32C749.977 431.352 749.478 433.081 749.008 434.409C748.619 435.507 748.249 436.331 747.945 436.825C747.771 437.219 747.586 437.599 747.391 437.965C745.633 442.656 748.308 450.186 750.007 453.609L753.34 457.669L754.203 458.901L762.623 470.92L775.399 490.68L778.841 495.865L783.962 503.579C788.643 505.164 787.836 508.236 786.848 509.574C778.989 517.009 776.621 511.986 776.419 508.545L775.699 507.166Z" fill="#E5DFCD"/>
<path d="M771.588 499.296L776.419 508.545M771.588 499.296C773.412 496.453 774.986 493.326 775.399 490.68M771.588 499.296L766.176 490.699M766.176 490.699C768.534 487.808 773.507 490.648 775.399 490.68M766.176 490.699L762.351 484.768M776.419 508.545L783.962 503.579M776.419 508.545C776.621 511.986 778.989 517.009 786.848 509.574C787.836 508.236 788.643 505.164 783.962 503.579M783.962 503.579L778.841 495.865M775.399 490.68L762.623 470.92M775.399 490.68L778.841 495.865M747.54 461.804L753.34 457.669M747.54 461.804L746.06 456.101M747.54 461.804L753.769 471.462M753.34 457.669L750.007 453.609M753.34 457.669L754.203 458.901M746.06 456.101L750.007 453.609M746.06 456.101C740.024 449.235 731.477 447.415 727.958 447.363M750.007 453.609C748.162 449.893 745.167 441.332 747.945 436.825M747.945 436.825C747.51 437.808 747.008 438.705 746.45 439.524M747.945 436.825C748.249 436.331 748.619 435.507 749.008 434.409M715.743 373.216C713.152 372.988 709.999 373.284 706.696 374.439M715.743 373.216L750.424 429.32M715.743 373.216C717.356 373.531 718.901 373.892 720.38 374.294M727.958 447.363C729.564 447.53 731.813 447.492 734.261 447.022M727.958 447.363C724.343 447.457 720.65 446.911 717.027 445.823M727.958 447.363L749.008 434.409M686.039 402.992C686.266 401.306 686.633 399.609 687.15 397.91C687.763 395.9 688.447 394.04 689.19 392.322M686.039 402.992L713.212 444.469M686.039 402.992C685.636 405.989 685.674 408.955 686.092 411.846M686.039 402.992L728.025 376.977M713.212 444.469C714.471 444.985 715.745 445.438 717.027 445.823M713.212 444.469C711.944 443.949 710.691 443.364 709.46 442.719M724.1 447.227L689.19 392.322M689.19 392.322C690.581 389.107 692.18 386.387 693.907 384.098M689.19 392.322L720.38 374.294M693.907 384.098L734.261 447.022M693.907 384.098C695.548 381.924 697.305 380.139 699.11 378.688M734.261 447.022C736.376 446.615 738.639 445.887 740.762 444.691M740.762 444.691L699.11 378.688M740.762 444.691C742.895 443.49 744.888 441.817 746.45 439.524M699.11 378.688C701.606 376.682 704.194 375.314 706.696 374.439M706.696 374.439L746.45 439.524M750.424 429.32C750.811 427.554 751.16 425.559 751.416 423.399M750.424 429.32C749.977 431.352 749.478 433.081 749.008 434.409M728.025 376.977L751.84 417.351M728.025 376.977C730.657 378.138 733.017 379.461 735.129 380.914M728.025 376.977C725.696 375.949 723.153 375.048 720.38 374.294M751.84 417.351C751.795 419.466 751.641 421.496 751.416 423.399M751.84 417.351C751.854 416.688 751.858 416.015 751.85 415.336M717.027 445.823L751.416 423.399M709.46 442.719L751.85 415.336M709.46 442.719C707.11 441.489 704.841 440.04 702.699 438.405M751.85 415.336C751.822 413.041 751.66 410.666 751.321 408.264M702.699 438.405L751.321 408.264M702.699 438.405C700.465 436.699 698.37 434.79 696.466 432.713M751.321 408.264C750.897 405.272 750.198 402.237 749.139 399.262M696.466 432.713L749.139 399.262M696.466 432.713C695.659 431.55 694.309 429.547 692.828 427.243M749.139 399.262C748.205 396.637 746.992 394.058 745.44 391.594M745.44 391.594C743.97 389.259 742.196 387.027 740.069 384.958M745.44 391.594L692.828 427.243M688.08 419.392L740.069 384.958M688.08 419.392C687.143 416.956 686.466 414.43 686.092 411.846M688.08 419.392C689.471 421.909 691.227 424.752 692.828 427.243M740.069 384.958C738.597 383.526 736.956 382.171 735.129 380.914M686.092 411.846L735.129 380.914M754.203 458.901C755.361 462.761 756.894 470.676 753.769 471.462M754.203 458.901L762.623 470.92M753.769 471.462L762.351 484.768M762.623 470.92C763.76 475.045 765.298 483.591 762.351 484.768M778.841 495.865C778.353 499.254 776.966 506.334 775.325 507.546" stroke="black" stroke-width="2"/>
<path d="M856.816 307.524L850.561 301.758L842.898 295.759L837.529 291.648L825.483 282.428L816.74 275.736L813.559 271.073C806.723 267.294 799.385 267.78 795.615 268.704C795.185 268.845 794.781 268.961 794.407 269.053C793.265 269.497 792.089 269.872 790.884 270.179C788.684 270.741 786.392 271.079 784.053 271.203C782.771 271.271 781.476 271.275 780.174 271.217C778.862 271.158 777.543 271.037 776.224 270.854C773.707 270.505 771.192 269.934 768.731 269.152C766.165 268.337 763.657 267.294 761.268 266.038C760.164 265.25 758.299 263.881 756.217 262.283C753.967 260.555 751.464 258.559 749.394 256.74C747.761 254.847 746.333 252.789 745.159 250.579C743.846 248.108 742.852 245.446 742.245 242.613C741.904 241.019 741.686 239.37 741.602 237.671C741.504 235.659 741.519 233.761 741.633 231.971C741.846 228.622 742.407 225.652 743.224 223.029C743.999 220.537 745.006 218.359 746.164 216.466C747.765 213.849 749.656 211.778 751.629 210.179C754.233 208.068 756.98 206.78 759.391 206.148C760.947 205.91 762.457 205.735 763.921 205.618C766.666 205.401 769.25 205.39 771.683 205.563C774.433 205.758 776.989 206.187 779.364 206.814C781.418 207.356 783.336 208.046 785.128 208.861C787.715 210.038 790.037 211.476 792.119 213.106C794.315 214.826 796.244 216.758 797.936 218.823C799.854 221.163 801.467 223.673 802.817 226.234C803.901 228.29 804.816 230.379 805.584 232.44C805.811 233.05 806.025 233.657 806.227 234.26C806.871 236.182 807.39 238.062 807.802 239.851C808.271 241.881 808.603 243.793 808.825 245.511C809.08 247.488 809.19 249.209 809.195 250.558C809.2 251.674 809.133 252.537 809.019 253.081C808.989 253.492 808.946 253.895 808.889 254.288C808.822 259.087 813.672 265.012 816.312 267.548L820.631 270.129L821.809 270.961L833.292 279.073L851.209 292.755L855.991 296.316L863.106 301.615C867.839 301.529 868.106 304.56 867.648 306.087C862.969 315.334 859.207 311.572 857.911 308.534L856.816 307.524Z" fill="#E5DFCD"/>
<path d="M850.561 301.758L857.911 308.534M850.561 301.758C851.285 298.604 851.692 295.276 851.209 292.755M850.561 301.758L842.898 295.759M842.898 295.759C844.088 292.388 849.492 293.339 851.209 292.755M842.898 295.759L837.529 291.648M857.911 308.534L863.106 301.615M857.911 308.534C859.207 311.572 862.969 315.334 867.648 306.087C868.106 304.56 867.839 301.529 863.106 301.615M863.106 301.615L855.991 296.316M851.209 292.755L833.292 279.073M851.209 292.755L855.991 296.316M816.74 275.736L820.631 270.129M816.74 275.736L813.559 271.073M816.74 275.736L825.483 282.428M820.631 270.129L816.312 267.548M820.631 270.129L821.809 270.961M813.559 271.073L816.312 267.548M813.559 271.073C805.894 266.836 797.597 267.961 794.407 269.053M816.312 267.548C813.445 264.794 807.973 258.045 809.019 253.081M809.019 253.081C808.945 254.108 808.783 255.08 808.545 255.998M809.019 253.081C809.133 252.537 809.2 251.674 809.195 250.558M759.391 206.148C756.98 206.78 754.233 208.068 751.629 210.179M759.391 206.148L808.825 245.511M759.391 206.148C760.947 205.91 762.457 205.735 763.921 205.618M794.407 269.053C795.91 268.684 797.926 267.921 799.981 266.705M794.407 269.053C791.179 270.308 787.672 271.011 784.053 271.203M794.407 269.053L809.195 250.558M742.245 242.613C741.904 241.019 741.686 239.37 741.602 237.671C741.504 235.659 741.519 233.761 741.633 231.971M742.245 242.613L780.174 271.217M742.245 242.613C742.852 245.446 743.846 248.108 745.159 250.579M742.245 242.613L771.683 205.563M780.174 271.217C781.476 271.275 782.771 271.271 784.053 271.203M780.174 271.217C778.862 271.158 777.543 271.037 776.224 270.854M790.884 270.179L741.633 231.971M741.633 231.971C741.846 228.622 742.407 225.652 743.224 223.029M741.633 231.971L763.921 205.618M743.224 223.029L799.981 266.705M743.224 223.029C743.999 220.537 745.006 218.359 746.164 216.466M799.981 266.705C801.756 265.654 803.561 264.265 805.089 262.499M805.089 262.499L746.164 216.466M805.089 262.499C806.623 260.725 807.879 258.571 808.545 255.998M746.164 216.466C747.765 213.849 749.656 211.778 751.629 210.179M751.629 210.179L808.545 255.998M808.825 245.511C808.603 243.793 808.271 241.881 807.802 239.851M808.825 245.511C809.08 247.488 809.19 249.209 809.195 250.558M771.683 205.563L806.227 234.26M771.683 205.563C774.433 205.758 776.989 206.187 779.364 206.814M771.683 205.563C769.25 205.39 766.666 205.401 763.921 205.618M806.227 234.26C806.871 236.182 807.39 238.062 807.802 239.851M806.227 234.26C806.025 233.657 805.811 233.05 805.584 232.44M784.053 271.203L807.802 239.851M776.224 270.854L805.584 232.44M776.224 270.854C773.707 270.505 771.192 269.934 768.731 269.152M805.584 232.44C804.816 230.379 803.901 228.29 802.817 226.234M768.731 269.152L802.817 226.234M768.731 269.152C766.165 268.337 763.657 267.294 761.268 266.038M802.817 226.234C801.467 223.673 799.854 221.163 797.936 218.823M761.268 266.038L797.936 218.823M761.268 266.038C760.164 265.25 758.299 263.881 756.217 262.283M797.936 218.823C796.244 216.758 794.315 214.826 792.119 213.106M792.119 213.106C790.037 211.476 787.715 210.038 785.128 208.861M792.119 213.106L756.217 262.283M749.394 256.74L785.128 208.861M749.394 256.74C747.761 254.847 746.333 252.789 745.159 250.579M749.394 256.74C751.464 258.559 753.967 260.555 756.217 262.283M785.128 208.861C783.336 208.046 781.418 207.356 779.364 206.814M745.159 250.579L779.364 206.814M821.809 270.961C824.102 274.067 828.046 280.708 825.483 282.428M821.809 270.961L833.292 279.073M825.483 282.428L837.529 291.648M833.292 279.073C835.653 282.425 839.805 289.633 837.529 291.648M855.991 296.316C856.647 299.53 857.689 306.364 856.601 307.988" stroke="black" stroke-width="2"/>
<path d="M818.402 389.126C823.144 376.957 835.652 359.921 847.745 389.126C854.265 377.254 869.263 360.633 877.088 389.126V405.153V409.021C877.088 409.021 877.088 409.02 877.088 409.02C878.104 407.151 879.015 405.265 880.642 402.481L877.088 409.02C877.088 409.02 877.088 409.021 877.088 409.021V484.398C875.646 485.842 873.95 487.357 872.049 488.85C877.003 492.115 886.551 501.672 885.111 513.782C891.074 497.652 899.914 476.235 905.54 463.029C916.803 491.522 927.235 545.836 878.865 535.151C880.286 539.425 878.272 542.868 877.088 544.055H867.305C868.585 551.5 868.585 554.102 867.305 560.082C875.84 565.069 879.295 573.438 879.956 577H839.741H797.949C798.097 571.361 801.151 560.082 812.177 560.082C810.755 557.945 811.584 548.507 812.177 544.055H804.173C804.173 537.449 806.841 526.841 812.177 521.795C809.213 523.576 801.685 526.425 795.283 523.576C792.886 522.509 791.91 520.16 791.767 517.343C790.038 517.343 781.944 520.014 779.277 510.22C777.143 502.384 787.867 505.174 793.496 507.549C794.064 505.869 794.699 504.331 795.283 503.097L818.402 497.754V484.398V410.495V407.824V403.372V389.126Z" fill="#E5DFCD"/>
<path d="M818.402 484.398V497.754L795.283 503.097C794.699 504.331 794.064 505.869 793.496 507.549M818.402 484.398C835.213 508.715 858.701 499.331 872.049 488.85M818.402 484.398V410.495M847.745 422.961C840.928 430.084 828.36 446.289 832.629 454.125H856.637M835.73 474.604C841.96 479.163 847.745 478.878 854.858 474.604M793.496 507.549C787.867 505.174 777.143 502.384 779.277 510.22C781.944 520.014 790.038 517.343 791.767 517.343M793.496 507.549C792.439 510.671 791.612 514.283 791.767 517.343M791.767 517.343C791.91 520.16 792.886 522.509 795.283 523.576C801.685 526.425 809.213 523.576 812.177 521.795C806.841 526.841 804.173 537.449 804.173 544.055H812.177M878.865 535.151C880.286 539.425 878.272 542.868 877.088 544.055H867.305M878.865 535.151C927.235 545.836 916.803 491.522 905.54 463.029C899.914 476.235 891.074 497.652 885.111 513.782M878.865 535.151C878.601 534.358 879.027 532.143 879.956 528.918M872.049 488.85C873.95 487.357 875.646 485.842 877.088 484.398V409.021M872.049 488.85C877.003 492.115 886.551 501.672 885.111 513.782M885.111 513.782C882.888 519.795 881.064 525.074 879.956 528.918M879.956 528.918C859.489 536.042 851.731 527.138 850.411 521.795C851.135 521.588 852.113 521.156 853.078 520.47M865.527 507.549C867.661 517.75 860.489 515.954 856.637 513.782C856.637 514.088 856.621 514.385 856.591 514.672M856.591 514.672C856.304 517.428 854.708 519.312 853.078 520.47M856.591 514.672C850.411 504.878 828.181 512.001 853.078 520.47M812.177 544.055C811.584 548.507 810.755 557.945 812.177 560.082M812.177 544.055H839.741M812.177 560.082H839.741M812.177 560.082C801.151 560.082 798.097 571.361 797.949 577H839.741M867.305 560.082C868.585 554.102 868.585 551.5 867.305 544.055M867.305 560.082H839.741M867.305 560.082C875.84 565.069 879.295 573.438 879.956 577H839.741M867.305 544.055H839.741M839.741 544.055V560.082M839.741 560.082V577M814.347 402.481L818.402 407.824M818.402 407.824V403.372M818.402 407.824V410.495M818.402 403.372V389.126C823.144 376.957 835.652 359.921 847.745 389.126C854.265 377.254 869.263 360.633 877.088 389.126V405.153M818.402 403.372C822.254 395.655 838.851 389.126 844.186 403.372M844.186 403.372C843.002 411.682 836.187 424.741 818.402 410.495M844.186 403.372H851.299M830.848 403.372V407.824H832.6V405.265V403.372M851.299 403.372C853.968 396.249 868.194 385.564 877.088 405.153M851.299 403.372C854.504 419.837 870.861 421.18 877.088 405.153M877.088 405.153V409.021M864.637 403.372V407.824H866.415V403.372M877.088 409.021C878.104 407.152 879.015 405.265 880.642 402.481L877.088 409.021Z" stroke="black" stroke-width="3"/>
<path d="M188.384 535.756C177.656 499.79 188.384 444.206 194.16 440.119C194.918 439.584 195.7 438.441 196.488 436.85C188.835 441.482 172.705 445.514 169.404 424.588C167.003 409.368 175.719 400.965 184.6 389.532C185.869 387.898 188.477 385.029 189.721 383.606C194.732 377.868 199.243 374.036 201.236 373.048C207.838 369.779 230.944 356.7 261.476 373.048C267.362 376.2 268.401 378.394 272.241 382.26C274.409 384.441 276.11 386.936 277.868 389.047C285.994 398.804 290.999 403.857 288.233 415.597C282.457 440.119 268.428 436.032 258.526 432.763C268.594 438.265 273.114 454 273.5 476C277.491 480.096 276.326 483.88 273.394 486.483C272.793 504.202 270.271 523.948 268.428 535.756H249.036C252.2 542.023 261.002 554.883 270.904 556.191V566H229.644H188.384V556.191C194.986 554.883 201.587 542.023 204.063 535.756H188.384Z" fill="#E5DFCD"/>
<path d="M258.526 432.763C239.382 474.614 209.191 452.925 196.488 436.85M258.526 432.763C268.429 436.032 282.457 440.119 288.233 415.597C290.999 403.857 285.994 398.804 277.868 389.047M258.526 432.763C254.861 424.327 247.434 405.25 247.042 396.433M258.526 432.763C268.594 438.265 273.114 454 273.5 476M206.539 398.431C204.698 408.912 200.512 428.727 196.488 436.85M196.488 436.85C195.7 438.441 194.918 439.584 194.16 440.119C188.384 444.206 177.656 499.79 188.384 535.756H204.063M196.488 436.85C188.835 441.482 172.705 445.514 169.404 424.588C167.003 409.368 175.719 400.965 184.6 389.532M219.741 429.493C221.736 421.977 235.627 422.996 235.627 429.493M221.736 443.134C225.337 446.448 229.71 446.448 232.283 443.134M204.063 535.756C201.587 542.023 194.986 554.883 188.384 556.191V566H229.644M204.063 535.756H229.644M229.644 566H270.904V556.191C261.002 554.883 252.2 542.023 249.036 535.756M229.644 566V535.756M229.644 535.756H249.036M249.036 535.756H268.428C270.646 521.545 273.848 495.836 273.5 476M198.287 470.364L213.965 480.172C214.134 481.344 214.283 482.755 214.366 484.259M194.16 490.799C197.186 492.978 204.558 497.338 209.839 497.338C211.365 497.338 212.423 496.383 213.135 494.886M214.366 484.259C214.573 487.978 214.384 492.263 213.135 494.886M214.366 484.259C218.533 483.26 226.382 482.856 227.143 488.347C227.212 488.842 227.223 489.386 227.169 489.981C226.508 497.174 217.538 496.248 213.135 494.886M189.721 383.606C194.732 377.868 199.243 374.036 201.236 373.048C207.838 369.779 230.944 356.7 261.476 373.048C267.362 376.2 268.401 378.394 272.241 382.26M189.721 383.606C203.571 387.641 239.465 393.021 272.241 382.26M189.721 383.606C188.477 385.029 185.869 387.898 184.6 389.532M272.241 382.26C274.409 384.441 276.11 386.936 277.868 389.047M277.868 389.047C270.685 391.581 259.579 394.566 247.042 396.433M184.6 389.532C201.865 399.547 226.393 399.507 247.042 396.433M242 483L257 477C258.555 476.983 263.532 475.325 263 478.5M263.5 490C257.919 498.561 247.5 496.5 238.5 496.5M263.5 490C263.101 490.751 264.077 489.115 263.5 490ZM263.5 490C269.87 490.545 281.144 483.847 273.5 476M263.5 490C264.38 488.342 262.818 479.584 263 478.5M273.5 476C271.492 473.007 264.837 475.891 263 478.5M213.965 413.145V415.597H216.44V413.145H213.965ZM240.371 413.145V415.597H242.847V413.145H240.371Z" stroke="black" stroke-width="3"/>
</svg>
