<svg width="1101" height="847" viewBox="0 0 1101 847" fill="none" xmlns="http://www.w3.org/2000/svg">
<rect width="1101" height="974" rx="79" fill="#86A9AB"/>
<path d="M547.834 604.423H65V545.321V209.178V140.577L550.472 142.16V118.942L565.248 101V140.577H1037V209.178V545.321V604.423H565.248V625.003L547.834 644V604.423Z" fill="#C87C62"/>
<path d="M547.834 604.423H65V545.321M547.834 604.423V644L565.248 625.003V604.423M547.834 604.423L550.472 142.16M565.248 604.423H1037V545.321M565.248 604.423V140.577M565.248 140.577H1037V209.178M565.248 140.577V101L550.472 118.942V142.16M550.472 142.16L65 140.577V209.178M550.472 142.16L550.09 209.178H294.544M65 209.178V545.321M65 209.178H294.544M65 545.321H294.544M550.472 545.321H294.544M565.248 545.321H810.094M1037 545.321H810.094M1037 545.321V209.178M810.094 545.321V377.249M1037 209.178H565.248H810.094V377.249M810.094 377.249H565.248M550.472 377.249H294.544M294.544 377.249V209.178M294.544 377.249V545.321" stroke="white" stroke-width="4"/>
<path d="M870.141 338.479C839.243 335.531 833.036 316.785 832.246 294.176C826.428 301.428 814.635 309.366 814.012 283.1C813.388 256.835 837.659 238.138 849.872 232.073C858.057 228.008 882.926 225.428 898.206 232.073C907.439 236.089 915.397 245.836 920.847 257.785C965.137 264.695 960.535 337.4 952.563 373.676C954.176 367.402 960.573 362.661 963.69 361.026C968.367 370.519 959.402 379.485 954.335 382.782L907.95 383.177H877.547C871.31 386.658 864.034 384.364 861.176 382.782C860.396 381.991 858.837 379.934 858.837 378.035C857.902 376.453 865.983 368.673 870.141 364.982V338.479Z" fill="#E5DFCD"/>
<path d="M908.341 254.224C909.408 266.991 909.232 285.114 905.741 301.296M870.141 338.479C839.243 335.531 833.036 316.785 832.246 294.176M870.141 338.479C890.855 340.455 901.157 322.55 905.741 301.296M870.141 338.479V364.982C865.983 368.673 857.902 376.453 858.837 378.035C858.837 379.934 860.396 381.991 861.176 382.782C864.034 384.364 871.31 386.658 877.547 383.177M832.722 260.553C832.722 271.779 831.871 283.415 832.246 294.176M832.246 294.176C826.428 301.428 814.635 309.366 814.012 283.1C813.388 256.835 837.659 238.138 849.872 232.073C858.057 228.008 882.926 225.428 898.206 232.073C907.439 236.089 915.397 245.836 920.847 257.785M905.741 301.296C917.383 317.119 925.577 306.57 928.219 299.318C929.629 285.832 926.67 270.552 920.847 257.785M872.09 247.5L858.057 305.252H886.902M860.786 316.328C863.514 319.228 871.154 323.289 879.886 316.328M877.547 383.177C877.027 381.2 876.299 377.086 877.547 376.453C879.106 375.662 890.8 369.728 888.851 358.257M877.547 383.177H907.95M907.95 383.177C904.529 377.376 899.297 364.27 905.741 358.257C907.647 358.389 912.394 359.918 916.136 364.982C917.045 366.3 920.345 367.355 926.27 361.026C932.195 354.697 936.275 361.026 937.574 364.982M907.95 383.177L954.335 382.782C959.402 379.485 968.367 370.519 963.69 361.026C960.442 362.73 953.633 367.806 952.386 374.475C960.464 338.479 965.465 264.746 920.847 257.785M853.38 238.402C852.211 238.798 849.767 242.952 852.262 242.319C853.821 240.42 854.419 238.27 853.38 238.402ZM888.461 238.798C889.37 238.402 890.41 238.402 890.02 239.984C886.226 247.096 887.681 238.798 888.461 238.798Z" stroke="black" stroke-width="3"/>
<path d="M856.816 378.524L850.561 372.758L842.898 366.759L837.529 362.648L825.483 353.428L816.74 346.736L813.559 342.073C806.723 338.294 799.385 338.78 795.615 339.704C795.185 339.845 794.781 339.961 794.407 340.053C793.265 340.497 792.089 340.872 790.884 341.179C788.684 341.741 786.392 342.079 784.053 342.203C782.771 342.271 781.476 342.275 780.174 342.217C778.862 342.158 777.543 342.037 776.224 341.854C773.707 341.505 771.192 340.934 768.731 340.152C766.165 339.337 763.657 338.294 761.268 337.038C760.164 336.25 758.299 334.881 756.217 333.283C753.967 331.555 751.464 329.559 749.394 327.74C747.761 325.847 746.333 323.789 745.159 321.579C743.846 319.108 742.852 316.446 742.245 313.613C741.904 312.019 741.686 310.37 741.602 308.671C741.504 306.659 741.519 304.761 741.633 302.971C741.846 299.622 742.407 296.652 743.224 294.029C743.999 291.537 745.006 289.359 746.164 287.466C747.765 284.849 749.656 282.778 751.629 281.179C754.233 279.068 756.98 277.78 759.391 277.148C760.947 276.91 762.457 276.735 763.921 276.618C766.666 276.401 769.25 276.39 771.683 276.563C774.433 276.758 776.989 277.187 779.364 277.814C781.418 278.356 783.336 279.046 785.128 279.861C787.715 281.038 790.037 282.476 792.119 284.106C794.315 285.826 796.244 287.758 797.936 289.823C799.854 292.163 801.467 294.673 802.817 297.234C803.901 299.29 804.816 301.379 805.584 303.44C805.811 304.05 806.025 304.657 806.227 305.26C806.871 307.182 807.39 309.062 807.802 310.851C808.271 312.881 808.603 314.793 808.825 316.511C809.08 318.488 809.19 320.209 809.195 321.558C809.2 322.674 809.133 323.537 809.019 324.081C808.989 324.492 808.946 324.895 808.889 325.288C808.822 330.087 813.672 336.012 816.312 338.548L820.631 341.129L821.809 341.961L833.292 350.073L851.209 363.755L855.991 367.316L863.106 372.615C867.839 372.529 868.106 375.56 867.648 377.087C862.969 386.334 859.207 382.572 857.911 379.534L856.816 378.524Z" fill="#E5DFCD"/>
<path d="M850.561 372.758L857.911 379.534M850.561 372.758C851.285 369.604 851.692 366.276 851.209 363.755M850.561 372.758L842.898 366.759M842.898 366.759C844.088 363.388 849.492 364.339 851.209 363.755M842.898 366.759L837.529 362.648M857.911 379.534L863.106 372.615M857.911 379.534C859.207 382.572 862.969 386.334 867.648 377.087C868.106 375.56 867.839 372.529 863.106 372.615M863.106 372.615L855.991 367.316M851.209 363.755L833.292 350.073M851.209 363.755L855.991 367.316M816.74 346.736L820.631 341.129M816.74 346.736L813.559 342.073M816.74 346.736L825.483 353.428M820.631 341.129L816.312 338.548M820.631 341.129L821.809 341.961M813.559 342.073L816.312 338.548M813.559 342.073C805.894 337.836 797.597 338.961 794.407 340.053M816.312 338.548C813.445 335.794 807.973 329.045 809.019 324.081M809.019 324.081C808.945 325.108 808.783 326.08 808.545 326.998M809.019 324.081C809.133 323.537 809.2 322.674 809.195 321.558M759.391 277.148C756.98 277.78 754.233 279.068 751.629 281.179M759.391 277.148L808.825 316.511M759.391 277.148C760.947 276.91 762.457 276.735 763.921 276.618M794.407 340.053C795.91 339.684 797.926 338.921 799.981 337.705M794.407 340.053C791.179 341.308 787.672 342.011 784.053 342.203M794.407 340.053L809.195 321.558M742.245 313.613C741.904 312.019 741.686 310.37 741.602 308.671C741.504 306.659 741.519 304.761 741.633 302.971M742.245 313.613L780.174 342.217M742.245 313.613C742.852 316.446 743.846 319.108 745.159 321.579M742.245 313.613L771.683 276.563M780.174 342.217C781.476 342.275 782.771 342.271 784.053 342.203M780.174 342.217C778.862 342.158 777.543 342.037 776.224 341.854M790.884 341.179L741.633 302.971M741.633 302.971C741.846 299.622 742.407 296.652 743.224 294.029M741.633 302.971L763.921 276.618M743.224 294.029L799.981 337.705M743.224 294.029C743.999 291.537 745.006 289.359 746.164 287.466M799.981 337.705C801.756 336.654 803.561 335.265 805.089 333.499M805.089 333.499L746.164 287.466M805.089 333.499C806.623 331.725 807.879 329.571 808.545 326.998M746.164 287.466C747.765 284.849 749.656 282.778 751.629 281.179M751.629 281.179L808.545 326.998M808.825 316.511C808.603 314.793 808.271 312.881 807.802 310.851M808.825 316.511C809.08 318.488 809.19 320.209 809.195 321.558M771.683 276.563L806.227 305.26M771.683 276.563C774.433 276.758 776.989 277.187 779.364 277.814M771.683 276.563C769.25 276.39 766.666 276.401 763.921 276.618M806.227 305.26C806.871 307.182 807.39 309.062 807.802 310.851M806.227 305.26C806.025 304.657 805.811 304.05 805.584 303.44M784.053 342.203L807.802 310.851M776.224 341.854L805.584 303.44M776.224 341.854C773.707 341.505 771.192 340.934 768.731 340.152M805.584 303.44C804.816 301.379 803.901 299.29 802.817 297.234M768.731 340.152L802.817 297.234M768.731 340.152C766.165 339.337 763.657 338.294 761.268 337.038M802.817 297.234C801.467 294.673 799.854 292.163 797.936 289.823M761.268 337.038L797.936 289.823M761.268 337.038C760.164 336.25 758.299 334.881 756.217 333.283M797.936 289.823C796.244 287.758 794.315 285.826 792.119 284.106M792.119 284.106C790.037 282.476 787.715 281.038 785.128 279.861M792.119 284.106L756.217 333.283M749.394 327.74L785.128 279.861M749.394 327.74C747.761 325.847 746.333 323.789 745.159 321.579M749.394 327.74C751.464 329.559 753.967 331.555 756.217 333.283M785.128 279.861C783.336 279.046 781.418 278.356 779.364 277.814M745.159 321.579L779.364 277.814M821.809 341.961C824.102 345.067 828.046 351.708 825.483 353.428M821.809 341.961L833.292 350.073M825.483 353.428L837.529 362.648M833.292 350.073C835.653 353.425 839.805 360.633 837.529 362.648M855.991 367.316C856.647 370.53 857.689 377.364 856.601 378.988" stroke="black" stroke-width="2"/>
<path d="M760.099 300.644C758.515 302.503 756.298 307.504 760.099 312.636C761.838 310.859 764.274 305.974 760.099 300.644Z" fill="#AED385"/>
<path d="M772.627 297.637C768.893 294.672 765.047 296.402 763.59 297.637C767.901 302.325 765.797 313.434 764.001 315.344C768.108 318.343 771.737 316.594 773.038 315.344C768.863 310.587 770.887 299.519 772.627 297.637Z" fill="#AED385"/>
<path d="M776.864 301.344C778.476 303.048 780.733 307.692 776.864 312.636C775.181 310.854 772.825 306.102 776.864 301.344Z" fill="#AED385"/>
<path d="M760.099 300.644C758.515 302.503 756.298 307.504 760.099 312.636C761.838 310.859 764.274 305.974 760.099 300.644Z" stroke="#AED385" stroke-width="3"/>
<path d="M772.627 297.637C768.893 294.672 765.047 296.402 763.59 297.637C767.901 302.325 765.797 313.434 764.001 315.344C768.108 318.343 771.737 316.594 773.038 315.344C768.863 310.587 770.887 299.519 772.627 297.637Z" stroke="#AED385" stroke-width="3"/>
<path d="M776.864 301.344C778.476 303.048 780.733 307.692 776.864 312.636C775.181 310.854 772.825 306.102 776.864 301.344Z" stroke="#AED385" stroke-width="3"/>
<path d="M169.384 530.756C158.656 494.79 169.384 439.206 175.16 435.119C175.918 434.584 176.7 433.441 177.488 431.85C169.835 436.482 153.705 440.514 150.404 419.588C148.003 404.368 156.719 395.965 165.6 384.532C166.869 382.898 169.477 380.029 170.721 378.606C175.732 372.868 180.243 369.036 182.236 368.048C188.838 364.779 211.944 351.7 242.476 368.048C248.362 371.2 249.401 373.394 253.241 377.26C255.409 379.441 257.11 381.936 258.868 384.047C266.994 393.804 271.999 398.857 269.233 410.597C263.457 435.119 249.428 431.032 239.526 427.763C249.594 433.265 254.114 449 254.5 471C258.491 475.096 257.326 478.88 254.394 481.483C253.793 499.202 251.271 518.948 249.428 530.756H230.036C233.2 537.023 242.002 549.883 251.904 551.191V561H210.644H169.384V551.191C175.986 549.883 182.587 537.023 185.063 530.756H169.384Z" fill="#E5DFCD"/>
<path d="M239.526 427.763C220.382 469.614 190.191 447.925 177.488 431.85M239.526 427.763C249.429 431.032 263.457 435.119 269.233 410.597C271.999 398.857 266.994 393.804 258.868 384.047M239.526 427.763C235.861 419.327 228.434 400.25 228.042 391.433M239.526 427.763C249.594 433.265 254.114 449 254.5 471M187.539 393.431C185.698 403.912 181.512 423.727 177.488 431.85M177.488 431.85C176.7 433.441 175.918 434.584 175.16 435.119C169.384 439.206 158.656 494.79 169.384 530.756H185.063M177.488 431.85C169.835 436.482 153.705 440.514 150.404 419.588C148.003 404.368 156.719 395.965 165.6 384.532M200.741 424.493C202.736 416.977 216.627 417.996 216.627 424.493M202.736 438.134C206.337 441.448 210.71 441.448 213.283 438.134M185.063 530.756C182.587 537.023 175.986 549.883 169.384 551.191V561H210.644M185.063 530.756H210.644M210.644 561H251.904V551.191C242.002 549.883 233.2 537.023 230.036 530.756M210.644 561V530.756M210.644 530.756H230.036M230.036 530.756H249.428C251.646 516.545 254.848 490.836 254.5 471M179.287 465.364L194.965 475.172C195.134 476.344 195.283 477.755 195.366 479.259M175.16 485.799C178.186 487.978 185.558 492.338 190.839 492.338C192.365 492.338 193.423 491.383 194.135 489.886M195.366 479.259C195.573 482.978 195.384 487.263 194.135 489.886M195.366 479.259C199.533 478.26 207.382 477.856 208.143 483.347C208.212 483.842 208.223 484.386 208.169 484.981C207.508 492.174 198.538 491.248 194.135 489.886M170.721 378.606C175.732 372.868 180.243 369.036 182.236 368.048C188.838 364.779 211.944 351.7 242.476 368.048C248.362 371.2 249.401 373.394 253.241 377.26M170.721 378.606C184.571 382.641 220.465 388.021 253.241 377.26M170.721 378.606C169.477 380.029 166.869 382.898 165.6 384.532M253.241 377.26C255.409 379.441 257.11 381.936 258.868 384.047M258.868 384.047C251.685 386.581 240.579 389.566 228.042 391.433M165.6 384.532C182.865 394.547 207.393 394.507 228.042 391.433M223 478L238 472C239.555 471.983 244.532 470.325 244 473.5M244.5 485C238.919 493.561 228.5 491.5 219.5 491.5M244.5 485C244.101 485.751 245.077 484.115 244.5 485ZM244.5 485C250.87 485.545 262.144 478.847 254.5 471M244.5 485C245.38 483.342 243.818 474.584 244 473.5M254.5 471C252.492 468.007 245.837 470.891 244 473.5M194.965 408.145V410.597H197.44V408.145H194.965ZM221.371 408.145V410.597H223.847V408.145H221.371Z" stroke="black" stroke-width="3"/>
<path d="M255.489 467.421L260.019 461.777L264.664 454.926L267.84 450.13L274.964 439.371L280.135 431.563L283.907 428.592C286.716 422.571 285.877 416.372 284.874 413.226C284.729 412.87 284.607 412.533 284.507 412.222C284.064 411.278 283.678 410.302 283.347 409.298C282.742 407.463 282.322 405.537 282.08 403.559C281.948 402.476 281.869 401.377 281.843 400.269C281.816 399.152 281.843 398.025 281.921 396.896C282.071 394.739 282.41 392.572 282.93 390.438C283.472 388.213 284.211 386.024 285.138 383.924C285.743 382.941 286.796 381.278 288.031 379.419C289.367 377.409 290.914 375.168 292.338 373.306C293.85 371.81 295.513 370.478 297.32 369.354C299.341 368.096 301.542 367.097 303.911 366.417C305.244 366.035 306.63 365.754 308.068 365.585C309.769 365.384 311.381 365.286 312.906 365.279C315.761 365.265 318.314 365.569 320.588 366.109C322.747 366.622 324.654 367.35 326.328 368.222C328.642 369.429 330.51 370.913 331.981 372.494C333.924 374.582 335.177 376.838 335.854 378.847C336.146 380.154 336.383 381.425 336.566 382.66C336.911 384.977 337.07 387.17 337.065 389.244C337.059 391.589 336.844 393.783 336.45 395.835C336.11 397.61 335.636 399.278 335.048 400.846C334.199 403.109 333.114 405.164 331.852 407.025C330.521 408.989 328.993 410.739 327.339 412.295C325.465 414.059 323.429 415.573 321.333 416.868C319.652 417.908 317.932 418.805 316.228 419.577C315.724 419.805 315.221 420.022 314.721 420.229C313.128 420.887 311.562 421.436 310.068 421.891C308.372 422.406 306.769 422.799 305.324 423.087C303.661 423.419 302.208 423.612 301.063 423.695C300.115 423.764 299.38 423.758 298.912 423.692C298.561 423.691 298.217 423.678 297.879 423.652C293.803 423.874 289.057 428.335 287.058 430.723L285.119 434.539L284.482 435.586L278.266 445.803L267.696 461.803L264.953 466.069L260.87 472.415C261.218 476.427 258.661 476.83 257.339 476.53C249.219 473.097 252.194 469.686 254.696 468.409L255.489 467.421Z" fill="#E5DFCD"/>
<path d="M260.019 461.777L254.696 468.409M260.019 461.777C262.737 462.208 265.586 462.36 267.696 461.803M260.019 461.777L264.664 454.926M264.664 454.926C267.594 455.74 267.101 460.381 267.696 461.803M264.664 454.926L267.84 450.13M254.696 468.409L260.87 472.415M254.696 468.409C252.194 469.686 249.219 473.097 257.339 476.53C258.661 476.83 261.218 476.427 260.87 472.415M260.87 472.415L264.953 466.069M267.696 461.803L278.266 445.803M267.696 461.803L264.953 466.069M280.135 431.563L285.119 434.539M280.135 431.563L283.907 428.592M280.135 431.563L274.964 439.371M285.119 434.539L287.058 430.723M285.119 434.539L284.482 435.586M283.907 428.592L287.058 430.723M283.907 428.592C287.057 421.84 285.62 414.865 284.507 412.222M287.058 430.723C289.229 428.13 294.638 423.093 298.912 423.692M298.912 423.692C298.036 423.69 297.201 423.608 296.408 423.46M298.912 423.692C299.38 423.758 300.115 423.764 301.063 423.695M335.854 378.847C335.177 376.838 333.924 374.582 331.981 372.494M335.854 378.847L305.324 423.087M335.854 378.847C336.146 380.154 336.383 381.425 336.566 382.66M284.507 412.222C284.908 413.475 285.672 415.142 286.824 416.815M284.507 412.222C283.254 409.555 282.454 406.62 282.08 403.559M284.507 412.222L301.063 423.695M303.911 366.417C305.244 366.035 306.63 365.754 308.068 365.585C309.769 365.384 311.381 365.286 312.906 365.279M303.911 366.417L281.843 400.269M303.911 366.417C301.542 367.097 299.341 368.096 297.32 369.354M303.911 366.417L337.065 389.244M281.843 400.269C281.869 401.377 281.948 402.476 282.08 403.559M281.843 400.269C281.816 399.152 281.843 398.025 281.921 396.896M283.347 409.298L312.906 365.279M312.906 365.279C315.761 365.265 318.314 365.569 320.588 366.109M312.906 365.279L336.566 382.66M320.588 366.109L286.824 416.815M320.588 366.109C322.747 366.622 324.654 367.35 326.328 368.222M286.824 416.815C287.819 418.26 289.103 419.711 290.69 420.905M290.69 420.905L326.328 368.222M290.69 420.905C292.285 422.104 294.186 423.044 296.408 423.46M326.328 368.222C328.642 369.429 330.51 370.913 331.981 372.494M331.981 372.494L296.408 423.46M305.324 423.087C306.769 422.799 308.372 422.406 310.068 421.891M305.324 423.087C303.661 423.419 302.208 423.612 301.063 423.695M337.065 389.244L314.721 420.229M337.065 389.244C337.059 391.589 336.844 393.783 336.45 395.835M337.065 389.244C337.07 387.17 336.911 384.977 336.566 382.66M314.721 420.229C313.128 420.887 311.562 421.436 310.068 421.891M314.721 420.229C315.221 420.022 315.724 419.805 316.228 419.577M282.08 403.559L310.068 421.891M281.921 396.896L316.228 419.577M281.921 396.896C282.071 394.739 282.41 392.572 282.93 390.438M316.228 419.577C317.932 418.805 319.652 417.908 321.333 416.868M282.93 390.438L321.333 416.868M282.93 390.438C283.472 388.213 284.211 386.024 285.138 383.924M321.333 416.868C323.429 415.573 325.465 414.059 327.339 412.295M285.138 383.924L327.339 412.295M285.138 383.924C285.743 382.941 286.796 381.278 288.031 379.419M327.339 412.295C328.993 410.739 330.521 408.989 331.852 407.025M331.852 407.025C333.114 405.164 334.199 403.109 335.048 400.846M331.852 407.025L288.031 379.419M292.338 373.306L335.048 400.846M292.338 373.306C293.85 371.81 295.513 370.478 297.32 369.354M292.338 373.306C290.914 375.168 289.367 377.409 288.031 379.419M335.048 400.846C335.636 399.278 336.11 397.61 336.45 395.835M297.32 369.354L336.45 395.835M284.482 435.586C281.979 437.713 276.573 441.447 274.964 439.371M284.482 435.586L278.266 445.803M274.964 439.371L267.84 450.13M278.266 445.803C275.558 448.001 269.683 451.945 267.84 450.13M264.953 466.069C262.263 466.813 256.524 468.094 255.083 467.266" stroke="black" stroke-width="2"/>
</svg>
