<svg width="1101" height="847" viewBox="0 0 1101 847" fill="none" xmlns="http://www.w3.org/2000/svg">
<rect width="1101" height="974" rx="79" fill="#86A9AB"/>
<path d="M547.834 604.423H65V545.321V209.178V140.577L550.472 142.16V118.942L565.248 101V140.577H1037V209.178V545.321V604.423H565.248V625.003L547.834 644V604.423Z" fill="#C87C62"/>
<path d="M547.834 604.423H65V545.321M547.834 604.423V644L565.248 625.003V604.423M547.834 604.423L550.472 142.16M565.248 604.423H1037V545.321M565.248 604.423V140.577M565.248 140.577H1037V209.178M565.248 140.577V101L550.472 118.942V142.16M550.472 142.16L65 140.577V209.178M550.472 142.16L550.09 209.178H294.544M65 209.178V545.321M65 209.178H294.544M65 545.321H294.544M550.472 545.321H294.544M565.248 545.321H810.094M1037 545.321H810.094M1037 545.321V209.178M810.094 545.321V377.249M1037 209.178H565.248H810.094V377.249M810.094 377.249H565.248M550.472 377.249H294.544M294.544 377.249V209.178M294.544 377.249V545.321" stroke="white" stroke-width="4"/>
<path d="M870.141 338.479C839.243 335.531 833.036 316.785 832.246 294.176C826.428 301.428 814.635 309.366 814.012 283.1C813.388 256.835 837.659 238.138 849.872 232.073C858.057 228.008 882.926 225.428 898.206 232.073C907.439 236.089 915.397 245.836 920.847 257.785C965.137 264.695 960.535 337.4 952.563 373.676C954.176 367.402 960.573 362.661 963.69 361.026C968.367 370.519 959.402 379.485 954.335 382.782L907.95 383.177H877.547C871.31 386.658 864.034 384.364 861.176 382.782C860.396 381.991 858.837 379.934 858.837 378.035C857.902 376.453 865.983 368.673 870.141 364.982V338.479Z" fill="#E5DFCD"/>
<path d="M908.341 254.224C909.408 266.991 909.232 285.114 905.741 301.296M870.141 338.479C839.243 335.531 833.036 316.785 832.246 294.176M870.141 338.479C890.855 340.455 901.157 322.55 905.741 301.296M870.141 338.479V364.982C865.983 368.673 857.902 376.453 858.837 378.035C858.837 379.934 860.396 381.991 861.176 382.782C864.034 384.364 871.31 386.658 877.547 383.177M832.722 260.553C832.722 271.779 831.871 283.415 832.246 294.176M832.246 294.176C826.428 301.428 814.635 309.366 814.012 283.1C813.388 256.835 837.659 238.138 849.872 232.073C858.057 228.008 882.926 225.428 898.206 232.073C907.439 236.089 915.397 245.836 920.847 257.785M905.741 301.296C917.383 317.119 925.577 306.57 928.219 299.318C929.629 285.832 926.67 270.552 920.847 257.785M872.09 247.5L858.057 305.252H886.902M860.786 316.328C863.514 319.228 871.154 323.289 879.886 316.328M877.547 383.177C877.027 381.2 876.299 377.086 877.547 376.453C879.106 375.662 890.8 369.728 888.851 358.257M877.547 383.177H907.95M907.95 383.177C904.529 377.376 899.297 364.27 905.741 358.257C907.647 358.389 912.394 359.918 916.136 364.982C917.045 366.3 920.345 367.355 926.27 361.026C932.195 354.697 936.275 361.026 937.574 364.982M907.95 383.177L954.335 382.782C959.402 379.485 968.367 370.519 963.69 361.026C960.442 362.73 953.633 367.806 952.386 374.475C960.464 338.479 965.465 264.746 920.847 257.785M853.38 238.402C852.211 238.798 849.767 242.952 852.262 242.319C853.821 240.42 854.419 238.27 853.38 238.402ZM888.461 238.798C889.37 238.402 890.41 238.402 890.02 239.984C886.226 247.096 887.681 238.798 888.461 238.798Z" stroke="black" stroke-width="3"/>
<path d="M856.816 378.524L850.561 372.758L842.898 366.759L837.529 362.648L825.483 353.428L816.74 346.736L813.559 342.073C806.723 338.294 799.385 338.78 795.615 339.704C795.185 339.845 794.781 339.961 794.407 340.053C793.265 340.497 792.089 340.872 790.884 341.179C788.684 341.741 786.392 342.079 784.053 342.203C782.771 342.271 781.476 342.275 780.174 342.217C778.862 342.158 777.543 342.037 776.224 341.854C773.707 341.505 771.192 340.934 768.731 340.152C766.165 339.337 763.657 338.294 761.268 337.038C760.164 336.25 758.299 334.881 756.217 333.283C753.967 331.555 751.464 329.559 749.394 327.74C747.761 325.847 746.333 323.789 745.159 321.579C743.846 319.108 742.852 316.446 742.245 313.613C741.904 312.019 741.686 310.37 741.602 308.671C741.504 306.659 741.519 304.761 741.633 302.971C741.846 299.622 742.407 296.652 743.224 294.029C743.999 291.537 745.006 289.359 746.164 287.466C747.765 284.849 749.656 282.778 751.629 281.179C754.233 279.068 756.98 277.78 759.391 277.148C760.947 276.91 762.457 276.735 763.921 276.618C766.666 276.401 769.25 276.39 771.683 276.563C774.433 276.758 776.989 277.187 779.364 277.814C781.418 278.356 783.336 279.046 785.128 279.861C787.715 281.038 790.037 282.476 792.119 284.106C794.315 285.826 796.244 287.758 797.936 289.823C799.854 292.163 801.467 294.673 802.817 297.234C803.901 299.29 804.816 301.379 805.584 303.44C805.811 304.05 806.025 304.657 806.227 305.26C806.871 307.182 807.39 309.062 807.802 310.851C808.271 312.881 808.603 314.793 808.825 316.511C809.08 318.488 809.19 320.209 809.195 321.558C809.2 322.674 809.133 323.537 809.019 324.081C808.989 324.492 808.946 324.895 808.889 325.288C808.822 330.087 813.672 336.012 816.312 338.548L820.631 341.129L821.809 341.961L833.292 350.073L851.209 363.755L855.991 367.316L863.106 372.615C867.839 372.529 868.106 375.56 867.648 377.087C862.969 386.334 859.207 382.572 857.911 379.534L856.816 378.524Z" fill="#E5DFCD"/>
<path d="M850.561 372.758L857.911 379.534M850.561 372.758C851.285 369.604 851.692 366.276 851.209 363.755M850.561 372.758L842.898 366.759M842.898 366.759C844.088 363.388 849.492 364.339 851.209 363.755M842.898 366.759L837.529 362.648M857.911 379.534L863.106 372.615M857.911 379.534C859.207 382.572 862.969 386.334 867.648 377.087C868.106 375.56 867.839 372.529 863.106 372.615M863.106 372.615L855.991 367.316M851.209 363.755L833.292 350.073M851.209 363.755L855.991 367.316M816.74 346.736L820.631 341.129M816.74 346.736L813.559 342.073M816.74 346.736L825.483 353.428M820.631 341.129L816.312 338.548M820.631 341.129L821.809 341.961M813.559 342.073L816.312 338.548M813.559 342.073C805.894 337.836 797.597 338.961 794.407 340.053M816.312 338.548C813.445 335.794 807.973 329.045 809.019 324.081M809.019 324.081C808.945 325.108 808.783 326.08 808.545 326.998M809.019 324.081C809.133 323.537 809.2 322.674 809.195 321.558M759.391 277.148C756.98 277.78 754.233 279.068 751.629 281.179M759.391 277.148L808.825 316.511M759.391 277.148C760.947 276.91 762.457 276.735 763.921 276.618M794.407 340.053C795.91 339.684 797.926 338.921 799.981 337.705M794.407 340.053C791.179 341.308 787.672 342.011 784.053 342.203M794.407 340.053L809.195 321.558M742.245 313.613C741.904 312.019 741.686 310.37 741.602 308.671C741.504 306.659 741.519 304.761 741.633 302.971M742.245 313.613L780.174 342.217M742.245 313.613C742.852 316.446 743.846 319.108 745.159 321.579M742.245 313.613L771.683 276.563M780.174 342.217C781.476 342.275 782.771 342.271 784.053 342.203M780.174 342.217C778.862 342.158 777.543 342.037 776.224 341.854M790.884 341.179L741.633 302.971M741.633 302.971C741.846 299.622 742.407 296.652 743.224 294.029M741.633 302.971L763.921 276.618M743.224 294.029L799.981 337.705M743.224 294.029C743.999 291.537 745.006 289.359 746.164 287.466M799.981 337.705C801.756 336.654 803.561 335.265 805.089 333.499M805.089 333.499L746.164 287.466M805.089 333.499C806.623 331.725 807.879 329.571 808.545 326.998M746.164 287.466C747.765 284.849 749.656 282.778 751.629 281.179M751.629 281.179L808.545 326.998M808.825 316.511C808.603 314.793 808.271 312.881 807.802 310.851M808.825 316.511C809.08 318.488 809.19 320.209 809.195 321.558M771.683 276.563L806.227 305.26M771.683 276.563C774.433 276.758 776.989 277.187 779.364 277.814M771.683 276.563C769.25 276.39 766.666 276.401 763.921 276.618M806.227 305.26C806.871 307.182 807.39 309.062 807.802 310.851M806.227 305.26C806.025 304.657 805.811 304.05 805.584 303.44M784.053 342.203L807.802 310.851M776.224 341.854L805.584 303.44M776.224 341.854C773.707 341.505 771.192 340.934 768.731 340.152M805.584 303.44C804.816 301.379 803.901 299.29 802.817 297.234M768.731 340.152L802.817 297.234M768.731 340.152C766.165 339.337 763.657 338.294 761.268 337.038M802.817 297.234C801.467 294.673 799.854 292.163 797.936 289.823M761.268 337.038L797.936 289.823M761.268 337.038C760.164 336.25 758.299 334.881 756.217 333.283M797.936 289.823C796.244 287.758 794.315 285.826 792.119 284.106M792.119 284.106C790.037 282.476 787.715 281.038 785.128 279.861M792.119 284.106L756.217 333.283M749.394 327.74L785.128 279.861M749.394 327.74C747.761 325.847 746.333 323.789 745.159 321.579M749.394 327.74C751.464 329.559 753.967 331.555 756.217 333.283M785.128 279.861C783.336 279.046 781.418 278.356 779.364 277.814M745.159 321.579L779.364 277.814M821.809 341.961C824.102 345.067 828.046 351.708 825.483 353.428M821.809 341.961L833.292 350.073M825.483 353.428L837.529 362.648M833.292 350.073C835.653 353.425 839.805 360.633 837.529 362.648M855.991 367.316C856.647 370.53 857.689 377.364 856.601 378.988" stroke="black" stroke-width="2"/>
<path d="M760.099 300.644C758.515 302.503 756.298 307.504 760.099 312.636C761.838 310.859 764.274 305.974 760.099 300.644Z" fill="#AED385"/>
<path d="M772.627 297.637C768.893 294.672 765.047 296.402 763.59 297.637C767.901 302.325 765.797 313.434 764.001 315.344C768.108 318.343 771.737 316.594 773.038 315.344C768.863 310.587 770.887 299.519 772.627 297.637Z" fill="#AED385"/>
<path d="M776.864 301.344C778.476 303.048 780.733 307.692 776.864 312.636C775.181 310.854 772.825 306.102 776.864 301.344Z" fill="#AED385"/>
<path d="M760.099 300.644C758.515 302.503 756.298 307.504 760.099 312.636C761.838 310.859 764.274 305.974 760.099 300.644Z" stroke="#AED385" stroke-width="3"/>
<path d="M772.627 297.637C768.893 294.672 765.047 296.402 763.59 297.637C767.901 302.325 765.797 313.434 764.001 315.344C768.108 318.343 771.737 316.594 773.038 315.344C768.863 310.587 770.887 299.519 772.627 297.637Z" stroke="#AED385" stroke-width="3"/>
<path d="M776.864 301.344C778.476 303.048 780.733 307.692 776.864 312.636C775.181 310.854 772.825 306.102 776.864 301.344Z" stroke="#AED385" stroke-width="3"/>
</svg>
