<svg width="1101" height="847" viewBox="0 0 1101 847" fill="none" xmlns="http://www.w3.org/2000/svg">
<rect width="1101" height="974" rx="79" fill="#86A9AB"/>
<path d="M547.834 604.423H65V545.321V209.178V140.577L550.472 142.16V118.942L565.248 101V140.577H1037V209.178V545.321V604.423H565.248V625.003L547.834 644V604.423Z" fill="#C87C62"/>
<path d="M547.834 604.423H65V545.321M547.834 604.423V644L565.248 625.003V604.423M547.834 604.423L550.472 142.16M565.248 604.423H1037V545.321M565.248 604.423V140.577M565.248 140.577H1037V209.178M565.248 140.577V101L550.472 118.942V142.16M550.472 142.16L65 140.577V209.178M550.472 142.16L550.09 209.178H294.544M65 209.178V545.321M65 209.178H294.544M65 545.321H294.544M550.472 545.321H294.544M565.248 545.321H810.094M1037 545.321H810.094M1037 545.321V209.178M810.094 545.321V377.249M1037 209.178H565.248H810.094V377.249M810.094 377.249H565.248M550.472 377.249H294.544M294.544 377.249V209.178M294.544 377.249V545.321" stroke="white" stroke-width="4"/>
</svg>
