<svg width="1108" height="853" viewBox="0 0 1108 853" fill="none" xmlns="http://www.w3.org/2000/svg">
<rect x="4" width="1101" height="974" rx="79" fill="#C87C62"/>
<path d="M4 270.5V199.5C91.1619 143.646 247.294 157.929 315.632 177.57C355.53 191.986 571.593 282.526 684.536 221.762C832.831 141.977 1016.41 161.611 1105 181.252V282.526C947.372 234.897 842.082 252.451 809.14 267.182C734.255 300.326 543.481 349.797 379.469 282.526C215.457 215.256 55.1514 247.585 4 270.5Z" fill="#E5DFCD" stroke="white" stroke-width="4"/>
<path d="M45.5 221L44.5 215C63.3 204.2 93 201.5 105.5 201.5L101.5 212.5C81.5 212.5 62.3333 215.167 45.5 221Z" fill="white" stroke="white" stroke-width="4"/>
<path d="M137.995 208.501L137.607 202.43C157.402 193.586 185.564 197.236 198 198.5L194.567 205.705C174.67 203.683 155.332 204.399 137.995 208.501Z" fill="white" stroke="white" stroke-width="4"/>
<path d="M239.947 210.797L240.917 204.792C262.183 200.566 285.5 207.5 303.033 211.495L295.727 220.639C276.776 214.248 257.762 210.649 239.947 210.797Z" fill="white" stroke="white" stroke-width="4"/>
<path d="M336.904 234.049L338.57 228.199C360.5 231 378.5 237 399.473 242.129L391.147 250.355C373.075 241.788 354.613 235.988 336.904 234.049Z" fill="white" stroke="white" stroke-width="4"/>
<path d="M827 228L826 222C844.8 211.2 874.5 208.5 887 208.5L883 219.5C863 219.5 843.833 222.167 827 228Z" fill="white" stroke="white" stroke-width="4"/>
<path d="M919.495 215.501L919.107 209.43C938.902 200.586 967.064 204.236 979.5 205.5L976.067 212.705C956.17 210.683 936.832 211.399 919.495 215.501Z" fill="white" stroke="white" stroke-width="4"/>
<path d="M1021.45 217.797L1022.42 211.792C1043.68 207.566 1067 214.5 1084.53 218.495L1077.23 227.639C1058.28 221.248 1039.26 217.649 1021.45 217.797Z" fill="white" stroke="white" stroke-width="4"/>
<path d="M433 259.251L432 265.405C450.8 276.482 480.5 279.251 493 279.251L489 267.969C469 267.969 449.833 265.234 433 259.251Z" fill="white" stroke="white" stroke-width="4"/>
<path d="M525.113 271.871L524.727 277.897C544.377 286.676 572.332 283.053 584.677 281.799L581.269 274.647C561.518 276.653 542.322 275.943 525.113 271.871Z" fill="white" stroke="white" stroke-width="4"/>
<path d="M626.315 269.592L627.278 275.553C648.387 279.748 671.533 272.865 688.936 268.9L681.684 259.822C662.873 266.167 643.999 269.739 626.315 269.592Z" fill="white" stroke="white" stroke-width="4"/>
<path d="M722.558 246.512L724.212 252.319C745.981 249.538 763.848 243.582 784.667 238.491L776.402 230.325C758.463 238.829 740.137 244.587 722.558 246.512Z" fill="white" stroke="white" stroke-width="4"/>
<path d="M3 340.35V269.35C90.1619 213.495 246.294 227.778 314.632 247.419C354.53 261.835 570.593 352.376 683.536 291.611C831.831 211.827 1015.41 231.461 1104 251.102V352.376C946.372 304.746 841.082 332.425 808.14 347.155C733.255 380.3 542.481 429.771 378.469 362.5C214.457 295.229 54.1514 317.435 3 340.35Z" fill="#E5DFCD" stroke="white" stroke-width="4"/>
<path d="M44.5 290.85L43.5 284.849C62.3 274.049 92 271.35 104.5 271.35L100.5 282.35C80.5 282.35 61.3333 285.016 44.5 290.85Z" fill="white" stroke="white" stroke-width="4"/>
<path d="M136.995 278.35L136.607 272.28C156.402 263.435 184.564 267.086 197 268.349L193.567 275.554C173.67 273.533 154.332 274.248 136.995 278.35Z" fill="white" stroke="white" stroke-width="4"/>
<path d="M238.947 280.647L239.917 274.641C261.183 270.416 284.5 277.35 302.033 281.344L294.727 290.489C275.776 284.097 256.762 280.499 238.947 280.647Z" fill="white" stroke="white" stroke-width="4"/>
<path d="M335.904 303.899L337.57 298.048C359.5 300.85 377.5 306.85 398.473 311.978L390.147 320.205C372.075 311.638 353.613 305.838 335.904 303.899Z" fill="white" stroke="white" stroke-width="4"/>
<path d="M826 297.85L825 291.849C843.8 281.049 873.5 278.35 886 278.35L882 289.35C862 289.35 842.833 292.016 826 297.85Z" fill="white" stroke="white" stroke-width="4"/>
<path d="M918.495 285.35L918.107 279.28C937.902 270.435 966.064 274.086 978.5 275.349L975.067 282.554C955.17 280.533 935.832 281.248 918.495 285.35Z" fill="white" stroke="white" stroke-width="4"/>
<path d="M1020.45 287.647L1021.42 281.641C1042.68 277.416 1066 284.35 1083.53 288.344L1076.23 297.489C1057.28 291.097 1038.26 287.499 1020.45 287.647Z" fill="white" stroke="white" stroke-width="4"/>
<path d="M432 329.101L431 335.255C449.8 346.332 479.5 349.101 492 349.101L488 337.819C468 337.819 448.833 335.083 432 329.101Z" fill="white" stroke="white" stroke-width="4"/>
<path d="M524.113 341.721L523.727 347.747C543.377 356.526 571.332 352.903 583.677 351.648L580.269 344.496C560.518 346.503 541.322 345.793 524.113 341.721Z" fill="white" stroke="white" stroke-width="4"/>
<path d="M625.315 339.442L626.278 345.403C647.387 349.597 670.533 342.715 687.936 338.749L680.684 329.672C661.873 336.017 642.999 339.589 625.315 339.442Z" fill="white" stroke="white" stroke-width="4"/>
<path d="M721.558 316.361L723.212 322.168C744.981 319.388 762.848 313.432 783.667 308.341L775.402 300.175C757.463 308.679 739.137 314.436 721.558 316.361Z" fill="white" stroke="white" stroke-width="4"/>
<path d="M5 418.349V334.999C119.741 290.792 244.352 312.707 315.233 325.173L316.632 325.419C356.53 339.835 572.593 430.376 685.536 369.611C833.831 289.826 1017.41 309.461 1106 329.102V430.376C948.372 382.746 843.082 400.3 810.14 415.031C735.255 448.175 544.481 497.646 380.469 430.376C216.457 363.105 56.1514 395.435 5 418.349Z" fill="#E5DFCD" stroke="white" stroke-width="4"/>
<path d="M46.5 368.85L45.5 362.849C64.3 352.049 94 349.35 106.5 349.35L102.5 360.35C82.5 360.35 63.3333 363.016 46.5 368.85Z" fill="white" stroke="white" stroke-width="4"/>
<path d="M138.995 356.35L138.607 350.28C158.402 341.435 186.564 345.086 199 346.349L195.567 353.554C175.67 351.533 156.332 352.248 138.995 356.35Z" fill="white" stroke="white" stroke-width="4"/>
<path d="M240.947 358.647L241.917 352.641C263.183 348.416 286.5 355.35 304.033 359.344L296.727 368.489C277.776 362.097 258.762 358.499 240.947 358.647Z" fill="white" stroke="white" stroke-width="4"/>
<path d="M337.904 381.899L339.57 376.048C361.5 378.85 379.5 384.85 400.473 389.978L392.147 398.205C374.075 389.638 355.613 383.838 337.904 381.899Z" fill="white" stroke="white" stroke-width="4"/>
<path d="M828 375.85L827 369.849C845.8 359.049 875.5 356.35 888 356.35L884 367.35C864 367.35 844.833 370.016 828 375.85Z" fill="white" stroke="white" stroke-width="4"/>
<path d="M920.495 363.35L920.107 357.28C939.902 348.435 968.064 352.086 980.5 353.349L977.067 360.554C957.17 358.533 937.832 359.248 920.495 363.35Z" fill="white" stroke="white" stroke-width="4"/>
<path d="M1022.45 365.647L1023.42 359.641C1044.68 355.416 1068 362.35 1085.53 366.344L1078.23 375.489C1059.28 369.097 1040.26 365.499 1022.45 365.647Z" fill="white" stroke="white" stroke-width="4"/>
<path d="M434 407.101L433 413.255C451.8 424.332 481.5 427.101 494 427.101L490 415.819C470 415.819 450.833 413.083 434 407.101Z" fill="white" stroke="white" stroke-width="4"/>
<path d="M526.113 419.721L525.727 425.747C545.377 434.526 573.332 430.903 585.677 429.648L582.269 422.496C562.518 424.503 543.322 423.793 526.113 419.721Z" fill="white" stroke="white" stroke-width="4"/>
<path d="M627.315 417.442L628.278 423.403C649.387 427.597 672.533 420.715 689.936 416.749L682.684 407.672C663.873 414.017 644.999 417.589 627.315 417.442Z" fill="white" stroke="white" stroke-width="4"/>
<path d="M723.558 394.361L725.212 400.168C746.981 397.388 764.848 391.432 785.667 386.341L777.402 378.175C759.463 386.679 741.137 392.436 723.558 394.361Z" fill="white" stroke="white" stroke-width="4"/>
<path d="M4 488.199V417.199C91.1619 361.345 247.294 375.628 315.632 395.269C355.53 409.685 571.593 500.226 684.536 439.461C832.831 359.676 1016.41 379.31 1105 398.952V500.226C947.372 452.596 842.082 470.15 809.14 484.881C734.255 518.025 543.481 567.496 379.469 500.226C215.457 432.955 55.1514 465.285 4 488.199Z" fill="#E5DFCD" stroke="white" stroke-width="4"/>
<path d="M45.5 438.699L44.5 432.699C63.3 421.899 93 419.199 105.5 419.199L101.5 430.199C81.5 430.199 62.3333 432.866 45.5 438.699Z" fill="white" stroke="white" stroke-width="4"/>
<path d="M137.995 426.2L137.607 420.129C157.402 411.285 185.564 414.935 198 416.199L194.567 423.404C174.67 421.382 155.332 422.098 137.995 426.2Z" fill="white" stroke="white" stroke-width="4"/>
<path d="M239.947 428.496L240.917 422.491C262.183 418.266 285.5 425.199 303.033 429.194L295.727 438.339C276.776 431.947 257.762 428.348 239.947 428.496Z" fill="white" stroke="white" stroke-width="4"/>
<path d="M336.904 451.748L338.57 445.898C360.5 448.699 378.5 454.699 399.473 459.828L391.147 468.054C373.075 459.488 354.613 453.687 336.904 451.748Z" fill="white" stroke="white" stroke-width="4"/>
<path d="M827 445.699L826 439.699C844.8 428.899 874.5 426.199 887 426.199L883 437.199C863 437.199 843.833 439.866 827 445.699Z" fill="white" stroke="white" stroke-width="4"/>
<path d="M919.495 433.2L919.107 427.129C938.902 418.285 967.064 421.935 979.5 423.199L976.067 430.404C956.17 428.382 936.832 429.098 919.495 433.2Z" fill="white" stroke="white" stroke-width="4"/>
<path d="M1021.45 435.496L1022.42 429.491C1043.68 425.266 1067 432.199 1084.53 436.194L1077.23 445.339C1058.28 438.947 1039.26 435.348 1021.45 435.496Z" fill="white" stroke="white" stroke-width="4"/>
<path d="M433 476.95L432 483.104C450.8 494.181 480.5 496.95 493 496.95L489 485.668C469 485.668 449.833 482.933 433 476.95Z" fill="white" stroke="white" stroke-width="4"/>
<path d="M525.113 489.57L524.727 495.596C544.377 504.376 572.332 500.752 584.677 499.498L581.269 492.346C561.518 494.353 542.322 493.642 525.113 489.57Z" fill="white" stroke="white" stroke-width="4"/>
<path d="M626.315 487.292L627.278 493.252C648.387 497.447 671.533 490.564 688.936 486.599L681.684 477.522C662.873 483.866 643.999 487.438 626.315 487.292Z" fill="white" stroke="white" stroke-width="4"/>
<path d="M722.558 464.211L724.212 470.018C745.981 467.237 763.848 461.281 784.667 456.191L776.402 448.025C758.463 456.528 740.137 462.286 722.558 464.211Z" fill="white" stroke="white" stroke-width="4"/>
<path d="M3 558.35V487.35C90.1619 431.495 246.294 445.778 314.632 465.42C354.53 479.835 570.593 570.376 683.536 509.612C831.831 429.827 1015.41 449.461 1104 469.102V570.376C946.372 522.746 841.082 540.301 808.14 555.031C733.255 588.176 542.481 637.646 378.469 570.376C214.457 503.105 54.1514 535.435 3 558.35Z" fill="#E5DFCD" stroke="white" stroke-width="4"/>
<path d="M44.5 508.85L43.5 502.849C62.3 492.049 92 489.35 104.5 489.35L100.5 500.35C80.5 500.35 61.3333 503.016 44.5 508.85Z" fill="white" stroke="white" stroke-width="4"/>
<path d="M136.995 496.35L136.607 490.28C156.402 481.435 184.564 485.086 197 486.349L193.567 493.554C173.67 491.533 154.332 492.248 136.995 496.35Z" fill="white" stroke="white" stroke-width="4"/>
<path d="M238.947 498.647L239.917 492.641C261.183 488.416 284.5 495.35 302.033 499.344L294.727 508.489C275.776 502.097 256.762 498.499 238.947 498.647Z" fill="white" stroke="white" stroke-width="4"/>
<path d="M335.904 521.899L337.57 516.048C359.5 518.85 377.5 524.85 398.473 529.978L390.147 538.205C372.075 529.638 353.613 523.838 335.904 521.899Z" fill="white" stroke="white" stroke-width="4"/>
<path d="M826 515.85L825 509.849C843.8 499.049 873.5 496.35 886 496.35L882 507.35C862 507.35 842.833 510.016 826 515.85Z" fill="white" stroke="white" stroke-width="4"/>
<path d="M918.495 503.35L918.107 497.28C937.902 488.435 966.064 492.086 978.5 493.349L975.067 500.554C955.17 498.533 935.832 499.248 918.495 503.35Z" fill="white" stroke="white" stroke-width="4"/>
<path d="M1020.45 505.647L1021.42 499.641C1042.68 495.416 1066 502.35 1083.53 506.344L1076.23 515.489C1057.28 509.097 1038.26 505.499 1020.45 505.647Z" fill="white" stroke="white" stroke-width="4"/>
<path d="M432 547.101L431 553.255C449.8 564.332 479.5 567.101 492 567.101L488 555.819C468 555.819 448.833 553.083 432 547.101Z" fill="white" stroke="white" stroke-width="4"/>
<path d="M524.113 559.721L523.727 565.747C543.377 574.526 571.332 570.903 583.677 569.648L580.269 562.496C560.518 564.503 541.322 563.793 524.113 559.721Z" fill="white" stroke="white" stroke-width="4"/>
<path d="M625.315 557.442L626.278 563.403C647.387 567.597 670.533 560.715 687.936 556.749L680.684 547.672C661.873 554.017 642.999 557.589 625.315 557.442Z" fill="white" stroke="white" stroke-width="4"/>
<path d="M721.558 534.361L723.212 540.168C744.981 537.388 762.848 531.432 783.667 526.341L775.402 518.175C757.463 526.679 739.137 532.436 721.558 534.361Z" fill="white" stroke="white" stroke-width="4"/>
<path d="M2 628.199V557.199C89.1619 501.345 245.294 515.628 313.632 535.269C353.53 549.685 569.593 640.226 682.536 579.461C830.831 499.676 1014.41 519.31 1103 538.952V640.226C945.372 592.596 840.082 610.15 807.14 624.881C732.255 658.025 541.481 707.496 377.469 640.226C213.457 572.955 53.1514 605.285 2 628.199Z" fill="#E5DFCD" stroke="white" stroke-width="4"/>
<path d="M43.5 578.699L42.5 572.699C61.3 561.899 91 559.199 103.5 559.199L99.5 570.199C79.5 570.199 60.3333 572.866 43.5 578.699Z" fill="white" stroke="white" stroke-width="4"/>
<path d="M135.995 566.2L135.607 560.129C155.402 551.285 183.564 554.935 196 556.199L192.567 563.404C172.67 561.382 153.332 562.098 135.995 566.2Z" fill="white" stroke="white" stroke-width="4"/>
<path d="M237.947 568.496L238.917 562.491C260.183 558.266 283.5 565.199 301.033 569.194L293.727 578.339C274.776 571.947 255.762 568.348 237.947 568.496Z" fill="white" stroke="white" stroke-width="4"/>
<path d="M334.904 591.748L336.57 585.898C358.5 588.699 376.5 594.699 397.473 599.828L389.147 608.054C371.075 599.488 352.613 593.687 334.904 591.748Z" fill="white" stroke="white" stroke-width="4"/>
<path d="M825 585.699L824 579.699C842.8 568.899 872.5 566.199 885 566.199L881 577.199C861 577.199 841.833 579.866 825 585.699Z" fill="white" stroke="white" stroke-width="4"/>
<path d="M917.495 573.2L917.107 567.129C936.902 558.285 965.064 561.935 977.5 563.199L974.067 570.404C954.17 568.382 934.832 569.098 917.495 573.2Z" fill="white" stroke="white" stroke-width="4"/>
<path d="M1019.45 575.496L1020.42 569.491C1041.68 565.266 1065 572.199 1082.53 576.194L1075.23 585.339C1056.28 578.947 1037.26 575.348 1019.45 575.496Z" fill="white" stroke="white" stroke-width="4"/>
<path d="M431 616.95L430 623.104C448.8 634.181 478.5 636.95 491 636.95L487 625.668C467 625.668 447.833 622.933 431 616.95Z" fill="white" stroke="white" stroke-width="4"/>
<path d="M523.113 629.57L522.727 635.596C542.377 644.376 570.332 640.752 582.677 639.498L579.269 632.346C559.518 634.353 540.322 633.642 523.113 629.57Z" fill="white" stroke="white" stroke-width="4"/>
<path d="M624.315 627.292L625.278 633.252C646.387 637.447 669.533 630.564 686.936 626.599L679.684 617.522C660.873 623.866 641.999 627.438 624.315 627.292Z" fill="white" stroke="white" stroke-width="4"/>
<path d="M720.558 604.211L722.212 610.018C743.981 607.237 761.848 601.281 782.667 596.191L774.402 588.025C756.463 596.528 738.137 602.286 720.558 604.211Z" fill="white" stroke="white" stroke-width="4"/>
<path d="M2 199.199V128.199C89.1619 72.345 245.294 86.6279 313.632 106.269C353.53 120.685 569.593 211.226 682.536 150.461C830.831 70.6762 1014.41 90.3105 1103 109.952V211.226C945.372 163.596 840.082 181.15 807.14 195.881C732.255 229.025 541.481 278.496 377.469 211.226C213.457 143.955 53.1514 176.285 2 199.199Z" fill="#E5DFCD" stroke="white" stroke-width="4"/>
<path d="M43.5 149.699L42.5 143.699C61.3 132.899 91 130.199 103.5 130.199L99.5 141.199C79.5 141.199 60.3333 143.866 43.5 149.699Z" fill="white" stroke="white" stroke-width="4"/>
<path d="M135.995 137.2L135.607 131.129C155.402 122.285 183.564 125.935 196 127.199L192.567 134.404C172.67 132.382 153.332 133.098 135.995 137.2Z" fill="white" stroke="white" stroke-width="4"/>
<path d="M237.947 139.496L238.917 133.491C260.183 129.266 283.5 136.199 301.033 140.194L293.727 149.339C274.776 142.947 255.762 139.348 237.947 139.496Z" fill="white" stroke="white" stroke-width="4"/>
<path d="M334.904 162.748L336.57 156.898C358.5 159.699 376.5 165.699 397.473 170.828L389.147 179.054C371.075 170.488 352.613 164.687 334.904 162.748Z" fill="white" stroke="white" stroke-width="4"/>
<path d="M825 156.699L824 150.699C842.8 139.899 872.5 137.199 885 137.199L881 148.199C861 148.199 841.833 150.866 825 156.699Z" fill="white" stroke="white" stroke-width="4"/>
<path d="M917.495 144.2L917.107 138.129C936.902 129.285 965.064 132.935 977.5 134.199L974.067 141.404C954.17 139.382 934.832 140.098 917.495 144.2Z" fill="white" stroke="white" stroke-width="4"/>
<path d="M1019.45 146.496L1020.42 140.491C1041.68 136.266 1065 143.199 1082.53 147.194L1075.23 156.339C1056.28 149.947 1037.26 146.348 1019.45 146.496Z" fill="white" stroke="white" stroke-width="4"/>
<path d="M431 187.95L430 194.104C448.8 205.181 478.5 207.95 491 207.95L487 196.668C467 196.668 447.833 193.933 431 187.95Z" fill="white" stroke="white" stroke-width="4"/>
<path d="M523.113 200.57L522.727 206.596C542.377 215.376 570.332 211.752 582.677 210.498L579.269 203.346C559.518 205.353 540.322 204.642 523.113 200.57Z" fill="white" stroke="white" stroke-width="4"/>
<path d="M624.315 198.292L625.278 204.252C646.387 208.447 669.533 201.564 686.936 197.599L679.684 188.522C660.873 194.866 641.999 198.438 624.315 198.292Z" fill="white" stroke="white" stroke-width="4"/>
<path d="M720.558 175.211L722.212 181.018C743.981 178.237 761.848 172.281 782.667 167.191L774.402 159.025C756.463 167.528 738.137 173.286 720.558 175.211Z" fill="white" stroke="white" stroke-width="4"/>
<path fill-rule="evenodd" clip-rule="evenodd" d="M171.805 149.33L45.6643 154.731C40.018 179.377 15.6917 164.627 17.839 153.29L8.76065 153.679C14.3626 114.584 36.1947 108.721 46.4106 110.676C49.202 93.8881 65.0885 60.5891 106.303 61.6954C147.517 62.8017 164.137 91.3591 167.296 105.5C178.848 102.517 189.399 105.59 193.23 107.499C199.434 109.13 203.91 112.818 207.092 117.433C211.126 117.26 217.934 119.839 212.903 131.539C214.216 137.518 214.412 143.366 214.091 147.519L199.996 148.122C194.995 171.066 172.47 164.853 171.805 149.33ZM51.9053 110.441C54.4657 97.5705 68.2954 70.6438 103.132 65.8983L104.942 108.17L51.9053 110.441ZM109.104 65.6426C122.475 66.7451 151.829 76.303 162.279 105.714L141.639 106.598C142.411 99.3185 141.706 93.1673 139.607 94.5493C137.928 95.6549 138.391 103.123 139.264 106.7L136.679 106.811L136.584 104.585L130.515 103.984L130.368 100.544L129.539 81.1973L129.373 77.3279C127.715 70.8519 123.799 74.8387 122.049 77.6415C117.603 70.5958 115.314 74.9149 114.724 77.9552L114.89 81.8246L115.718 101.172C114.896 102.119 113.541 104.761 114.705 107.752L110.914 107.914L109.792 81.705L109.104 65.6426Z" fill="#86A9AB"/>
<path d="M51.9053 110.441C54.4657 97.5705 68.2954 70.6438 103.132 65.8983L104.942 108.17L51.9053 110.441Z" fill="#86A9AB"/>
<path d="M45.6643 154.731L171.805 149.33M45.6643 154.731C40.018 179.377 15.6917 164.627 17.839 153.29M45.6643 154.731C37.1436 129.017 17.6242 148.275 17.839 153.29M171.805 149.33C172.47 164.853 194.995 171.066 199.996 148.122M171.805 149.33C175.468 139.842 189.891 130.132 199.996 148.122M199.996 148.122L214.091 147.519C214.412 143.366 214.216 137.518 212.903 131.539M17.839 153.29L8.76065 153.679C14.3626 114.584 36.1947 108.721 46.4106 110.676C49.202 93.8881 65.0885 60.5891 106.303 61.6954C147.517 62.8017 164.137 91.3591 167.296 105.5C178.848 102.517 189.399 105.59 193.23 107.499C199.434 109.13 203.91 112.818 207.092 117.433M207.092 117.433C209.999 121.648 211.826 126.638 212.903 131.539M207.092 117.433C211.126 117.26 217.934 119.839 212.903 131.539M115.718 101.172C122.877 107.067 128.467 103.21 130.368 100.544M115.718 101.172C114.896 102.119 113.541 104.761 114.705 107.752M115.718 101.172L114.89 81.8246M130.368 100.544L130.515 103.984L136.584 104.585L136.679 106.811M130.368 100.544L129.539 81.1973M114.705 107.752L110.914 107.914L109.792 81.705L109.104 65.6426C122.475 66.7451 151.829 76.303 162.279 105.714L141.639 106.598M114.705 107.752L136.679 106.811M136.679 106.811L139.264 106.7M122.417 86.2402C123.297 86.6333 127.304 89.4768 126.626 93.813L120.594 94.0713M114.89 81.8246L114.724 77.9552C115.314 74.9149 117.603 70.5958 122.049 77.6415C123.799 74.8387 127.715 70.8519 129.373 77.3279L129.539 81.1973M114.89 81.8246C115.816 79.9185 118.404 77.1946 121.353 81.5479M114.89 81.8246C117.509 86.5365 120.29 83.6034 121.353 81.5479M121.353 81.5479L123.507 81.4556M123.507 81.4556C124.295 79.699 126.605 77.188 129.539 81.1973M123.507 81.4556C126.456 85.8088 128.757 83.0973 129.539 81.1973M120.797 98.8006C121.833 99.4741 124.317 100.373 125.967 98.5792M117.906 81.6954L118.768 81.6585M126.523 81.3265L127.385 81.2896M139.264 106.7C138.391 103.123 137.928 95.6549 139.607 94.5493C141.706 93.1673 142.411 99.3185 141.639 106.598M139.264 106.7L141.639 106.598M51.9053 110.441C54.4657 97.5705 68.2954 70.6438 103.132 65.8983L104.942 108.17L51.9053 110.441Z" stroke="#0C0C0C" stroke-width="2"/>
<path d="M55.3502 201.711C50.7715 195.637 44.4573 182.345 55.8301 177.773C64.1227 174.439 69.7039 176.822 72.2243 180.358L95.2529 178.936C95.3345 164.597 98.2614 149.671 108.091 145.747C104.384 134.549 101.809 132.825 96.9212 132.791C93.0109 132.764 91.189 142.993 90.7669 148.11L88.2786 148.301C89.2318 120.472 107.513 127.553 110.397 145.06C111.587 144.816 112.863 144.715 114.231 144.77C115.564 144.575 117.161 144.696 118.897 145.28C116.241 130.74 127.1 111.403 136.999 139.944L134.59 140.921C133.481 137.062 130.259 129.013 126.249 127.689C121.237 126.033 120.458 145.518 121.293 146.349C128.794 150.533 137.718 163.514 139.693 195.25L127.042 196.219L114.39 197.188L105.189 197.893L96.7546 198.539L92.1542 198.892L78.3526 199.949L66.0845 200.889L55.3502 201.711Z" fill="#D5C74C"/>
<path d="M41.1791 213.593L156.823 204.734C161.246 201.156 170.954 195.877 174.398 203.388C177.843 210.898 164.61 213.856 157.563 214.396L140.993 215.492C142.311 215.986 142.63 220.143 139.319 220.396C136.007 220.65 134.776 217.955 136.404 215.796L56.8326 221.062C60.4148 223.884 58.3794 227.415 54.2416 226.914C50.1037 226.413 51.203 222.925 53.0438 221.312L34.9444 222.51C29.5568 221.303 20.2401 217.192 26.0742 210.403C33.3667 201.916 35.5754 214.023 41.1791 213.593Z" fill="#D5C74C"/>
<path d="M96.7546 198.539C95.8813 193.114 95.2121 186.098 95.2529 178.936M96.7546 198.539L92.1542 198.892M96.7546 198.539L105.189 197.893M67.2691 186.149C71.279 188.155 66.5355 176.572 63.2592 184.143C59.9828 191.713 69.3311 192.93 72.8126 188.037C74.2632 185.999 74.0246 182.884 72.2243 180.358M72.2243 180.358C69.7039 176.822 64.1227 174.439 55.8301 177.773C44.4573 182.345 50.7715 195.637 55.3502 201.711L66.0845 200.889M72.2243 180.358L95.2529 178.936M95.2529 178.936C95.3345 164.597 98.2614 149.671 108.091 145.747M112.57 173.426L110.031 180.56L116.932 180.031M112.328 190.407L117.695 189.996M110.397 145.06C111.587 144.816 112.863 144.715 114.231 144.77C115.564 144.575 117.161 144.696 118.897 145.28M110.397 145.06C107.513 127.553 89.2318 120.472 88.2786 148.301L90.7669 148.11C91.189 142.993 93.0109 132.764 96.9212 132.791C101.809 132.825 104.384 134.549 108.091 145.747M110.397 145.06C109.589 145.225 108.821 145.456 108.091 145.747M118.897 145.28C116.241 130.74 127.1 111.403 136.999 139.944L134.59 140.921C133.481 137.062 130.259 129.013 126.249 127.689C121.237 126.033 120.458 145.518 121.293 146.349M118.897 145.28C119.672 145.54 120.474 145.892 121.293 146.349M107.976 153.733L107.327 155.325L109.627 155.148L108.094 155.266M121.65 152.685L121.128 154.267L122.662 154.15M66.0845 200.889L66.8262 210.571M66.0845 200.889L78.3526 199.949M78.3526 199.949L79.0633 209.226M78.3526 199.949L92.1542 198.892M92.1542 198.892L92.8959 208.574M105.189 197.893L105.931 207.576M105.189 197.893L114.39 197.188M114.39 197.188L115.132 206.871M114.39 197.188L127.042 196.219M127.042 196.219L139.693 195.25C137.718 163.514 128.794 150.533 121.293 146.349M127.042 196.219L127.783 205.902M53.0438 221.312L34.9444 222.51C29.5568 221.303 20.2401 217.192 26.0742 210.403C33.3667 201.916 35.5754 214.023 41.1791 213.593L156.823 204.734C161.246 201.156 170.954 195.877 174.398 203.388C177.843 210.898 164.61 213.856 157.563 214.396L140.993 215.492M53.0438 221.312C51.203 222.925 50.1037 226.413 54.2416 226.914C58.3794 227.415 60.4148 223.884 56.8326 221.062M53.0438 221.312L56.8326 221.062M56.8326 221.062L136.404 215.796M136.404 215.796C134.776 217.955 136.007 220.65 139.319 220.396C142.63 220.143 142.311 215.986 140.993 215.492M136.404 215.796L140.993 215.492" stroke="black" stroke-width="2"/>
<path d="M104.372 235.884C97.8113 237.239 86.0795 235.7 91.6382 218.701C87.7668 213.466 82.8595 202.047 94.2015 198.249C92.6497 184.01 112.773 169.33 120.089 195.428C124.401 197.631 131.502 204.634 125.419 215.019C130.4 220.667 135.691 232.471 117.001 234.508L117.662 238.919C119.829 239.117 124.082 240.81 123.762 245.994L114.551 246.997L104.699 248.071L101.219 248.45C101.199 248.452 101.178 248.439 101.154 248.412C100.659 247.832 99.5081 240.897 104.855 240.314L104.372 235.884Z" fill="#C87C62"/>
<path d="M14.44 265.008L26.2183 297.898C28.8256 296.761 34.1778 295.737 41.3851 294.822C48.1185 293.966 56.4712 293.205 65.7177 292.534C83.4454 291.247 104.459 290.289 123.645 289.628C131.248 289.366 138.565 289.151 145.277 288.981C150.565 288.847 155.477 288.74 159.858 288.66L157.731 269.142L155.604 249.624C152.139 247.819 146.987 246.772 140.628 246.325C139.279 246.23 137.947 246.157 136.618 246.106C129.846 245.843 123.15 246.144 114.551 246.997L107.566 247.759C106.616 247.87 105.661 247.973 104.699 248.071L101.219 248.45C101.199 248.452 101.178 248.439 101.154 248.412C95.4312 248.938 89.5561 249.4 83.7103 250.358C82.3099 250.588 80.8559 250.837 79.362 251.101C70.25 252.714 59.6576 254.905 50.7482 256.778C48.6169 257.226 46.5819 257.656 44.6866 258.056C33.2548 260.465 22.8104 262.902 14.44 265.008Z" fill="#C87C62"/>
<path d="M65.7177 292.534C56.4712 293.205 48.1185 293.966 41.3851 294.822C40.7234 302.975 61.5439 311.135 65.7177 292.534Z" fill="#C87C62"/>
<path d="M145.277 288.981C138.565 289.151 131.248 289.366 123.645 289.628C125.112 303.098 145.733 301.295 145.277 288.981Z" fill="#C87C62"/>
<path d="M83.7103 250.358L84.4074 173.946L80.5228 174.37L79.362 251.101C80.8559 250.837 82.3099 250.588 83.7103 250.358Z" fill="#C87C62"/>
<path d="M61.6846 172.206L44.6866 258.056C46.5819 257.656 48.6169 257.226 50.7482 256.778L65.4215 176.015L80.5228 174.37L84.4074 173.946L84.4459 169.726L61.6846 172.206Z" fill="#C87C62"/>
<path d="M125.81 165.218L84.4459 169.726L84.4074 173.946L121.887 169.862L126.566 169.352L125.81 165.218Z" fill="#C87C62"/>
<path d="M140.628 246.325L126.566 169.352L121.887 169.862C126.914 191.182 136.898 236.279 136.618 246.106C137.947 246.157 139.279 246.23 140.628 246.325Z" fill="#C87C62"/>
<path d="M65.4215 176.015L50.7482 256.778C59.6576 254.905 70.25 252.714 79.362 251.101L80.5228 174.37L65.4215 176.015Z" fill="#C87C62"/>
<path d="M41.3851 294.822C34.1778 295.737 28.8256 296.761 26.2183 297.898L14.44 265.008C22.8104 262.902 33.2548 260.465 44.6866 258.056M41.3851 294.822C48.1185 293.966 56.4712 293.205 65.7177 292.534M41.3851 294.822C40.7234 302.975 61.5439 311.135 65.7177 292.534M65.7177 292.534C83.4454 291.247 104.459 290.289 123.645 289.628M123.645 289.628C131.248 289.366 138.565 289.151 145.277 288.981M123.645 289.628C125.112 303.098 145.733 301.295 145.277 288.981M145.277 288.981C150.565 288.847 155.477 288.74 159.858 288.66L157.731 269.142L155.604 249.624C152.139 247.819 146.987 246.772 140.628 246.325M44.6866 258.056L61.6846 172.206L84.4459 169.726M44.6866 258.056C46.5819 257.656 48.6169 257.226 50.7482 256.778M140.628 246.325L126.566 169.352M140.628 246.325C139.279 246.23 137.947 246.157 136.618 246.106M83.7103 250.358C89.5561 249.4 95.4312 248.938 101.154 248.412M83.7103 250.358C82.3099 250.588 80.8559 250.837 79.362 251.101M83.7103 250.358L84.4074 173.946M84.4459 169.726L125.81 165.218L126.566 169.352M84.4459 169.726L84.4074 173.946M107.566 247.759L114.551 246.997M107.566 247.759C106.616 247.87 105.661 247.973 104.699 248.071M107.566 247.759C110.04 247.469 112.358 247.215 114.551 246.997M104.855 240.314L117.662 238.919M104.855 240.314L104.372 235.884C97.8113 237.239 86.0795 235.7 91.6382 218.701C87.7668 213.466 82.8595 202.047 94.2015 198.249C92.6497 184.01 112.773 169.33 120.089 195.428C124.401 197.631 131.502 204.634 125.419 215.019C130.4 220.667 135.691 232.471 117.001 234.508L117.662 238.919M104.855 240.314C99.5081 240.897 100.659 247.832 101.154 248.412M117.662 238.919C119.829 239.117 124.082 240.81 123.762 245.994L114.551 246.997M101.182 197.809L101.492 200.657M113.494 196.467L113.804 199.315M102.958 222.91C105.598 224.661 112.388 226.774 118.428 221.225M114.551 246.997L104.699 248.071M114.551 246.997C123.15 246.144 129.846 245.843 136.618 246.106M104.699 248.071L101.219 248.45C101.199 248.452 101.178 248.439 101.154 248.412M104.699 248.071C103.525 248.191 102.343 248.303 101.154 248.412M50.7482 256.778L65.4215 176.015L80.5228 174.37M50.7482 256.778C59.6576 254.905 70.25 252.714 79.362 251.101M126.566 169.352L121.887 169.862M121.887 169.862C126.914 191.182 136.898 236.279 136.618 246.106M121.887 169.862L84.4074 173.946M80.5228 174.37L79.362 251.101M80.5228 174.37L84.4074 173.946M113.462 213.761C111.828 212.445 107.456 210.829 103.044 214.896C105.028 216.495 109.89 218.505 113.462 213.761Z" stroke="black" stroke-width="2"/>
<path d="M185.547 339.689C190.912 336.386 202.481 331.41 205.829 337.936C209.177 344.461 193.749 347.499 185.616 348.202L166.508 349.703C167.982 350.096 168.012 353.759 164.191 354.09C160.37 354.42 159.174 352.078 161.217 350.118L69.4586 357.324C73.3427 359.703 70.7215 362.888 66.0124 362.578C61.3034 362.268 62.8466 359.151 65.0896 357.667L44.2181 359.306C38.1315 358.413 27.7694 355.079 35.0138 348.893C44.0691 341.161 45.6273 351.787 52.094 351.227L118.82 345.458L165.672 341.408L162.727 288.166L153.243 287.367L152.265 286.151L151.608 279.64L179.266 285.183L178.864 291.362L167.469 288.565L170.613 340.98L185.547 339.689Z" fill="#998FAA"/>
<path d="M65.0896 357.667L44.2181 359.306C38.1315 358.413 27.7694 355.079 35.0138 348.893C44.0691 341.161 45.6273 351.787 52.094 351.227L118.82 345.458L165.672 341.408M65.0896 357.667C62.8466 359.151 61.3034 362.268 66.0124 362.578C70.7215 362.888 73.3427 359.703 69.4586 357.324M65.0896 357.667L69.4586 357.324M69.4586 357.324L161.217 350.118M161.217 350.118C159.174 352.078 160.37 354.42 164.191 354.09C168.012 353.759 167.982 350.096 166.508 349.703M161.217 350.118L166.508 349.703M166.508 349.703L185.616 348.202C193.749 347.499 209.177 344.461 205.829 337.936C202.481 331.41 190.912 336.386 185.547 339.689L170.613 340.98M165.672 341.408L162.727 288.166L153.243 287.367L152.265 286.151L151.608 279.64L179.266 285.183L178.864 291.362L167.469 288.565L170.613 340.98M165.672 341.408L170.613 340.98" stroke="black" stroke-width="2"/>
<path d="M150.625 276.303C151.757 293.324 148.634 307.845 126.259 312.334L128.262 332.218C131.582 334.681 138.082 339.922 137.517 341.178C137.66 342.602 136.676 344.261 136.165 344.912C134.194 346.309 129.046 348.567 124.222 346.415L101.985 348.656L68.0304 351.778C64.0751 349.678 56.8404 343.612 59.5436 336.145C61.9472 337.142 66.9837 340.227 68.6378 344.816C60.0652 318.187 51.2021 263.979 83.0731 255.53C86.1555 246.164 91.2389 238.265 97.6884 234.571C108.361 228.46 126.745 228.563 133.038 231.009C142.43 234.66 161.594 246.898 163.124 266.65C164.654 286.401 155.429 281.315 150.625 276.303Z" fill="#998FAA"/>
<path d="M91.9506 251.937C92.1353 261.595 93.6341 275.178 97.4103 287.062M126.259 312.334C148.634 307.845 151.757 293.324 150.625 276.303M126.259 312.334C111.259 315.343 102.37 302.669 97.4103 287.062M126.259 312.334L128.262 332.218C131.582 334.681 138.082 339.922 137.517 341.178C137.66 342.602 136.676 344.261 136.165 344.912C134.194 346.309 129.046 348.567 124.222 346.415M147.735 251.113C148.584 259.534 150.086 268.202 150.625 276.303M150.625 276.303C155.429 281.315 164.654 286.401 163.124 266.65C161.594 246.898 142.43 234.66 133.038 231.009C126.745 228.563 108.361 228.46 97.6884 234.571C91.2389 238.265 86.1555 246.164 83.0731 255.53M97.4103 287.062C90.0921 299.79 83.3015 292.48 80.821 287.234C78.7705 277.22 79.7795 265.538 83.0731 255.53M117.955 244.221L132.585 286.515L111.488 288.641M131.426 295.026C129.65 297.403 124.369 301.013 117.457 296.433M124.222 346.415C124.452 344.893 124.673 341.753 123.713 341.37C122.513 340.891 113.512 337.301 114.07 328.552M124.222 346.415L101.985 348.656M101.985 348.656C104.049 344.051 106.885 333.832 101.717 329.796C100.333 330.036 96.9769 331.533 94.6228 335.608C94.0573 336.664 91.7234 337.698 86.9116 333.387C82.0999 329.075 79.5945 334.124 78.9433 337.188M101.985 348.656L68.0304 351.778C64.0751 349.678 56.8404 343.612 59.5436 336.145C62.0482 337.184 67.4113 340.49 68.8278 345.402C60.1985 318.991 50.9665 264.042 83.0731 255.53M130.951 236.016C131.837 236.227 133.938 239.163 132.066 238.872C130.782 237.563 130.181 235.994 130.951 236.016ZM105.324 238.898C104.629 238.669 103.869 238.745 104.273 239.904C107.586 244.959 105.894 238.841 105.324 238.898Z" stroke="black" stroke-width="3"/>
<path fill-rule="evenodd" clip-rule="evenodd" d="M182.451 433.591L56.5548 443.123C51.7192 467.941 26.9226 453.996 28.6973 442.595L19.6365 443.281C23.9543 404.023 45.5826 397.448 55.8571 399.067C58.0969 382.197 72.8837 348.395 114.112 348.15C155.34 347.906 172.887 375.903 176.508 389.932C187.956 386.573 198.602 389.298 202.494 391.081C208.747 392.508 213.342 396.047 216.674 400.555C220.699 400.25 227.589 402.605 222.944 414.464C224.452 420.396 224.84 426.235 224.655 430.396L210.587 431.461C206.34 454.556 183.624 449.084 182.451 433.591ZM61.3412 398.652C63.4784 385.705 76.4184 358.34 111.081 352.455L114.275 394.644L61.3412 398.652ZM117.042 352.004C130.441 352.668 160.092 361.258 171.5 390.312L150.9 391.871C151.434 384.57 150.528 378.445 148.475 379.895C146.833 381.055 147.541 388.504 148.53 392.051L145.95 392.246L145.782 390.025L139.697 389.623L139.437 386.19L137.975 366.88L137.683 363.019C135.813 356.6 132.03 360.713 130.372 363.572C125.698 356.676 123.551 361.068 123.062 364.126L123.354 367.987L124.816 387.297C124.025 388.271 122.758 390.955 124.019 393.907L120.236 394.193L118.255 368.035L117.042 352.004Z" fill="#86AB5D"/>
<path d="M61.3412 398.652C63.4784 385.705 76.4184 358.34 111.081 352.455L114.275 394.644L61.3412 398.652Z" fill="#86AB5D"/>
<path d="M56.5548 443.123L182.451 433.591M56.5548 443.123C51.7192 467.941 26.9226 453.996 28.6973 442.595M56.5548 443.123C47.1961 417.702 28.3183 437.59 28.6973 442.595M182.451 433.591C183.624 449.084 206.34 454.556 210.587 431.461M182.451 433.591C185.801 423.989 199.898 413.811 210.587 431.461M210.587 431.461L224.655 430.396C224.84 426.235 224.452 420.396 222.944 414.464M28.6973 442.595L19.6365 443.281C23.9543 404.023 45.5826 397.448 55.8571 399.067C58.0969 382.197 72.8837 348.395 114.112 348.15C155.34 347.906 172.887 375.903 176.508 389.932C187.956 386.573 198.602 389.298 202.494 391.081C208.747 392.508 213.342 396.047 216.674 400.555M216.674 400.555C219.718 404.673 221.707 409.6 222.944 414.464M216.674 400.555C220.699 400.25 227.589 402.605 222.944 414.464M124.816 387.297C132.164 392.955 137.625 388.916 139.437 386.19M124.816 387.297C124.025 388.271 122.758 390.955 124.019 393.907M124.816 387.297L123.354 367.987M139.437 386.19L139.697 389.623L145.782 390.025L145.95 392.246M139.437 386.19L137.975 366.88M124.019 393.907L120.236 394.193L118.255 368.035L117.042 352.004C130.441 352.668 160.092 361.258 171.5 390.312L150.9 391.871M124.019 393.907L145.95 392.246M145.95 392.246L148.53 392.051M131.022 372.154C131.915 372.518 136.012 375.229 135.477 379.585L129.457 380.041M123.354 367.987L123.062 364.126C123.551 361.068 125.698 356.676 130.372 363.572C132.03 360.713 135.813 356.6 137.683 363.019L137.975 366.88M123.354 367.987C124.217 366.052 126.715 363.245 129.805 367.499M123.354 367.987C126.126 372.611 128.81 369.588 129.805 367.499M129.805 367.499L131.955 367.336M131.955 367.336C132.685 365.555 134.911 362.969 137.975 366.88M131.955 367.336C135.045 371.591 137.256 368.805 137.975 366.88M129.814 384.761C130.872 385.4 133.384 386.217 134.974 384.37M126.364 367.76L127.224 367.694M134.965 367.108L135.825 367.043M148.53 392.051C147.541 388.504 146.833 381.055 148.475 379.895C150.528 378.445 151.434 384.57 150.9 391.871M148.53 392.051L150.9 391.871M61.3412 398.652C63.4784 385.705 76.4184 358.34 111.081 352.455L114.275 394.644L61.3412 398.652Z" stroke="#0C0C0C" stroke-width="2"/>
</svg>
