<svg width="1391" height="710" viewBox="0 0 1391 710" fill="none" xmlns="http://www.w3.org/2000/svg">
<rect width="1391" height="710" rx="79" fill="black"/>
<path d="M54 465.199V394.199C141.162 338.345 297.294 352.628 365.632 372.269C401.303 385.158 564.291 464.447 682 436.5L670.5 508C628.471 533.2 496.134 495.484 429.469 477.226C265.457 409.955 105.151 442.285 54 465.199Z" fill="#C87C62" stroke="white" stroke-width="4"/>
<path d="M95.5 415.699L94.5 409.699C113.3 398.899 143 396.199 155.5 396.199L151.5 407.199C131.5 407.199 112.333 409.866 95.5 415.699Z" fill="white" stroke="white" stroke-width="4"/>
<path d="M187.995 403.2L187.607 397.129C207.402 388.285 235.564 391.935 248 393.199L244.567 400.404C224.67 398.382 205.332 399.098 187.995 403.2Z" fill="white" stroke="white" stroke-width="4"/>
<path d="M289.947 405.496L290.917 399.491C312.183 395.266 335.5 402.199 353.033 406.194L345.727 415.339C326.776 408.947 307.762 405.348 289.947 405.496Z" fill="white" stroke="white" stroke-width="4"/>
<path d="M483 453.95L482 460.104C500.8 471.181 530.5 473.95 543 473.95L539 462.668C519 462.668 499.833 459.933 483 453.95Z" fill="white" stroke="white" stroke-width="4"/>
<path d="M387.977 416.415L386.006 422.33C402.795 436.268 431.671 443.747 444.01 445.745L441.864 433.968C422.121 430.773 403.638 425.01 387.977 416.415Z" fill="white" stroke="white" stroke-width="4"/>
<path d="M575.113 466.57L574.727 472.596C594.377 481.376 622.332 477.752 634.677 476.498L631.269 469.346C611.518 471.353 592.322 470.642 575.113 466.57Z" fill="white" stroke="white" stroke-width="4"/>
<path d="M54 535.35V464.35C141.162 408.495 297.294 422.778 365.632 442.419C401.303 455.308 552.791 529.947 670.5 502L657.5 567C615.471 592.2 496.134 565.634 429.469 547.376C265.457 480.105 105.151 512.435 54 535.35Z" fill="#C87C62" stroke="white" stroke-width="4"/>
<path d="M95.5 485.85L94.5 479.849C113.3 469.049 143 466.35 155.5 466.35L151.5 477.35C131.5 477.35 112.333 480.016 95.5 485.85Z" fill="white" stroke="white" stroke-width="4"/>
<path d="M187.995 473.35L187.607 467.28C207.402 458.435 235.564 462.086 248 463.349L244.567 470.554C224.67 468.533 205.332 469.248 187.995 473.35Z" fill="white" stroke="white" stroke-width="4"/>
<path d="M289.947 475.647L290.917 469.641C312.183 465.416 335.5 472.35 353.033 476.344L345.727 485.489C326.776 479.097 307.762 475.499 289.947 475.647Z" fill="white" stroke="white" stroke-width="4"/>
<path d="M483 524.101L482 530.255C500.8 541.332 530.5 544.101 543 544.101L539 532.819C519 532.819 499.833 530.083 483 524.101Z" fill="white" stroke="white" stroke-width="4"/>
<path d="M387.977 486.565L386.006 492.48C402.795 506.419 431.671 513.898 444.01 515.895L441.864 504.119C422.121 500.923 403.638 495.161 387.977 486.565Z" fill="white" stroke="white" stroke-width="4"/>
<path d="M575.113 536.721L574.727 542.747C594.377 551.526 622.332 547.903 634.677 546.648L631.269 539.496C611.518 541.503 592.322 540.793 575.113 536.721Z" fill="white" stroke="white" stroke-width="4"/>
<path d="M54 401.35V330.35C141.162 274.495 297.294 288.778 365.632 308.419C401.303 321.308 577.791 395.046 695.5 367.1L682 436.65C639.971 461.85 496.134 431.634 429.469 413.376C265.457 346.105 105.151 378.435 54 401.35Z" fill="#C87C62" stroke="white" stroke-width="4"/>
<path d="M54 401.35V330.35C141.162 274.495 297.294 288.778 365.632 308.419C401.303 321.308 577.791 395.046 695.5 367.1L682 436.65C639.971 461.85 496.134 431.634 429.469 413.376C265.457 346.105 105.151 378.435 54 401.35Z" fill="#C87C62" stroke="white" stroke-width="4"/>
<path d="M95.5 351.85L94.5 345.849C113.3 335.049 143 332.35 155.5 332.35L151.5 343.35C131.5 343.35 112.333 346.016 95.5 351.85Z" fill="white" stroke="white" stroke-width="4"/>
<path d="M187.995 339.35L187.607 333.28C207.402 324.435 235.564 328.086 248 329.349L244.567 336.554C224.67 334.533 205.332 335.248 187.995 339.35Z" fill="white" stroke="white" stroke-width="4"/>
<path d="M289.947 341.647L290.917 335.641C312.183 331.416 335.5 338.35 353.033 342.344L345.727 351.489C326.776 345.097 307.762 341.499 289.947 341.647Z" fill="white" stroke="white" stroke-width="4"/>
<path d="M483 390.101L482 396.255C500.8 407.332 530.5 410.101 543 410.101L539 398.819C519 398.819 499.833 396.083 483 390.101Z" fill="white" stroke="white" stroke-width="4"/>
<path d="M387.977 352.565L386.006 358.48C402.795 372.419 431.671 379.898 444.01 381.895L441.864 370.119C422.121 366.923 403.638 361.161 387.977 352.565Z" fill="white" stroke="white" stroke-width="4"/>
<path d="M575.113 402.721L574.727 408.747C594.377 417.526 622.332 413.903 634.677 412.648L631.269 405.496C611.518 407.503 592.322 406.793 575.113 402.721Z" fill="white" stroke="white" stroke-width="4"/>
<path fill-rule="evenodd" clip-rule="evenodd" d="M313.472 398.747H136.59C127.21 432.881 94.0451 410.794 97.7301 395.066H85C95.1841 340.718 126.094 333.825 140.275 337.171C145.189 313.857 169.421 268.233 227.041 272.249C284.661 276.264 306.213 317.204 309.787 337.171C326.135 333.691 340.718 338.622 345.967 341.522C354.552 344.174 360.597 349.601 364.774 356.246C370.43 356.246 379.805 360.262 372.061 376.325C373.541 384.767 373.466 392.958 372.767 398.747H353.002C344.627 430.539 313.472 420.5 313.472 398.747ZM147.98 337.171C152.335 319.323 173.307 282.489 222.351 277.937V337.171H147.98ZM230.726 277.937C249.374 280.28 289.887 295.407 302.751 337.171H273.809C275.326 327.035 274.708 318.389 271.688 320.197C269.271 321.643 269.472 332.116 270.479 337.171H266.854V334.053L258.396 332.848V328.029V300.918V295.496C256.463 286.339 250.743 291.68 248.125 295.496C242.325 285.375 238.861 291.279 237.854 295.496V300.918V328.029C236.646 329.304 234.592 332.918 236.042 337.171H230.726V300.445V277.937Z" fill="#998FAA"/>
<path d="M147.98 337.171C152.335 319.323 173.307 282.489 222.351 277.937V337.171H147.98Z" fill="#998FAA"/>
<path d="M136.59 398.747H313.472M136.59 398.747C127.21 432.881 94.0451 410.794 97.7301 395.066M136.59 398.747C126.205 362.27 97.7301 388.038 97.7301 395.066M313.472 398.747C313.472 420.5 344.627 430.539 353.002 398.747M313.472 398.747C319.167 385.696 339.937 372.979 353.002 398.747M353.002 398.747H372.767C373.466 392.958 373.541 384.767 372.061 376.325M97.7301 395.066H85C95.1841 340.718 126.094 333.825 140.275 337.171C145.189 313.857 169.421 268.233 227.041 272.249C284.661 276.264 306.213 317.204 309.787 337.171C326.135 333.691 340.718 338.622 345.967 341.522C354.552 344.174 360.597 349.601 364.774 356.246M364.774 356.246C368.59 362.317 370.848 369.405 372.061 376.325M364.774 356.246C370.43 356.246 379.805 360.262 372.061 376.325M237.854 328.029C247.521 336.704 255.576 331.643 258.396 328.029M237.854 328.029C236.646 329.304 234.592 332.918 236.042 337.171M237.854 328.029V300.918M258.396 328.029V332.848L266.854 334.053V337.171M258.396 328.029V300.918M236.042 337.171H230.726V300.445V277.937C249.374 280.28 289.887 295.407 302.751 337.171H273.809M236.042 337.171H266.854M266.854 337.171H270.479M248.125 307.545C249.333 308.148 254.771 312.365 253.562 318.389H245.104M237.854 300.918V295.496C238.861 291.279 242.325 285.375 248.125 295.496C250.743 291.68 256.463 286.339 258.396 295.496V300.918M237.854 300.918C239.264 298.307 243.05 294.652 246.917 300.918M237.854 300.918C241.238 307.666 245.306 303.73 246.917 300.918M246.917 300.918H249.938M249.938 300.918C251.146 298.508 254.529 295.134 258.396 300.918M249.938 300.918C253.804 307.184 257.188 303.529 258.396 300.918M245.104 325.016C246.514 326.02 249.938 327.426 252.354 325.016M242.083 300.918H243.292M254.167 300.918H255.375M270.479 337.171C269.472 332.116 269.271 321.643 271.688 320.197C274.708 318.389 275.326 327.035 273.809 337.171M270.479 337.171H273.809M147.98 337.171C152.335 319.323 173.307 282.489 222.351 277.937V337.171H147.98Z" stroke="#0C0C0C" stroke-width="2"/>
<path d="M535.678 426.827C524.321 426.023 505.839 418.102 522.761 392.853C518.839 382.507 516.071 361.567 536.373 360.579C540.393 336.571 580.072 321.824 580.021 367.887C586.059 373.476 594.451 388.201 579.716 402.389C585.264 413.922 588.482 435.668 556.97 430.392L556.02 437.912C559.473 439.235 565.652 443.964 562.74 452.295L547.211 449.695L530.601 446.914L524.733 445.931C524.699 445.926 524.67 445.894 524.644 445.839C524.101 444.662 525.413 432.787 534.427 434.296L535.678 426.827Z" fill="#E5DFCD"/>
<path d="M375.151 433.051L379.27 492.278C384.059 491.619 393.286 492.409 405.498 494.231C416.906 495.933 430.92 498.534 446.355 501.694C475.948 507.753 510.763 515.864 542.452 523.62C555.012 526.694 567.08 529.711 578.138 532.524C586.85 534.74 594.935 536.828 602.138 538.715L607.648 505.807L613.157 472.899C608.321 468.35 600.375 464.264 590.179 460.605C588.015 459.828 585.87 459.095 583.72 458.399C572.762 454.851 561.67 452.258 547.211 449.695L535.434 447.723C533.829 447.467 532.218 447.196 530.601 446.914L524.733 445.931C524.699 445.926 524.67 445.894 524.644 445.839C515.04 444.063 505.217 442.114 495.212 440.989C492.816 440.719 490.323 440.457 487.757 440.201C472.109 438.643 453.772 437.349 438.335 436.31C434.642 436.061 431.116 435.827 427.831 435.608C408.021 434.285 389.813 433.46 375.151 433.051Z" fill="#E5DFCD"/>
<path d="M446.355 501.694C430.92 498.534 416.906 495.933 405.498 494.231C400.66 507.263 430.961 530.201 446.355 501.694Z" fill="#E5DFCD"/>
<path d="M578.138 532.524C567.08 529.711 555.012 526.694 542.452 523.62C538.65 546.331 573.213 552.877 578.138 532.524Z" fill="#E5DFCD"/>
<path d="M495.212 440.989L531.545 316.313L524.995 315.216L487.757 440.201C490.323 440.457 492.816 440.719 495.212 440.989Z" fill="#E5DFCD"/>
<path d="M495.175 303.001L427.831 435.608C431.116 435.827 434.642 436.061 438.335 436.31L499.534 310.953L524.995 315.216L531.545 316.313L533.551 309.426L495.175 303.001Z" fill="#E5DFCD"/>
<path d="M603.293 321.103L533.551 309.426L531.545 316.313L594.737 326.893L602.624 328.213L603.293 321.103Z" fill="#E5DFCD"/>
<path d="M590.179 460.605L602.624 328.213L594.737 326.893C593.141 364.084 588.703 442.453 583.72 458.399C585.87 459.095 588.015 459.828 590.179 460.605Z" fill="#E5DFCD"/>
<path d="M499.534 310.953L438.335 436.31C453.772 437.349 472.109 438.643 487.757 440.201L524.995 315.216L499.534 310.953Z" fill="#E5DFCD"/>
<path d="M405.498 494.231C393.286 492.409 384.059 491.619 379.27 492.278L375.151 433.051C389.813 433.46 408.021 434.285 427.831 435.608M405.498 494.231C416.906 495.933 430.92 498.534 446.355 501.694M405.498 494.231C400.66 507.263 430.961 530.201 446.355 501.694M446.355 501.694C475.948 507.753 510.763 515.864 542.452 523.62M542.452 523.62C555.012 526.694 567.08 529.711 578.138 532.524M542.452 523.62C538.65 546.331 573.213 552.877 578.138 532.524M578.138 532.524C586.85 534.74 594.935 536.828 602.138 538.715L607.648 505.807L613.157 472.899C608.321 468.35 600.375 464.264 590.179 460.605M427.831 435.608L495.175 303.001L533.551 309.426M427.831 435.608C431.116 435.827 434.642 436.061 438.335 436.31M590.179 460.605L602.624 328.213M590.179 460.605C588.015 459.828 585.87 459.095 583.72 458.399M495.212 440.989C505.217 442.114 515.04 444.063 524.644 445.839M495.212 440.989C492.816 440.719 490.323 440.457 487.757 440.201M495.212 440.989L531.545 316.313M533.551 309.426L603.293 321.103L602.624 328.213M533.551 309.426L531.545 316.313M535.434 447.723L547.211 449.695M535.434 447.723C533.829 447.467 532.218 447.196 530.601 446.914M535.434 447.723C539.615 448.388 543.523 449.041 547.211 449.695M534.427 434.296L556.02 437.912M534.427 434.296L535.678 426.827C524.321 426.023 505.839 418.102 522.761 392.853C518.839 382.507 516.071 361.567 536.373 360.579C540.393 336.571 580.072 321.824 580.021 367.887C586.059 373.476 594.451 388.201 579.716 402.389C585.264 413.922 588.482 435.668 556.97 430.392L556.02 437.912M534.427 434.296C525.413 432.787 524.101 444.662 524.644 445.839M556.02 437.912C559.473 439.235 565.652 443.964 562.74 452.295L547.211 449.695M547.994 363.073L547.191 367.875M568.753 366.549L567.95 371.351M539.34 404.953C542.853 409.032 552.987 415.617 565.423 409.32M547.211 449.695L530.601 446.914M547.211 449.695C561.67 452.258 572.762 454.851 583.72 458.399M530.601 446.914L524.733 445.931C524.699 445.926 524.67 445.894 524.644 445.839M530.601 446.914C528.625 446.569 526.639 446.207 524.644 445.839M438.335 436.31L499.534 310.953L524.995 315.216M438.335 436.31C453.772 437.349 472.109 438.643 487.757 440.201M602.624 328.213L594.737 326.893M594.737 326.893C593.141 364.084 588.703 442.453 583.72 458.399M594.737 326.893L531.545 316.313M524.995 315.216L487.757 440.201M524.995 315.216L531.545 316.313M560.736 394.824C558.669 391.918 552.262 387.262 543.171 391.883C545.681 395.411 552.708 400.939 560.736 394.824Z" stroke="black" stroke-width="2"/>
</svg>
