<svg width="1090" height="868" viewBox="0 0 1090 868" fill="none" xmlns="http://www.w3.org/2000/svg">
<rect width="1090" height="1015" rx="79" fill="#86AB5D"/>
<path d="M862.492 173.538C666.509 173.538 626.123 204.99 599.931 238.681C510.036 337.348 695.142 374.373 796.263 314.831C858.438 278.221 1011.79 343.327 1047.45 276.632C1083.11 209.937 879.533 173.538 862.492 173.538Z" fill="#E5DFCD"/>
<path d="M819.535 188.87C783.65 183.401 639.796 221.783 619.523 247.931C549.944 324.508 686.794 335.71 765.062 289.499C813.185 261.085 931.883 311.615 959.483 259.852C987.084 208.089 836.704 191.486 819.535 188.87Z" fill="#CFC5AA"/>
<path d="M665.933 276.534C662.553 278.179 660.056 288.73 672.017 285.42C684.861 281.865 672.017 273.571 665.933 276.534Z" fill="black" stroke="black"/>
<path d="M974.441 282.852V263.542C975.544 262.694 976.732 261.984 977.983 261.395V220.095C962.114 214.578 961.926 210.9 963.815 209.751C991.584 206.44 984.831 215.268 977.983 220.095V261.395C981.42 259.779 985.337 259.083 989.317 258.985C989.99 258.969 990.665 258.969 991.339 258.985L989.317 206.302C987.428 199.636 987.334 188.096 1002.07 195.268C998.999 197.797 992.151 203.544 989.317 206.302L991.339 258.985C992.798 259.02 994.256 259.127 995.693 259.291L999.235 217.337C998.055 210.67 998.952 199.13 1011.99 206.302C1014.11 207.222 1014.54 210.716 999.235 217.337L995.693 259.291C997.893 259.543 1000.04 259.927 1002.07 260.388L1006.32 231.129C1005.85 223.773 1008.16 211.268 1021.2 220.095C1021.49 221.245 1018.93 225.061 1006.32 231.129L1002.07 260.388C1006.03 261.289 1009.51 262.481 1011.99 263.542V270.439C1030.12 291.956 1019.54 312.047 1011.99 319.403V355.954C1006.93 358.094 1001.21 358.92 995.693 358.994C993.519 359.024 991.377 358.937 989.317 358.767C983.129 358.259 977.694 357.009 974.441 355.954V282.852Z" fill="#E5DFCD"/>
<path d="M974.441 282.852V263.542C975.544 262.694 976.732 261.984 977.983 261.395M974.441 282.852V355.954C977.694 357.009 983.129 358.259 989.317 358.767M974.441 282.852C979.164 278.714 993.285 272.922 1011.99 282.852M1011.99 282.852V319.403M1011.99 282.852V270.439M995.693 259.291V358.994M995.693 259.291C994.256 259.127 992.798 259.02 991.339 258.985M995.693 259.291L999.235 217.337M995.693 259.291C997.893 259.543 1000.04 259.927 1002.07 260.388M995.693 358.994C1001.21 358.92 1006.93 358.094 1011.99 355.954V319.403M995.693 358.994C993.519 359.024 991.377 358.937 989.317 358.767M989.317 358.767V258.985M989.317 258.985C985.337 259.083 981.42 259.779 977.983 261.395M989.317 258.985C989.99 258.969 990.665 258.969 991.339 258.985M1011.99 319.403C1019.54 312.047 1030.12 291.956 1011.99 270.439M1011.99 270.439V263.542C1009.51 262.481 1006.03 261.289 1002.07 260.388M977.983 261.395V220.095M977.983 220.095C984.831 215.268 991.584 206.44 963.815 209.751C961.926 210.9 962.114 214.578 977.983 220.095ZM991.339 258.985L989.317 206.302M989.317 206.302C987.428 199.636 987.334 188.096 1002.07 195.268C998.999 197.797 992.151 203.544 989.317 206.302ZM999.235 217.337C998.055 210.67 998.952 199.13 1011.99 206.302C1014.11 207.222 1014.54 210.716 999.235 217.337ZM1002.07 260.388L1006.32 231.129M1006.32 231.129C1005.85 223.773 1008.16 211.268 1021.2 220.095C1021.49 221.245 1018.93 225.061 1006.32 231.129Z" stroke="#1F4E2C" stroke-width="3"/>
<path d="M340.442 247.316C387.109 241.581 524.972 225.642 545.895 189C620.256 80.0813 454.895 91.4999 340.442 127.166C271.828 148.548 127.172 130.177 101.825 200.74C76.4771 271.302 300.327 252.246 340.442 247.316Z" fill="#E5DFCD"/>
<path d="M190.62 199.834C187.638 201.479 187.396 210.665 195.895 207.999C207.228 204.444 195.988 196.871 190.62 199.834Z" fill="black" stroke="black"/>
<path d="M351.546 92.3661L349.396 79.576C349.56 76.9008 350.004 74.3354 350.689 71.9017C358.38 44.5532 396.379 33.8255 408.221 70.6233C409.096 73.3437 409.829 76.3237 410.396 79.576L408.675 88.9552L408.049 92.3661L406.954 98.3349L405.86 104.304L403.826 115.388L402.262 123.915L401.48 128.179L401.011 130.736L400.229 135H393.451H384.979H373.965H366.34H358.715L357.568 128.179L355.417 115.388L355.131 113.683L353.553 104.304L351.546 92.3661Z" fill="#E5DFCD"/>
<path d="M349.396 79.576L351.546 92.3661M349.396 79.576H350.243M349.396 79.576C349.56 76.9008 350.004 74.3354 350.689 71.9017M410.396 79.576L408.675 88.9552M410.396 79.576C409.829 76.3237 409.096 73.3437 408.221 70.6233M410.396 79.576L409.548 79.5757M351.546 92.3661C351.546 92.3661 352.77 99.6418 353.553 104.304M351.546 92.3661H352.784H370.576M408.049 92.3661H390.909M408.049 92.3661L406.954 98.3349M408.049 92.3661L408.675 88.9552M405.86 104.304L403.826 115.388M405.86 104.304L406.954 98.3349M405.86 104.304C405.86 104.304 399.628 104.304 390.909 104.304M353.553 104.304C354.053 107.277 354.746 111.395 355.131 113.683M353.553 104.304C364.949 104.304 379.909 104.304 390.909 104.304M403.826 115.388H355.417M403.826 115.388L402.262 123.915M355.417 115.388L357.568 128.179M355.417 115.388C355.417 115.388 355.306 114.726 355.131 113.683M357.568 128.179L358.715 135H366.34M357.568 128.179H384.979M401.48 128.179L402.262 123.915M401.48 128.179L401.011 130.736M401.48 128.179H384.979M393.451 135H400.229L401.011 130.736M393.451 135H384.979M393.451 135L400.615 85.5445L401.48 79.576M401.48 79.576H388.368M401.48 79.576L409.548 79.5757M384.979 135H373.965M384.979 135L385.24 130.736M388.368 79.576H373.965M388.368 79.576L386.908 103.451M373.965 135H366.34M373.965 135V120.504M373.965 79.576C368.599 79.2919 360.409 81.4521 370.576 92.3661M373.965 79.576V106.009M373.965 79.576H366.34M373.965 79.576C382.064 79.576 384.207 86.4916 379.048 90.4913M366.34 135L360.917 84.318M360.409 79.576H350.243M360.409 79.576H366.34M360.409 79.576L360.917 84.318M377.867 65.0802C377.428 64.4696 376.967 63.8957 376.507 63.3749C368.403 60.8263 364.841 65.2859 364.554 70.1963M377.867 65.0802C381.862 59.9642 391.251 53.4838 396.84 68.4909M377.867 65.0802C378.984 66.6358 379.956 68.4304 380.393 70.1963M396.84 68.4909C394.065 73.8912 386.89 81.7927 380.393 70.1963M396.84 68.4909C399.344 67.3545 405.125 66.19 408.221 70.6233M380.393 70.1963C381.468 74.5467 379.293 78.7231 368.034 78.7231C365.649 77.0083 364.36 73.5002 364.554 70.1963M373.965 120.504C369.446 118.23 360.071 116.411 358.715 127.326C360.127 130.736 364.815 136.876 372.271 134.147M373.965 120.504V106.009M385.813 121.357L385.578 125.194L385.344 129.031M385.813 121.357C386.106 121.076 386.431 120.789 386.784 120.504M385.813 121.357L386.908 103.451M402.262 123.915C400.113 119.165 397.18 117.538 394.298 117.501M401.011 130.736C392.474 139.263 382.437 127.326 385.24 130.736M384.979 128.179C385.771 120.675 385.552 125.62 385.344 129.031M385.344 129.031L385.24 130.736M370.576 92.3661H390.909M370.576 92.3661C372.834 88.39 364.738 84.0356 358.715 85.0998M373.965 106.009C371.497 111.977 370.606 123.233 386.784 120.504M373.965 106.009C360.409 96.3168 355.761 107.086 355.131 113.683M386.784 120.504C388.721 118.942 391.485 117.464 394.298 117.501M390.909 92.3661C391.157 98.335 394.713 107.885 406.954 98.3349M390.909 92.3661C391.42 89.7448 393.398 86.221 397.687 85.6392M408.675 88.9552C406.469 87.6009 404.508 86.7077 402.771 86.1783M350.243 79.576C350.808 81.5533 353.293 85.4262 358.715 85.0998M358.715 85.0998C355.696 85.6332 353.198 87.5277 352.784 91.5132C351.546 103.451 370.576 103.451 370.576 93.2186C374.388 92.993 377.191 91.931 379.048 90.4913M366.34 79.576C365.831 81.3163 364.034 84.7012 360.917 84.318M364.554 70.1963C361.21 68.4909 353.757 66.4445 350.689 71.9017M350.689 71.9017C358.38 44.5532 396.379 33.8255 408.221 70.6233M390.909 75.3124C390.627 78.502 391.587 85.0328 397.687 85.6392M397.687 85.6392C399.115 85.4454 400.799 85.5779 402.771 86.1783M402.771 86.1783C405.595 84.8302 410.904 81.6222 409.548 79.5757M379.048 90.4913C385.418 91.4004 395.907 95.265 386.908 103.451M394.298 117.501C388.863 115.66 382.437 109.419 390.909 104.304" stroke="black" stroke-width="1.6"/>
<path d="M503.535 524.759C441.099 514.092 288.539 554.799 246.366 569.818C101.622 613.804 192.552 648 312.197 648C431.842 648 482.545 633.58 562.471 569.818C590.518 547.443 581.579 538.093 503.535 524.759Z" fill="#E5DFCD"/>
<path d="M472.75 555.191C427.154 547.97 315.741 575.526 284.942 585.693C179.238 615.469 231.351 631 318.727 631C406.103 631 438.069 609.696 515.79 585.693C562.371 571.307 529.745 564.217 472.75 555.191Z" fill="#CFC5AA"/>
<path d="M476.753 591.698C473.421 593.651 470.959 606.17 482.75 602.242C492.751 598.911 482.75 588.183 476.753 591.698Z" fill="black" stroke="black"/>
<path d="M898.523 470.042C836.93 450.732 720.92 487.833 679.315 515.022C536.525 594.648 710.469 616 828.5 616C946.531 616 971.106 625.109 1027.75 571.286C1084.39 517.462 975.515 494.179 898.523 470.042Z" fill="#CFC6AA"/>
<path d="M609.939 569.726L608 558.244C608.148 555.843 608.549 553.54 609.166 551.355C616.1 526.803 650.362 517.173 661.039 550.207C661.829 552.649 662.489 555.325 663 558.244L661.449 566.664L660.885 569.726L659.897 575.085L658.91 580.443L657.077 590.394L655.667 598.049L654.962 601.876L654.539 604.172L653.833 608H647.722H640.083H630.153H623.278H616.403L615.369 601.876L613.429 590.394L613.171 588.863L611.749 580.443L609.939 569.726Z" fill="#E5DFCD"/>
<path d="M608 558.244L609.939 569.726M608 558.244H608.764M608 558.244C608.148 555.843 608.549 553.54 609.166 551.355M663 558.244L661.449 566.664M663 558.244C662.489 555.325 661.829 552.649 661.039 550.207M663 558.244L662.236 558.244M609.939 569.726C609.939 569.726 611.042 576.258 611.749 580.443M609.939 569.726H611.056H627.097M660.885 569.726H645.431M660.885 569.726L659.897 575.085M660.885 569.726L661.449 566.664M658.91 580.443L657.077 590.394M658.91 580.443L659.897 575.085M658.91 580.443C658.91 580.443 653.291 580.443 645.431 580.443M611.749 580.443C612.2 583.112 612.824 586.809 613.171 588.863M611.749 580.443C622.024 580.443 635.512 580.443 645.431 580.443M657.077 590.394H613.429M657.077 590.394L655.667 598.049M613.429 590.394L615.369 601.876M613.429 590.394C613.429 590.394 613.329 589.799 613.171 588.863M615.369 601.876L616.403 608H623.278M615.369 601.876H640.083M654.962 601.876L655.667 598.049M654.962 601.876L654.539 604.172M654.962 601.876H640.083M647.722 608H653.833L654.539 604.172M647.722 608H640.083M647.722 608L654.182 563.602L654.962 558.244M654.962 558.244H643.139M654.962 558.244L662.236 558.244M640.083 608H630.153M640.083 608L640.318 604.172M643.139 558.244H630.153M643.139 558.244L641.823 579.677M630.153 608H623.278M630.153 608V594.987M630.153 558.244C625.315 557.989 617.931 559.929 627.097 569.726M630.153 558.244V581.974M630.153 558.244H623.278M630.153 558.244C637.455 558.244 639.388 564.453 634.736 568.043M623.278 608L618.388 562.501M617.931 558.244H608.764M617.931 558.244H623.278M617.931 558.244L618.388 562.501M633.671 545.231C633.275 544.683 632.859 544.168 632.444 543.7C625.138 541.412 621.927 545.416 621.667 549.824M633.671 545.231C637.273 540.638 645.738 534.821 650.778 548.293M633.671 545.231C634.678 546.628 635.555 548.239 635.948 549.824M650.778 548.293C648.276 553.141 641.807 560.234 635.948 549.824M650.778 548.293C653.035 547.273 658.248 546.227 661.039 550.207M635.948 549.824C636.918 553.729 634.957 557.479 624.806 557.479C622.655 555.939 621.493 552.79 621.667 549.824M630.153 594.987C626.079 592.945 617.625 591.312 616.403 601.111C617.676 604.172 621.903 609.684 628.625 607.234M630.153 594.987V581.974M640.835 595.752L640.624 599.197L640.412 602.641M640.835 595.752C641.1 595.5 641.393 595.242 641.711 594.987M640.835 595.752L641.823 579.677M655.667 598.049C653.729 593.784 651.084 592.324 648.486 592.291M654.539 604.172C646.841 611.827 637.792 601.111 640.318 604.172M640.083 601.876C640.798 595.14 640.6 599.58 640.412 602.641M640.412 602.641L640.318 604.172M627.097 569.726H645.431M627.097 569.726C629.133 566.157 621.834 562.248 616.403 563.203M630.153 581.974C627.928 587.332 627.124 597.436 641.711 594.987M630.153 581.974C617.931 573.273 613.739 582.941 613.171 588.863M641.711 594.987C643.458 593.584 645.95 592.258 648.486 592.291M645.431 569.726C645.654 575.085 648.86 583.658 659.897 575.085M645.431 569.726C645.891 567.373 647.675 564.21 651.542 563.687M661.449 566.664C659.46 565.449 657.692 564.647 656.125 564.171M608.764 558.244C609.273 560.019 611.514 563.496 616.403 563.203M616.403 563.203C613.681 563.682 611.428 565.383 611.056 568.961C609.939 579.677 627.097 579.677 627.097 570.492C630.534 570.289 633.062 569.336 634.736 568.043M623.278 558.244C622.819 559.807 621.199 562.845 618.388 562.501M621.667 549.824C618.653 548.293 611.932 546.456 609.166 551.355M609.166 551.355C616.1 526.803 650.362 517.173 661.039 550.207M645.431 554.417C645.176 557.28 646.042 563.143 651.542 563.687M651.542 563.687C652.829 563.514 654.348 563.632 656.125 564.171M656.125 564.171C658.671 562.961 663.458 560.081 662.236 558.244M634.736 568.043C640.479 568.859 649.936 572.329 641.823 579.677M648.486 592.291C643.585 590.638 637.792 585.036 645.431 580.443" stroke="black" stroke-width="1.6"/>
<path d="M972.452 520.383C946.702 516.896 880.261 499.8 862.711 503.257C802.531 513.143 857.089 553.298 906.577 554.634C956.065 555.971 1005.7 555.646 996.511 532.825C993.013 524.143 993.04 523.171 972.452 520.383Z" fill="#E5DFCD"/>
<path d="M913.524 533.494C910.469 534.791 908.212 543.105 919.023 540.497C930.633 537.696 919.023 531.16 913.524 533.494Z" fill="black" stroke="black"/>
<path d="M406.298 301.008C335.895 289.034 163.869 334.728 116.313 351.588C-46.8998 400.964 94.4518 455.546 229.364 455.546C364.277 455.546 499.476 448.403 472.755 351.588C462.589 314.754 462.589 310.582 406.298 301.008Z" fill="#CFC5AA"/>
<path d="M359.939 319.943C308.523 311.141 182.891 344.732 148.161 357.126C28.9658 393.424 132.196 433.549 230.723 433.549C329.25 433.549 408.472 449.523 408.472 357.126C408.472 340.5 424.208 330.946 359.939 319.943Z" fill="#E5DFCD"/>
<path d="M351.368 342.607C347.789 344.253 345.145 354.803 357.81 351.493C371.409 347.938 357.81 339.645 351.368 342.607Z" fill="black" stroke="black"/>
<path d="M57.101 537.874V486.863H50.6009C49.5897 483.116 48.1741 475.537 50.6009 475.191C53.0276 474.845 111.702 475.047 140.736 475.191C151.57 476.056 171.764 479.6 165.87 486.863H153.303L175.837 550.4C189.862 554.24 205.218 561.155 208.772 572.025V577.213C209.638 579.806 211.285 585.426 210.938 587.156C212.238 588.597 217.092 592.689 213.972 597.531H202.705C200.971 613.785 189.56 617.272 184.071 616.984C170.303 616.02 165.693 608.425 164.847 601.421H82.6683C79.8949 615.255 67.0679 617.272 61.001 616.552C55.8009 615.111 45.4873 609.203 45.834 597.098H40.2005H26.3334C24.0223 595.657 20.44 591.478 24.6001 586.291H30.2336L34.1337 568.567L41.9339 563.379V537.874H44.1006L37.2728 521.447C34.1337 531.822 26.4617 530.381 22 524.473L36.7337 520.15L37.2728 521.447L44.1006 537.874H50.6009L39.1605 509.342C31.7416 521.101 24.629 514.242 22 509.342L38.4671 507.613L39.1605 509.342L50.6009 537.874H57.101Z" fill="#E5DFCD"/>
<path d="M57.101 537.874V486.863M57.101 486.863H50.6009C49.5897 483.116 48.1741 475.537 50.6009 475.191C53.0276 474.845 111.702 475.047 140.736 475.191C151.57 476.056 171.764 479.6 165.87 486.863H153.303M57.101 486.863H63.6011M63.6011 486.863V537.874H67.0679M63.6011 486.863H74.4347M67.0679 537.874H50.6009M67.0679 537.874V557.327M38.4671 537.874H41.9339M41.9339 537.874V563.379M41.9339 537.874H44.1006M41.9339 563.379C48.0007 560.93 60.5677 557.327 67.0679 557.327M41.9339 563.379L34.1337 568.567L30.2336 586.291M67.0679 557.327H81.3682M50.6009 537.874L39.1605 509.342M50.6009 537.874H44.1006M39.1605 509.342L38.4671 507.613L22 509.342C24.629 514.242 31.7416 521.101 39.1605 509.342ZM44.1006 537.874L37.2728 521.447M37.2728 521.447L36.7337 520.15L22 524.473C26.4617 530.381 34.1337 531.822 37.2728 521.447ZM74.4347 486.863V521.447M74.4347 486.863H81.3682M74.4347 521.447C74.8681 520.87 76.8615 519.631 81.3682 519.285M74.4347 521.447C73.7139 523.604 73.7125 531.442 78.1201 546.952M81.3682 519.285V486.863M81.3682 519.285C91.4218 517.556 95.6686 536.549 96.5353 546.262M81.3682 486.863H146.803M81.3682 557.327C80.0846 553.544 79.012 550.091 78.1201 546.952M81.3682 557.327C82.6538 558.081 85.1349 559.397 88.3018 560.826M127.736 564.676V589.317M127.736 564.676H113.002M127.736 564.676C131.55 553.609 126.147 551.707 122.969 552.14H98.2687M127.736 593.208L81.8016 593.449L165.437 593.208M127.736 593.208H165.437M127.736 593.208V589.317M165.437 593.208C166.477 582.833 176.271 579.662 181.038 579.374C198.025 579.72 202.56 591.623 202.705 597.531M165.437 593.208C164.824 595.436 164.479 598.373 164.847 601.421M127.736 589.317H139.87L154.892 566.838M208.772 577.213V572.025C205.218 561.155 189.862 554.24 175.837 550.4M208.772 577.213H198.371M208.772 577.213C209.638 579.806 211.285 585.426 210.938 587.156M210.938 587.156H198.837M210.938 587.156C212.238 588.597 217.092 592.689 213.972 597.531H202.705M202.705 597.531C200.971 613.785 189.56 617.272 184.071 616.984C170.303 616.02 165.693 608.425 164.847 601.421M164.847 601.421H82.6683M82.6683 601.421C83.535 594.649 80.9349 580.844 63.6011 579.806C57.8232 580.527 46.1806 584.994 45.834 597.098M82.6683 601.421C79.8949 615.255 67.0679 617.272 61.001 616.552C55.8009 615.111 45.4873 609.203 45.834 597.098M45.834 597.098H40.2005M40.2005 597.098H26.3334C24.0223 595.657 20.44 591.478 24.6001 586.291H30.2336M40.2005 597.098V586.291H30.2336M146.803 486.863L168.471 548.619M146.803 486.863H153.303M168.471 548.619C164.752 547.836 161.33 547.287 158.504 546.952L157.204 563.379L154.892 566.838M168.471 548.619C170.832 549.116 173.313 549.708 175.837 550.4M175.837 550.4L153.303 486.863M154.892 566.838L149.837 562.082L152.551 559.056M157.204 553.869L156.428 554.733M152.551 559.056L134.236 538.306M152.551 559.056L156.428 554.733M134.236 538.306C130.625 541.476 123.749 546.693 125.136 542.197C126.869 536.577 138.136 525.769 142.037 525.337C145.112 524.996 142.529 530.233 138.112 534.848M134.236 538.306C135.611 537.278 136.927 536.085 138.112 534.848M138.112 534.848L156.428 554.733M113.002 564.676H98.2687C94.6346 563.523 91.1841 562.127 88.3018 560.826M113.002 564.676C111.558 559.344 107.369 548.335 102.169 546.952C100.763 546.578 98.7863 546.364 96.5353 546.262M78.1201 546.952C82.3879 546.531 90.4615 545.988 96.5353 546.262M96.5353 546.262L98.2687 552.14M98.2687 552.14C95.0908 552.743 88.6484 555.325 88.3018 560.826" stroke="#1F4E2C" stroke-width="4"/>
</svg>
