<svg width="1391" height="710" viewBox="0 0 1391 710" fill="none" xmlns="http://www.w3.org/2000/svg">
<rect width="1391" height="710" rx="79" fill="black"/>
<rect width="1391" height="710" rx="79" fill="black"/>
<path d="M288.958 630.756V605.902H130V568.786V463.238V357.691V314.61L290.613 315.604V301.023L299.886 289.756V314.61H595.945V357.691V568.786V605.902H299.886V618.826L288.958 630.756Z" fill="#C87C62"/>
<path d="M288.958 605.902V630.756L299.886 618.826V605.902M288.958 605.902L290.613 315.604M288.958 605.902H130V568.786M299.886 605.902H595.945V568.786M299.886 605.902V314.61M299.886 314.61H595.945V357.691M299.886 314.61V289.756L290.613 301.023V315.604M290.613 315.604L290.373 357.691H130M290.613 315.604L130 314.61V357.691M290.613 568.786H130M299.886 568.786H453.545M595.945 568.786H453.545M595.945 568.786V357.691M453.545 568.786V463.238M595.945 357.691H299.886H453.545V463.238M453.545 463.238H299.886M290.613 463.238H130M130 463.238V357.691M130 463.238V568.786" stroke="white" stroke-width="4"/>
<path d="M575.981 199.705C574.418 205.787 574.936 219.843 589.51 227.412C591.525 221.345 591.64 207.309 575.981 199.705Z" fill="#AED385"/>
<path d="M601.535 178.62C589.564 175.982 582.627 184.318 580.655 188.816C595.904 194.786 603.577 222.827 601.583 229.268C614.456 231.564 620.867 223.427 622.463 219.072C607.45 212.79 599.639 184.931 601.535 178.62Z" fill="#AED385"/>
<path d="M615.508 182.406C621.156 184.524 631.61 192.707 628.248 208.497C622.35 206.28 611.544 197.958 615.508 182.406Z" fill="#AED385"/>
<path d="M575.981 199.705C574.418 205.787 574.936 219.843 589.51 227.412C591.525 221.345 591.64 207.309 575.981 199.705Z" stroke="#AED385" stroke-width="6"/>
<path d="M601.535 178.62C589.564 175.982 582.627 184.318 580.655 188.816C595.904 194.786 603.577 222.827 601.583 229.268C614.456 231.564 620.867 223.427 622.463 219.072C607.45 212.79 599.639 184.931 601.535 178.62Z" stroke="#AED385" stroke-width="6"/>
<path d="M615.508 182.406C621.156 184.524 631.61 192.707 628.248 208.497C622.35 206.28 611.544 197.958 615.508 182.406Z" stroke="#AED385" stroke-width="6"/>
<path d="M536.552 124.815C530.437 126.244 518.216 133.208 518.249 149.63C524.561 148.609 537.057 142.216 536.552 124.815Z" fill="#AED385"/>
<path d="M567.068 137.712C563.867 125.879 553.267 123.587 548.367 123.92C550.132 140.201 528.824 159.979 522.191 161.191C526.112 173.666 536.292 175.584 540.892 174.984C539.514 158.767 560.596 138.951 567.068 137.712Z" fill="#AED385"/>
<path d="M570.178 151.851C570.913 157.838 568.497 170.892 552.943 175.218C552.179 168.964 554.557 155.533 570.178 151.851Z" fill="#AED385"/>
<path d="M536.552 124.815C530.437 126.244 518.216 133.208 518.249 149.63C524.561 148.609 537.057 142.216 536.552 124.815Z" stroke="#AED385" stroke-width="6"/>
<path d="M567.068 137.712C563.867 125.879 553.267 123.587 548.367 123.92C550.132 140.201 528.824 159.979 522.191 161.191C526.112 173.666 536.292 175.584 540.892 174.984C539.514 158.767 560.596 138.951 567.068 137.712Z" stroke="#AED385" stroke-width="6"/>
<path d="M570.178 151.851C570.913 157.838 568.497 170.892 552.943 175.218C552.179 168.964 554.557 155.533 570.178 151.851Z" stroke="#AED385" stroke-width="6"/>
<path d="M504.397 215.699C500.324 220.478 494.622 233.337 504.397 246.533C508.87 241.965 515.132 229.403 504.397 215.699Z" fill="#AED385"/>
<path d="M536.612 207.965C527.011 200.342 517.12 204.789 513.375 207.965C524.459 220.021 519.05 248.585 514.431 253.498C524.992 261.21 534.323 256.711 537.668 253.498C526.934 241.265 532.139 212.804 536.612 207.965Z" fill="#AED385"/>
<path d="M547.506 217.498C551.652 221.879 557.456 233.82 547.506 246.533C543.179 241.953 537.121 229.733 547.506 217.498Z" fill="#AED385"/>
<path d="M504.397 215.699C500.324 220.478 494.622 233.337 504.397 246.533C508.87 241.965 515.132 229.403 504.397 215.699Z" stroke="#AED385" stroke-width="6"/>
<path d="M536.612 207.965C527.011 200.342 517.12 204.789 513.375 207.965C524.459 220.021 519.05 248.585 514.431 253.498C524.992 261.21 534.323 256.711 537.668 253.498C526.934 241.265 532.139 212.804 536.612 207.965Z" stroke="#AED385" stroke-width="6"/>
<path d="M547.506 217.498C551.652 221.879 557.456 233.82 547.506 246.533C543.179 241.953 537.121 229.733 547.506 217.498Z" stroke="#AED385" stroke-width="6"/>
<path d="M482.573 504.344L499.249 498.078M482.573 504.344C481.52 511.101 483.993 521.887 502.314 510.978C504.788 508.825 507.637 503.231 499.249 498.078M482.573 504.344L478.17 491.78M499.249 498.078C497.935 496.933 493.378 486.089 487.601 471.33M449.5 398.713L445.862 389.225M445.862 389.225L454.543 386.152M445.862 389.225C441.96 382.13 436.684 376.74 431.43 372.793M454.543 386.152L457.05 394.026M454.543 386.152C452.535 378.13 450.334 360.211 457.6 352.713M457.6 352.713C456.347 354.425 454.998 355.941 453.575 357.278M457.6 352.713C459.357 350.9 462.407 346.109 465.544 339.275M422.011 215.14C417.094 213.545 410.872 212.716 403.998 213.485M422.011 215.14L465.544 339.275M422.011 215.14C424.998 216.469 427.835 217.854 430.527 219.292M414.515 364.239C417.551 365.278 421.919 366.204 426.85 366.383M414.515 364.239C407.484 362.814 400.57 360.112 394.018 356.393M414.515 364.239C417.307 364.925 421.621 366.57 426.344 369.383M352.056 259.618C353.202 256.452 354.624 253.329 356.338 250.267C358.367 246.644 360.471 243.345 362.63 240.347M352.056 259.618L387.207 352.072M352.056 259.618C350.017 265.247 348.847 271.009 348.442 276.797M352.056 259.618L444.189 227.891M387.207 352.072C389.425 353.632 391.699 355.076 394.018 356.393M387.207 352.072C384.972 350.5 382.793 348.81 380.683 347.013M406.76 360.042L362.63 240.347M362.63 240.347C366.67 234.736 370.904 230.177 375.206 226.511M362.63 240.347L430.527 219.292M375.206 226.511L426.85 366.383M375.206 226.511C379.292 223.028 383.439 220.351 387.54 218.343M426.85 366.383C431.112 366.537 435.795 366.132 440.405 364.76M440.405 364.76L387.54 218.343M440.405 364.76C445.035 363.381 449.592 361.026 453.575 357.278M387.54 218.343C393.21 215.566 398.791 214.067 403.998 213.485M403.998 213.485L453.575 357.278M465.544 339.275C467.036 336.026 468.547 332.315 469.949 328.244M444.189 227.891L473.308 316.715M444.189 227.891C448.794 231.313 452.803 234.926 456.279 238.681M444.189 227.891C440.115 224.864 435.575 221.987 430.527 219.292M473.308 316.715C472.333 320.792 471.183 324.658 469.949 328.244M473.308 316.715C473.614 315.435 473.904 314.135 474.173 312.815M394.018 356.393L469.949 328.244M380.683 347.013L474.173 312.815M380.683 347.013C376.654 343.584 372.873 339.767 369.417 335.646M474.173 312.815C475.083 308.355 475.767 303.682 476.118 298.877M369.417 335.646L476.118 298.877M369.417 335.646C365.812 331.347 362.56 326.716 359.749 321.845M476.118 298.877C476.555 292.891 476.477 286.7 475.677 280.464M359.749 321.845L475.677 280.464M359.749 321.845C357.118 317.287 354.873 312.52 353.085 307.619M475.677 280.464C474.973 274.962 473.707 269.425 471.74 263.962M353.085 307.619L471.74 263.962M353.085 307.619C351.263 302.626 349.916 297.494 349.119 292.303M471.74 263.962C469.876 258.782 467.381 253.669 464.137 248.715M349.119 292.303L464.137 248.715M349.119 292.303C348.33 287.166 348.08 281.971 348.442 276.797M464.137 248.715C461.89 245.284 459.284 241.929 456.279 238.681M348.442 276.797L456.279 238.681M462.062 403.153C461.079 400.45 460.149 397.887 459.287 395.5L446.332 400.933L457.679 433.309M462.062 403.153C463.149 415.032 463.793 437.692 457.679 433.309M462.062 403.153C465.953 413.847 470.689 426.727 475.468 439.504M457.679 433.309L468.178 463.269M475.468 439.504C475.555 448.471 474.218 465.779 468.178 463.269M475.468 439.504C479.658 450.706 483.882 461.829 487.601 471.33M468.178 463.269L478.17 491.78M487.601 471.33C486.478 478.938 483.02 493.679 478.17 491.78M431.43 372.793C403.643 356.367 376.558 372.774 346.969 299.61C341.144 272.394 345.01 244.407 380.135 219.8C391.439 211.88 411.106 199.908 440.512 222.642C452.214 230.874 471.897 249.407 477.397 272.036C483.245 296.1 476.57 327.386 457.077 359.7C452.317 364.551 439.505 373.279 426.344 369.383M431.43 372.793C429.716 371.506 428.005 370.372 426.344 369.383" stroke="white" stroke-width="4"/>
<path d="M437.173 492.644L448.243 506.6M437.173 492.644C430.418 493.709 420.907 499.366 436.902 513.467C439.708 515.163 445.906 516.163 448.243 506.6M437.173 492.644L447.786 484.605M448.243 506.6C448.931 504.998 457.859 497.34 470.141 487.322M527.604 428.817L535.524 422.448M535.524 422.448L541.106 429.772M535.524 422.448C541.083 416.561 544.599 409.889 546.747 403.678M541.106 429.772L534.378 434.569M541.106 429.772C548.128 425.404 564.512 417.822 573.875 422.444M573.875 422.444C571.862 421.775 570.006 420.955 568.297 420.01M573.875 422.444C576.139 423.561 581.634 424.998 589.1 425.892M693.945 346.442C693.958 341.273 692.842 335.096 690.006 328.788M693.945 346.442L589.1 425.892M693.945 346.442C693.595 349.693 693.144 352.818 692.6 355.821M549.711 384.957C549.652 388.166 550.107 392.607 551.448 397.356M549.711 384.957C548.915 377.827 549.37 370.418 550.905 363.042M549.711 384.957C549.913 387.825 549.668 392.435 548.436 397.793M630.184 293.465C633.549 293.587 636.958 293.984 640.398 294.679C644.468 295.501 648.252 296.493 651.768 297.631M630.184 293.465L552.933 355.235M630.184 293.465C624.202 293.247 618.358 293.897 612.724 295.284M630.184 293.465L688.596 371.459M552.933 355.235C552.127 357.824 551.448 360.431 550.905 363.042M552.933 355.235C553.745 352.626 554.687 350.035 555.751 347.475M551.332 376.289L651.768 297.631M651.768 297.631C658.346 299.759 663.982 302.394 668.79 305.366M651.768 297.631L692.6 355.821M668.79 305.366L551.448 397.356M668.79 305.366C673.356 308.19 677.174 311.318 680.342 314.607M551.448 397.356C552.606 401.46 554.424 405.794 557.143 409.763M557.143 409.763L680.342 314.607M557.143 409.763C559.873 413.748 563.51 417.366 568.297 420.01M680.342 314.607C684.721 319.155 687.857 324.009 690.006 328.788M690.006 328.788L568.297 420.01M589.1 425.892C592.65 426.317 596.645 426.62 600.951 426.708M688.596 371.459L612.954 426.376M688.596 371.459C686.749 376.891 684.538 381.814 682.026 386.272M688.596 371.459C690.231 366.654 691.58 361.452 692.6 355.821M612.954 426.376C608.774 426.695 604.742 426.785 600.951 426.708M612.954 426.376C614.266 426.275 615.593 426.152 616.931 426.005M550.905 363.042L600.951 426.708M555.751 347.475L616.931 426.005M555.751 347.475C557.783 342.59 560.258 337.822 563.124 333.27M616.931 426.005C621.456 425.506 626.114 424.726 630.795 423.589M563.124 333.27L630.795 423.589M563.124 333.27C566.112 328.522 569.525 324.008 573.301 319.841M630.795 423.589C636.628 422.172 642.498 420.202 648.19 417.532M573.301 319.841L648.19 417.532M573.301 319.841C576.835 315.941 580.686 312.344 584.804 309.141M648.19 417.532C653.211 415.177 658.095 412.276 662.694 408.732M584.804 309.141L662.694 408.732M584.804 309.141C589 305.878 593.473 303.025 598.17 300.677M662.694 408.732C667.054 405.371 671.158 401.43 674.881 396.825M598.17 300.677L674.881 396.825M598.17 300.677C602.819 298.353 607.687 296.524 612.724 295.284M674.881 396.825C677.459 393.636 679.855 390.128 682.026 386.272M612.724 295.284L682.026 386.272M527.224 442.135C529.496 440.372 531.651 438.702 533.659 437.15L524.522 426.481L497.174 447.195M527.224 442.135C516.249 446.806 494.873 454.358 497.174 447.195M527.224 442.135C518.235 449.114 507.423 457.565 496.723 466.027M497.174 447.195L471.868 466.364M496.723 466.027C488.213 468.855 471.328 472.882 471.868 466.364M496.723 466.027C487.342 473.446 478.047 480.873 470.141 487.322M471.868 466.364L447.786 484.605M470.141 487.322C462.555 488.582 447.463 489.803 447.786 484.605M546.747 403.678C553.876 372.197 529.965 351.435 590.556 300.867C614.681 286.989 642.508 282.1 676.687 308.004C687.688 316.341 705.107 331.398 692.467 366.352C688.215 380.013 676.598 404.424 656.739 416.588C635.622 429.524 603.795 432.748 567.064 424.085C560.989 421.039 548.757 411.515 548.436 397.793M546.747 403.678C547.448 401.653 548.003 399.677 548.436 397.793" stroke="white" stroke-width="4"/>
</svg>
