<svg width="1391" height="710" viewBox="0 0 1391 710" fill="none" xmlns="http://www.w3.org/2000/svg">
<rect width="1391" height="710" rx="79" fill="black"/>
<path d="M608.267 326.828C511.731 309.083 279.678 394.632 215.745 425.554C-4.11183 517.078 249.317 633.415 433.137 627.955C616.956 622.495 597.971 512.624 759.447 439.313C856.226 395.375 728.937 349.008 608.267 326.828Z" fill="#86AB5D"/>
<path d="M761.042 166.976C740.115 181.811 664.294 141.84 629 120L636.474 277C686.717 234.144 781.97 152.142 761.042 166.976Z" fill="#998FAA"/>
<path d="M643.948 434L636.474 277M636.474 277L629 120C664.294 141.84 740.115 181.811 761.042 166.976C781.97 152.142 686.717 234.144 636.474 277Z" stroke="#827598" stroke-width="6"/>
<path d="M634.437 431.36C627.856 434.926 622.994 457.789 646.281 450.616C671.286 442.913 646.281 424.94 634.437 431.36Z" fill="black" stroke="black"/>
<path d="M137.294 369.504V262.812H123.721C121.61 254.976 118.654 239.123 123.721 238.399C128.788 237.676 251.306 238.098 311.932 238.399C334.553 240.208 376.72 247.622 364.413 262.812H338.173L385.225 395.702C414.51 403.735 446.575 418.197 453.995 440.933V451.783C455.804 457.208 459.243 468.962 458.519 472.579C461.233 475.593 471.368 484.152 464.853 494.279H441.327C437.707 528.276 413.879 535.569 402.418 534.966C373.669 532.951 364.043 517.065 362.277 502.416H190.68C184.889 531.35 158.105 535.569 145.437 534.062C134.579 531.048 113.043 518.691 113.767 493.375H102.004H73.0486C68.2227 490.361 60.7425 481.621 69.4292 470.77H81.1923L89.3361 433.7L105.624 422.85V369.504H110.148L95.8908 335.145C89.3361 356.845 73.3164 353.831 64 341.474L94.7652 332.433L95.8908 335.145L110.148 369.504H123.721L99.8325 309.828C84.3413 334.422 69.4895 320.076 64 309.828L98.3847 306.212L99.8325 309.828L123.721 369.504H137.294Z" fill="#E5DFCD"/>
<path d="M137.294 369.504V262.812M137.294 262.812H123.721C121.61 254.976 118.654 239.123 123.721 238.399C128.788 237.676 251.306 238.098 311.932 238.399C334.553 240.208 376.72 247.622 364.413 262.812H338.173M137.294 262.812H150.867M150.867 262.812V369.504H158.105M150.867 262.812H173.488M158.105 369.504H123.721M158.105 369.504V410.191M98.3847 369.504H105.624M105.624 369.504V422.85M105.624 369.504H110.148M105.624 422.85C118.292 417.726 144.533 410.191 158.105 410.191M105.624 422.85L89.3361 433.7L81.1923 470.77M158.105 410.191H187.966M123.721 369.504L99.8325 309.828M123.721 369.504H110.148M99.8325 309.828L98.3847 306.212L64 309.828C69.4895 320.076 84.3413 334.422 99.8325 309.828ZM110.148 369.504L95.8908 335.145M95.8908 335.145L94.7652 332.433L64 341.474C73.3164 353.831 89.3361 356.845 95.8908 335.145ZM173.488 262.812V335.145M173.488 262.812H187.966M173.488 335.145C174.393 333.94 178.555 331.348 187.966 330.624M173.488 335.145C171.983 339.657 171.98 356.052 181.183 388.491M187.966 330.624V262.812M187.966 330.624C208.959 327.008 217.826 366.734 219.636 387.049M187.966 262.812H324.6M187.966 410.191C185.285 402.278 183.046 395.056 181.183 388.491M187.966 410.191C190.65 411.769 195.831 414.52 202.444 417.509M284.786 425.562V477.1M284.786 425.562H254.021M284.786 425.562C292.749 402.415 281.468 398.437 274.832 399.341H223.255M284.786 485.237L188.871 485.742L363.509 485.237M284.786 485.237H363.509M284.786 485.237V477.1M363.509 485.237C365.68 463.537 386.13 456.907 396.084 456.304C431.554 457.027 441.025 481.922 441.327 494.279M363.509 485.237C362.228 489.899 361.508 496.04 362.277 502.416M284.786 477.1H310.122L341.49 430.083M453.995 451.783V440.933C446.575 418.197 414.51 403.735 385.225 395.702M453.995 451.783H432.278M453.995 451.783C455.804 457.208 459.243 468.962 458.519 472.579M458.519 472.579H433.25M458.519 472.579C461.233 475.593 471.368 484.152 464.853 494.279H441.327M441.327 494.279C437.707 528.276 413.879 535.569 402.418 534.966C373.669 532.951 364.043 517.065 362.277 502.416M362.277 502.416H190.68M190.68 502.416C192.49 488.251 187.061 459.378 150.867 457.208C138.802 458.715 114.491 468.058 113.767 493.375M190.68 502.416C184.889 531.35 158.105 535.569 145.437 534.062C134.579 531.048 113.043 518.691 113.767 493.375M113.767 493.375H102.004M102.004 493.375H73.0486C68.2227 490.361 60.7425 481.621 69.4292 470.77H81.1923M102.004 493.375V470.77H81.1923M324.6 262.812L369.843 391.978M324.6 262.812H338.173M369.843 391.978C362.077 390.34 354.932 389.192 349.031 388.491L346.316 422.85L341.49 430.083M369.843 391.978C374.773 393.018 379.954 394.256 385.225 395.702M385.225 395.702L338.173 262.812M341.49 430.083L330.934 420.137L336.601 413.808M346.316 402.958L344.697 404.766M336.601 413.808L298.359 370.408M336.601 413.808L344.697 404.766M298.359 370.408C290.818 377.038 276.461 387.949 279.357 378.545C282.976 366.791 306.502 344.187 314.646 343.283C321.068 342.57 315.674 353.523 306.451 363.174M298.359 370.408C301.229 368.257 303.977 365.762 306.451 363.174M306.451 363.174L344.697 404.766M254.021 425.562H223.255C215.667 423.149 208.462 420.23 202.444 417.509M254.021 425.562C251.004 414.411 242.257 391.384 231.399 388.491C228.463 387.709 224.336 387.261 219.636 387.049M181.183 388.491C190.095 387.612 206.953 386.475 219.636 387.049M219.636 387.049L223.255 399.341M223.255 399.341C216.62 400.603 203.167 406.004 202.444 417.509" stroke="#1F4E2C" stroke-width="4"/>
<path d="M483.676 327.778V298.814C485.285 297.541 487.016 296.476 488.839 295.593V233.643C465.709 225.368 465.434 219.85 468.187 218.126C508.665 213.161 498.821 226.402 488.839 233.643V295.593C493.849 293.168 499.559 292.125 505.361 291.978C506.342 291.953 507.325 291.954 508.308 291.978L505.361 212.954C502.608 202.954 502.47 185.644 523.948 196.402C519.473 200.195 509.491 208.815 505.361 212.954L508.308 291.978C510.435 292.03 512.56 292.191 514.654 292.437L519.818 229.505C518.097 219.505 519.404 202.195 538.404 212.954C541.502 214.333 542.122 219.574 519.818 229.505L514.654 292.437C517.861 292.814 520.994 293.391 523.948 294.082L530.144 250.194C529.455 239.16 532.829 220.402 551.828 233.643C552.257 235.367 548.52 241.091 530.144 250.194L523.948 294.082C529.718 295.433 534.801 297.221 538.404 298.814V309.158C564.839 341.433 549.419 371.57 538.404 382.605V437.431C531.033 440.641 522.698 441.88 514.654 441.992C511.486 442.036 508.363 441.905 505.361 441.651C496.34 440.889 488.419 439.014 483.676 437.431V327.778Z" fill="#E5DFCD"/>
<path d="M483.676 327.778V298.814C485.285 297.541 487.016 296.476 488.839 295.593M483.676 327.778V437.431C488.419 439.014 496.34 440.889 505.361 441.651M483.676 327.778C490.56 321.572 511.144 312.882 538.404 327.778M538.404 327.778V382.605M538.404 327.778V309.158M514.654 292.437V441.992M514.654 292.437C512.56 292.191 510.435 292.03 508.308 291.978M514.654 292.437L519.818 229.505M514.654 292.437C517.861 292.814 520.994 293.391 523.948 294.082M514.654 441.992C522.698 441.88 531.033 440.641 538.404 437.431V382.605M514.654 441.992C511.486 442.036 508.363 441.905 505.361 441.651M505.361 441.651V291.978M505.361 291.978C499.559 292.125 493.849 293.168 488.839 295.593M505.361 291.978C506.342 291.953 507.325 291.954 508.308 291.978M538.404 382.605C549.419 371.57 564.839 341.433 538.404 309.158M538.404 309.158V298.814C534.801 297.221 529.718 295.433 523.948 294.082M488.839 295.593V233.643M488.839 233.643C498.821 226.402 508.665 213.161 468.187 218.126C465.434 219.85 465.709 225.368 488.839 233.643ZM508.308 291.978L505.361 212.954M505.361 212.954C502.608 202.954 502.47 185.644 523.948 196.402C519.473 200.195 509.491 208.815 505.361 212.954ZM519.818 229.505C518.097 219.505 519.404 202.195 538.404 212.954C541.502 214.333 542.122 219.574 519.818 229.505ZM523.948 294.082L530.144 250.194M530.144 250.194C529.455 239.16 532.829 220.402 551.828 233.643C552.257 235.367 548.52 241.091 530.144 250.194Z" stroke="#1F4E2C" stroke-width="4"/>
</svg>
