<svg width="268" height="236" viewBox="0 0 268 236" fill="none" xmlns="http://www.w3.org/2000/svg">
<rect width="268" height="236" rx="79" fill="black"/>
<path d="M108.284 202.201C122.747 200.423 163.315 184.943 169.345 170.595C191.062 128.077 134.206 126.985 106.684 154.414C89.7616 171.279 40.2798 153.311 33.3227 181.102C26.3655 208.893 95.8521 203.729 108.284 202.201Z" fill="#E5DFCD"/>
<path d="M142.048 101.575C145.923 104.598 159.964 96.4514 166.5 92L165.116 124C155.812 115.265 138.172 98.5512 142.048 101.575Z" fill="#998FAA"/>
<path d="M163.732 156L165.116 124M165.116 124L166.5 92C159.964 96.4514 145.923 104.598 142.048 101.575C138.172 98.5512 155.812 115.265 165.116 124Z" stroke="#64567B" stroke-width="2"/>
<path d="M162.471 156.185C161.296 156.672 160.428 159.789 164.586 158.811C169.051 157.761 164.586 155.31 162.471 156.185Z" fill="black" stroke="black"/>
<path d="M63.531 146.824C58.1795 147.35 48.9545 145.036 54.8666 131.57C52.2334 126.924 49.3114 117.105 58.6894 115.001C58.6894 103.166 76.0183 92.9094 79.586 115.001C84.3429 116.404 91.5122 121.681 82.1343 131.57C85.6172 136.655 88.8113 146.824 73.7248 146.824L73.8686 150.506L74.3413 162.604H84.6827C84.9087 162.861 85.1589 163.223 85.3659 163.656C86.431 163.402 87.9193 163.134 89.2697 163.054L92.5308 129.991L92.5825 129.466C93.5169 125.697 96.7618 119.157 102.266 123.154C107.771 127.152 98.0694 129.378 92.5308 129.991L89.2697 163.054C91.1843 162.942 92.8216 163.211 92.5825 164.445C92.3156 165.823 90.2633 166.564 88.2503 166.924C87.1886 167.115 86.1379 167.199 85.3659 167.215C85.1964 167.523 84.972 167.828 84.6827 168.127H74.5571L74.9989 179.436H71.4313L71.9409 188.115H77.2925V190.219H69.9023L69.1377 179.436H66.8442L65.3152 190.219H58.6894V188.115H63.0217L64.8056 179.436H58.6894L61.7704 161.026C59.7241 160.763 55.2747 160.711 53.8476 162.604C52.4205 164.498 56.9906 166.023 59.454 166.549L58.9673 170.734C59.1996 171.513 58.9726 172.473 58.6894 173.124L58.9673 170.734C58.7304 169.94 58.0157 169.336 56.396 169.442C52.386 169.705 50.0252 167.215 49.5155 162.078C49.0058 156.941 61.2379 157.344 62.3866 157.344L63.531 150.506V146.824Z" fill="#998FAA"/>
<path d="M63.531 150.506H73.8686M63.531 150.506V146.824C58.1795 147.35 48.9545 145.036 54.8666 131.57C52.2334 126.924 49.3114 117.105 58.6894 115.001C58.6894 103.166 76.0183 92.9094 79.586 115.001C84.3429 116.404 91.5122 121.681 82.1343 131.57C85.6172 136.655 88.8113 146.824 73.7248 146.824L73.8686 150.506M63.531 150.506L62.3866 157.344M73.8686 150.506L74.3413 162.604M64.2959 115.264V117.631M74.2344 115.264V117.631M63.531 136.041C65.4849 137.715 70.7177 140.059 76.0183 136.041M74.3413 162.604H84.6827C84.9087 162.861 85.1589 163.223 85.3659 163.656M74.3413 162.604L74.5571 168.127M74.5571 168.127L74.9989 179.436H71.4313M74.5571 168.127H84.6827C84.972 167.828 85.1964 167.523 85.3659 167.215M85.3659 163.656C85.8261 164.619 86.0727 165.933 85.3659 167.215M85.3659 163.656C86.431 163.402 87.9193 163.134 89.2697 163.054M85.3659 167.215C86.1379 167.199 87.1886 167.115 88.2503 166.924M84.6827 190.219L88.2503 166.924M88.2503 166.924C90.2633 166.564 92.3156 165.823 92.5825 164.445C92.8216 163.211 91.1843 162.942 89.2697 163.054M89.2697 163.054L92.5308 129.991M92.5308 129.991L92.5825 129.466C93.5169 125.697 96.7618 119.157 102.266 123.154C107.771 127.152 98.0694 129.378 92.5308 129.991ZM64.8056 179.436H58.6894L61.7704 161.026M64.8056 179.436L63.0217 188.115H58.6894V190.219H65.3152L66.8442 179.436M64.8056 179.436H66.8442M66.8442 179.436H71.4313M69.1377 179.436L69.9023 190.219H77.2925V188.115H71.9409L71.4313 179.436M62.3866 157.344C61.2379 157.344 49.0058 156.941 49.5155 162.078C50.0252 167.215 52.386 169.705 56.396 169.442C59.6039 169.232 59.2616 171.809 58.6894 173.124L59.454 166.549C56.9906 166.023 52.4205 164.498 53.8476 162.604C55.2747 160.711 59.7241 160.763 61.7704 161.026M62.3866 157.344L61.7704 161.026M72.7054 129.466C71.5162 128.239 68.1694 126.521 64.2959 129.466C65.74 130.957 69.4436 133.043 72.7054 129.466Z" stroke="black" stroke-width="1.5"/>
<path d="M96.2404 180.466L95.5 176.105C95.5567 175.193 95.7096 174.319 95.9453 173.489C98.5929 164.166 111.674 160.509 115.751 173.053C116.053 173.981 116.305 174.997 116.5 176.105L115.908 179.303L115.692 180.466L115.315 182.501L114.938 184.535L114.238 188.314L113.7 191.221L113.431 192.675L113.269 193.546L113 195H110.667H107.75H103.958H101.333H98.7083L98.3135 192.675L97.5731 188.314L97.4743 187.733L96.9314 184.535L96.2404 180.466Z" fill="#E5DFCD"/>
<path d="M95.5 176.105L96.2404 180.466M95.5 176.105H95.7917M95.5 176.105C95.5567 175.193 95.7096 174.319 95.9453 173.489M116.5 176.105L115.908 179.303M116.5 176.105C116.305 174.997 116.053 173.981 115.751 173.053M116.5 176.105L116.208 176.105M96.2404 180.466C96.2404 180.466 96.6615 182.946 96.9314 184.535M96.2404 180.466H96.6667H102.792M115.692 180.466H109.792M115.692 180.466L115.315 182.501M115.692 180.466L115.908 179.303M114.938 184.535L114.238 188.314M114.938 184.535L115.315 182.501M114.938 184.535C114.938 184.535 112.793 184.535 109.792 184.535M96.9314 184.535C97.1035 185.549 97.3419 186.953 97.4743 187.733M96.9314 184.535C100.854 184.535 106.005 184.535 109.792 184.535M114.238 188.314H97.5731M114.238 188.314L113.7 191.221M97.5731 188.314L98.3135 192.675M97.5731 188.314C97.5731 188.314 97.5347 188.088 97.4743 187.733M98.3135 192.675L98.7083 195H101.333M98.3135 192.675H107.75M113.431 192.675L113.7 191.221M113.431 192.675L113.269 193.546M113.431 192.675H107.75M110.667 195H113L113.269 193.546M110.667 195H107.75M110.667 195L113.133 178.14L113.431 176.105M113.431 176.105H108.917M113.431 176.105L116.208 176.105M107.75 195H103.958M107.75 195L107.84 193.546M108.917 176.105H103.958M108.917 176.105L108.414 184.245M103.958 195H101.333M103.958 195V190.058M103.958 176.105C102.111 176.009 99.2917 176.745 102.792 180.466M103.958 176.105V185.117M103.958 176.105H101.333M103.958 176.105C106.746 176.105 107.484 178.463 105.708 179.827M101.333 195L99.4664 177.722M99.2917 176.105H95.7917M99.2917 176.105H101.333M99.2917 176.105L99.4664 177.722M105.301 171.164C105.15 170.956 104.992 170.76 104.833 170.582C102.044 169.714 100.817 171.234 100.718 172.908M105.301 171.164C106.677 169.42 109.909 167.21 111.833 172.326M105.301 171.164C105.686 171.694 106.021 172.306 106.171 172.908M111.833 172.326C110.878 174.167 108.408 176.861 106.171 172.908M111.833 172.326C112.695 171.939 114.686 171.542 115.751 173.053M106.171 172.908C106.541 174.391 105.792 175.815 101.917 175.815C101.095 175.23 100.652 174.034 100.718 172.908M103.958 190.058C102.403 189.283 99.175 188.663 98.7083 192.384C99.1944 193.546 100.808 195.639 103.375 194.709M103.958 190.058V185.117M108.037 190.349L107.956 191.657L107.876 192.965M108.037 190.349C108.138 190.253 108.25 190.155 108.371 190.058M108.037 190.349L108.414 184.245M113.7 191.221C112.96 189.602 111.95 189.047 110.958 189.034M113.269 193.546C110.33 196.453 106.875 192.384 107.84 193.546M107.75 192.675C108.023 190.116 107.947 191.802 107.876 192.965M107.876 192.965L107.84 193.546M102.792 180.466H109.792M102.792 180.466C103.569 179.11 100.782 177.626 98.7083 177.989M103.958 185.117C103.109 187.151 102.802 190.988 108.371 190.058M103.958 185.117C99.2917 181.813 97.6912 185.484 97.4743 187.733M108.371 190.058C109.038 189.526 109.99 189.022 110.958 189.034M109.792 180.466C109.877 182.501 111.101 185.756 115.315 182.501M109.792 180.466C109.967 179.572 110.649 178.371 112.125 178.172M115.908 179.303C115.148 178.841 114.473 178.537 113.875 178.356M95.7917 176.105C95.9861 176.78 96.8417 178.1 98.7083 177.989M98.7083 177.989C97.6691 178.17 96.809 178.816 96.6667 180.175C96.2404 184.245 102.792 184.245 102.792 180.756C104.104 180.679 105.069 180.317 105.708 179.827M101.333 176.105C101.158 176.699 100.539 177.853 99.4664 177.722M100.718 172.908C99.5674 172.326 97.0015 171.629 95.9453 173.489M95.9453 173.489C98.5929 164.166 111.674 160.509 115.751 173.053M109.792 174.652C109.694 175.739 110.025 177.966 112.125 178.172M112.125 178.172C112.617 178.106 113.196 178.152 113.875 178.356M113.875 178.356C114.847 177.897 116.675 176.803 116.208 176.105M105.708 179.827C107.901 180.137 111.512 181.454 108.414 184.245M110.958 189.034C109.087 188.407 106.875 186.279 109.792 184.535" stroke="black"/>
</svg>
