<svg width="268" height="236" viewBox="0 0 268 236" fill="none" xmlns="http://www.w3.org/2000/svg">
<rect width="268" height="236" rx="79" fill="black"/>
<path d="M108.284 202.201C122.747 200.423 163.315 184.943 169.345 170.595C191.062 128.077 134.206 126.985 106.684 154.414C89.7616 171.279 40.2798 153.311 33.3227 181.102C26.3655 208.893 95.8521 203.729 108.284 202.201Z" fill="#E5DFCD"/>
<path d="M58.2062 117.245C60.037 112.532 64.866 105.935 69.5347 117.245C72.0521 112.647 77.8423 106.211 80.8632 117.245V123.451V124.949C81.2555 124.225 81.6074 123.495 82.2355 122.417L80.8632 124.949V154.14C80.3067 154.699 79.652 155.285 78.9178 155.864C80.8304 157.128 84.5167 160.829 83.9607 165.518C86.2629 159.272 89.6756 150.978 91.8479 145.864C96.196 156.898 100.224 177.932 81.5492 173.794C82.098 175.449 81.3205 176.782 80.8632 177.242H77.0864C77.5805 180.125 77.5805 181.133 77.0864 183.449C80.3815 185.38 81.7155 188.621 81.9706 190H66.4446H50.3099C50.3673 187.816 51.5461 183.449 55.8028 183.449C55.2538 182.621 55.5741 178.966 55.8028 177.242H52.713C52.713 174.684 53.7429 170.576 55.8028 168.622C54.6587 169.311 51.7523 170.415 49.2807 169.311C48.3551 168.898 47.9783 167.989 47.9232 166.898C47.2556 166.898 44.131 167.932 43.1012 164.139C42.9518 163.589 42.9656 163.174 43.1012 162.869V145.864C36.9217 144.83 31.4291 138.968 39.668 139.313C46.2591 139.588 44.7031 143.795 43.1012 145.864V162.869C43.7136 161.491 46.8115 162.352 48.5907 163.105C48.8102 162.454 49.0553 161.858 49.2807 161.381L58.2062 159.312V154.14V125.52V124.486V122.762V117.245Z" fill="#C87C62"/>
<path d="M58.2062 154.14V159.312L49.2807 161.381C49.0553 161.858 48.8102 162.454 48.5907 163.105M58.2062 154.14C64.6966 163.556 73.7644 159.922 78.9178 155.864M58.2062 154.14V125.52M69.5347 130.348C66.9028 133.106 62.051 139.382 63.6988 142.416H72.9676M64.896 150.347C67.3012 152.112 69.5347 152.002 72.281 150.347M48.5907 163.105C46.4176 162.185 42.2773 161.105 43.1012 164.139C44.131 167.932 47.2556 166.898 47.9232 166.898M48.5907 163.105C48.1828 164.314 47.8633 165.713 47.9232 166.898M47.9232 166.898C47.9783 167.989 48.3551 168.898 49.2807 169.311C51.7523 170.415 54.6587 169.311 55.8028 168.622C53.7429 170.576 52.713 174.684 52.713 177.242H55.8028M81.5492 173.794C82.098 175.449 81.3205 176.782 80.8632 177.242H77.0864M81.5492 173.794C100.224 177.932 96.196 156.898 91.8479 145.864C89.6756 150.978 86.2629 159.272 83.9607 165.518M81.5492 173.794C81.4474 173.487 81.6118 172.629 81.9706 171.38M78.9178 155.864C79.652 155.285 80.3067 154.699 80.8632 154.14V124.949M78.9178 155.864C80.8304 157.128 84.5167 160.829 83.9607 165.518M83.9607 165.518C83.1023 167.847 82.3984 169.891 81.9706 171.38M81.9706 171.38C74.0688 174.139 71.0738 170.691 70.564 168.622C70.8437 168.541 71.2211 168.374 71.5938 168.109M76.3999 163.105C77.2238 167.055 74.455 166.36 72.9676 165.518C72.9676 165.637 72.9615 165.752 72.95 165.863M72.95 165.863C72.8393 166.93 72.2231 167.66 71.5938 168.109M72.95 165.863C70.564 162.07 61.9817 164.829 71.5938 168.109M55.8028 177.242C55.5741 178.966 55.2538 182.621 55.8028 183.449M55.8028 177.242H66.4446M55.8028 183.449H66.4446M55.8028 183.449C51.5461 183.449 50.3673 187.816 50.3099 190H66.4446M77.0864 183.449C77.5805 181.133 77.5805 180.125 77.0864 177.242M77.0864 183.449H66.4446M77.0864 183.449C80.3815 185.38 81.7155 188.621 81.9706 190H66.4446M77.0864 177.242H66.4446M66.4446 177.242V183.449M66.4446 183.449V190M43.1012 190V145.864M43.1012 145.864C44.7031 143.795 46.2591 139.588 39.668 139.313C31.4291 138.968 36.9217 144.83 43.1012 145.864ZM56.6409 122.417L58.2062 124.486M58.2062 124.486V122.762M58.2062 124.486V125.52M58.2062 122.762V117.245C60.037 112.532 64.866 105.935 69.5347 117.245C72.0521 112.647 77.8423 106.211 80.8632 117.245V123.451M58.2062 122.762C59.6935 119.773 66.101 117.245 68.1607 122.762M68.1607 122.762C67.7035 125.98 65.0726 131.037 58.2062 125.52M68.1607 122.762H70.907M63.0114 122.762V124.486H63.6879V123.495V122.762M70.907 122.762C71.9374 120.003 77.4295 115.865 80.8632 123.451M70.907 122.762C72.1443 129.138 78.4594 129.658 80.8632 123.451M80.8632 123.451V124.949M76.0563 122.762V124.486H76.7429V122.762M80.8632 124.949C81.2555 124.225 81.6074 123.495 82.2355 122.417L80.8632 124.949Z" stroke="black" stroke-width="2"/>
<path d="M142.048 101.575C145.923 104.598 159.964 96.4514 166.5 92L165.116 124C155.812 115.265 138.172 98.5512 142.048 101.575Z" fill="#C87C62"/>
<path d="M163.732 156L165.116 124M165.116 124L166.5 92C159.964 96.4514 145.923 104.598 142.048 101.575C138.172 98.5512 155.812 115.265 165.116 124Z" stroke="#934F38" stroke-width="2"/>
<path d="M162.471 156.185C161.296 156.672 160.428 159.789 164.586 158.811C169.051 157.761 164.586 155.31 162.471 156.185Z" fill="black" stroke="black"/>
<path d="M96.2756 179.497L95.5 174.846C95.5594 173.873 95.7196 172.94 95.9665 172.055C98.7402 162.11 112.445 158.209 116.716 171.59C117.031 172.58 117.296 173.663 117.5 174.846L116.88 178.256L116.654 179.497L116.259 181.667L115.864 183.838L115.131 187.869L114.567 190.969L114.285 192.519L114.115 193.45L113.833 195H111.389H108.333H104.361H101.611H98.8611L98.4474 192.519L97.6718 187.869L97.5684 187.248L96.9996 183.838L96.2756 179.497Z" fill="#E5DFCD"/>
<path d="M95.5 174.846L96.2756 179.497M95.5 174.846H95.8056M95.5 174.846C95.5594 173.873 95.7196 172.94 95.9665 172.055M117.5 174.846L116.88 178.256M117.5 174.846C117.296 173.663 117.031 172.58 116.716 171.59M117.5 174.846L117.194 174.846M96.2756 179.497C96.2756 179.497 96.7169 182.142 96.9996 183.838M96.2756 179.497H96.7222H103.139M116.654 179.497H110.472M116.654 179.497L116.259 181.667M116.654 179.497L116.88 178.256M115.864 183.838L115.131 187.869M115.864 183.838L116.259 181.667M115.864 183.838C115.864 183.838 113.617 183.838 110.472 183.838M96.9996 183.838C97.1799 184.919 97.4296 186.416 97.5684 187.248M96.9996 183.838C101.109 183.838 106.505 183.838 110.472 183.838M115.131 187.869H97.6718M115.131 187.869L114.567 190.969M97.6718 187.869L98.4474 192.519M97.6718 187.869C97.6718 187.869 97.6316 187.628 97.5684 187.248M98.4474 192.519L98.8611 195H101.611M98.4474 192.519H108.333M114.285 192.519L114.567 190.969M114.285 192.519L114.115 193.45M114.285 192.519H108.333M111.389 195H113.833L114.115 193.45M111.389 195H108.333M111.389 195L113.973 177.016L114.285 174.846M114.285 174.846H109.556M114.285 174.846L117.194 174.846M108.333 195H104.361M108.333 195L108.427 193.45M109.556 174.846H104.361M109.556 174.846L109.029 183.528M104.361 195H101.611M104.361 195V189.729M104.361 174.846C102.426 174.742 99.4722 175.528 103.139 179.497M104.361 174.846V184.458M104.361 174.846H101.611M104.361 174.846C107.282 174.846 108.055 177.361 106.194 178.815M101.611 195L99.6552 176.57M99.4722 174.846H95.8056M99.4722 174.846H101.611M99.4722 174.846L99.6552 176.57M105.768 169.575C105.61 169.353 105.444 169.144 105.278 168.955C102.355 168.028 101.071 169.649 100.967 171.435M105.768 169.575C107.209 167.714 110.595 165.358 112.611 170.815M105.768 169.575C106.171 170.14 106.522 170.793 106.679 171.435M112.611 170.815C111.61 172.779 109.023 175.652 106.679 171.435M112.611 170.815C113.514 170.402 115.599 169.978 116.716 171.59M106.679 171.435C107.067 173.017 106.283 174.536 102.222 174.536C101.362 173.912 100.897 172.636 100.967 171.435M104.361 189.729C102.731 188.902 99.35 188.241 98.8611 192.209C99.3704 193.45 101.061 195.682 103.75 194.69M104.361 189.729V184.458M108.634 190.039L108.55 191.434L108.465 192.829M108.634 190.039C108.74 189.937 108.857 189.832 108.984 189.729M108.634 190.039L109.029 183.528M114.567 190.969C113.791 189.242 112.734 188.65 111.694 188.637M114.115 193.45C111.036 196.55 107.417 192.209 108.427 193.45M108.333 192.519C108.619 189.791 108.54 191.589 108.465 192.829M108.465 192.829L108.427 193.45M103.139 179.497H110.472M103.139 179.497C103.953 178.051 101.033 176.467 98.8611 176.854M104.361 184.458C103.471 186.628 103.15 190.721 108.984 189.729M104.361 184.458C99.4722 180.933 97.7956 184.85 97.5684 187.248M108.984 189.729C109.683 189.161 110.68 188.623 111.694 188.637M110.472 179.497C110.562 181.667 111.844 185.14 116.259 181.667M110.472 179.497C110.656 178.544 111.37 177.262 112.917 177.051M116.88 178.256C116.084 177.764 115.377 177.439 114.75 177.247M95.8056 174.846C96.0093 175.565 96.9056 176.973 98.8611 176.854M98.8611 176.854C97.7723 177.048 96.8713 177.737 96.7222 179.187C96.2756 183.528 103.139 183.528 103.139 179.807C104.514 179.725 105.525 179.339 106.194 178.815M101.611 174.846C101.428 175.479 100.779 176.71 99.6552 176.57M100.967 171.435C99.7611 170.815 97.073 170.071 95.9665 172.055M95.9665 172.055C98.7402 162.11 112.445 158.209 116.716 171.59M110.472 173.295C110.37 174.455 110.717 176.83 112.917 177.051M112.917 177.051C113.432 176.98 114.039 177.028 114.75 177.247M114.75 177.247C115.769 176.756 117.683 175.59 117.194 174.846M106.194 178.815C108.492 179.146 112.275 180.551 109.029 183.528M111.694 188.637C109.734 187.967 107.417 185.698 110.472 183.838" stroke="black"/>
</svg>
