<svg width="268" height="236" viewBox="0 0 268 236" fill="none" xmlns="http://www.w3.org/2000/svg">
<rect width="268" height="236" rx="79" fill="black"/>
<path d="M70.0005 155.5C23.0005 155.5 17.0005 169.667 6.00049 181.5C10.0005 192.5 17.5005 205 23.0005 210C20.6355 198 41.0005 177 66.0005 177C116.185 177 149 171 184.5 131C212.9 98.9998 250 112.667 266 123V83.9999C257 75.4999 182 63 156.5 111C136.1 149.4 90.3338 156.667 70.0005 155.5Z" fill="#86AB5D" stroke="white" stroke-width="4"/>
<path d="M80.4234 136.319C77.0661 136.901 71.127 135.928 74.2288 127.377C72.3457 124.653 70.0364 118.768 75.8639 117.022C75.3062 109.758 85.7744 102.621 89.0701 116.008C91.2261 117.198 94.7226 120.873 91.4615 126.054C93.9022 129.005 96.4 135.092 86.8656 135.824L87.1301 138.077C88.2285 138.213 90.3635 139.143 90.1162 141.773L85.4178 142.134L80.3919 142.52L78.6164 142.656C78.6064 142.657 78.5955 142.65 78.5841 142.635C78.3417 142.332 77.8693 138.788 80.5969 138.579L80.4234 136.319Z" fill="#E5DFCD"/>
<path d="M34.2322 149.665L39.6859 166.576C41.0299 166.04 43.7674 165.607 47.4462 165.258C50.8831 164.933 55.1417 164.681 59.8532 164.49C68.8863 164.124 79.5842 163.978 89.3484 163.953C93.2182 163.944 96.9414 163.953 100.356 163.976C103.047 163.993 105.546 164.019 107.774 164.049L107.009 154.092L106.245 144.136C104.513 143.162 101.911 142.546 98.6854 142.215C98.0008 142.145 97.325 142.086 96.6503 142.039C93.2115 141.795 89.8027 141.839 85.4178 142.134L81.8542 142.407C81.3698 142.448 80.8822 142.485 80.3919 142.52L78.6164 142.656C78.6064 142.657 78.5955 142.65 78.5841 142.635C75.6662 142.81 72.672 142.95 69.6846 143.342C68.969 143.436 68.2258 143.539 67.4621 143.649C62.8036 144.321 57.3833 145.263 52.8236 146.07C51.7329 146.263 50.6914 146.449 49.7213 146.621C43.8707 147.661 38.5216 148.73 34.2322 149.665Z" fill="#E5DFCD"/>
<path d="M59.8532 164.49C55.1417 164.681 50.8831 164.933 47.4462 165.258C46.9774 169.392 57.4294 173.879 59.8532 164.49Z" fill="#E5DFCD"/>
<path d="M100.356 163.976C96.9414 163.953 93.2182 163.944 89.3484 163.953C89.876 170.825 100.388 170.243 100.356 163.976Z" fill="#E5DFCD"/>
<path d="M69.6846 143.342L71.2794 104.508L69.2977 104.66L67.4621 143.649C68.2258 143.539 68.969 143.436 69.6846 143.342Z" fill="#E5DFCD"/>
<path d="M59.7561 103.254L49.7213 146.621C50.6914 146.449 51.7329 146.263 52.8236 146.07L61.594 105.251L69.2977 104.66L71.2794 104.508L71.3675 102.363L59.7561 103.254Z" fill="#E5DFCD"/>
<path d="M92.4689 100.743L71.3675 102.363L71.2794 104.508L90.3992 103.04L92.7858 102.857L92.4689 100.743Z" fill="#E5DFCD"/>
<path d="M98.6854 142.215L92.7858 102.857L90.3992 103.04C92.6086 113.96 96.9521 137.048 96.6503 142.039C97.325 142.086 98.0008 142.145 98.6854 142.215Z" fill="#E5DFCD"/>
<path d="M61.594 105.251L52.8236 146.07C57.3833 145.263 62.8036 144.321 67.4621 143.649L69.2977 104.66L61.594 105.251Z" fill="#E5DFCD"/>
<path d="M47.4462 165.258C43.7674 165.607 41.0299 166.04 39.6859 166.576L34.2322 149.665C38.5216 148.73 43.8707 147.661 49.7213 146.621M47.4462 165.258C50.8831 164.933 55.1417 164.681 59.8532 164.49M47.4462 165.258C46.9774 169.392 57.4294 173.879 59.8532 164.49M59.8532 164.49C68.8863 164.124 79.5842 163.978 89.3484 163.953M89.3484 163.953C93.2182 163.944 96.9414 163.953 100.356 163.976M89.3484 163.953C89.876 170.825 100.388 170.243 100.356 163.976M100.356 163.976C103.047 163.993 105.546 164.019 107.774 164.049L107.009 154.092L106.245 144.136C104.513 143.162 101.911 142.546 98.6854 142.215M49.7213 146.621L59.7561 103.254L71.3675 102.363M49.7213 146.621C50.6914 146.449 51.7329 146.263 52.8236 146.07M98.6854 142.215L92.7858 102.857M98.6854 142.215C98.0008 142.145 97.325 142.086 96.6503 142.039M69.6846 143.342C72.672 142.95 75.6662 142.81 78.5841 142.635M69.6846 143.342C68.969 143.436 68.2258 143.539 67.4621 143.649M69.6846 143.342L71.2794 104.508M71.3675 102.363L92.4689 100.743L92.7858 102.857M71.3675 102.363L71.2794 104.508M81.8542 142.407L85.4178 142.134M81.8542 142.407C81.3698 142.448 80.8822 142.485 80.3919 142.52M81.8542 142.407C83.1167 142.3 84.299 142.209 85.4178 142.134M80.5969 138.579L87.1301 138.077M80.5969 138.579L80.4234 136.319C77.0661 136.901 71.127 135.928 74.2288 127.377C72.3457 124.653 70.0364 118.768 75.8639 117.022C75.3062 109.758 85.7744 102.621 89.0701 116.008C91.2261 117.198 94.7226 120.873 91.4615 126.054C93.9022 129.005 96.4 135.092 86.8656 135.824L87.1301 138.077M80.5969 138.579C77.8693 138.788 78.3417 142.332 78.5841 142.635M87.1301 138.077C88.2285 138.213 90.3635 139.143 90.1162 141.773L85.4178 142.134M79.4195 116.911L79.531 118.364M85.7005 116.429L85.812 117.882M79.9152 129.701C81.2289 130.633 84.6464 131.818 87.8069 129.095M85.4178 142.134L80.3919 142.52M85.4178 142.134C89.8027 141.839 93.2115 141.795 96.6503 142.039M80.3919 142.52L78.6164 142.656C78.6064 142.657 78.5955 142.65 78.5841 142.635M80.3919 142.52C79.7931 142.561 79.1903 142.599 78.5841 142.635M52.8236 146.07L61.594 105.251L69.2977 104.66M52.8236 146.07C57.3833 145.263 62.8036 144.321 67.4621 143.649M92.7858 102.857L90.3992 103.04M90.3992 103.04C92.6086 113.96 96.9521 137.048 96.6503 142.039M90.3992 103.04L71.2794 104.508M69.2977 104.66L67.4621 143.649M69.2977 104.66L71.2794 104.508M85.4034 125.22C84.594 124.524 82.3979 123.632 80.0888 125.628C81.0716 126.473 83.5105 127.573 85.4034 125.22Z" stroke="black"/>
<line x1="239.179" y1="94.0161" x2="250.179" y2="96.0161" stroke="white" stroke-width="2"/>
<line x1="220.153" y1="95.9884" x2="207.153" y2="97.9884" stroke="white" stroke-width="2"/>
<line x1="189.574" y1="102.819" x2="179.574" y2="109.819" stroke="white" stroke-width="2"/>
<line x1="172.669" y1="120.743" x2="162.669" y2="129.743" stroke="white" stroke-width="2"/>
<line x1="152.555" y1="140.832" x2="140.555" y2="148.832" stroke="white" stroke-width="2"/>
<line x1="128.359" y1="154.933" x2="115.359" y2="159.933" stroke="white" stroke-width="2"/>
<line x1="64.9238" y1="166.003" x2="77.9238" y2="165.003" stroke="white" stroke-width="2"/>
<line x1="21.4458" y1="181.168" x2="33.4458" y2="173.168" stroke="white" stroke-width="2"/>
</svg>
