<svg width="1090" height="912" viewBox="0 0 1090 912" fill="none" xmlns="http://www.w3.org/2000/svg">
<rect y="0.5" width="1090" height="1015" rx="79" fill="#86AB5D"/>
<path d="M862.492 174.038C666.509 174.038 626.123 205.49 599.931 239.181C510.036 337.848 695.142 374.873 796.263 315.331C858.438 278.721 1011.79 343.827 1047.45 277.132C1083.11 210.437 879.533 174.038 862.492 174.038Z" fill="#E5DFCD"/>
<path d="M819.535 189.37C783.65 183.901 639.796 222.283 619.523 248.431C549.944 325.008 686.794 336.21 765.062 289.999C813.185 261.585 931.883 312.115 959.483 260.352C987.084 208.589 836.704 191.986 819.535 189.37Z" fill="#CFC5AA"/>
<path d="M665.933 277.034C662.553 278.679 660.056 289.23 672.017 285.92C684.861 282.365 672.017 274.071 665.933 277.034Z" fill="black" stroke="black"/>
<path d="M974.441 283.352V264.042C975.544 263.194 976.732 262.484 977.983 261.895V220.595C962.114 215.078 961.926 211.4 963.815 210.251C991.584 206.94 984.831 215.768 977.983 220.595V261.895C981.42 260.279 985.337 259.583 989.317 259.485C989.99 259.469 990.665 259.469 991.339 259.485L989.317 206.802C987.428 200.136 987.334 188.596 1002.07 195.768C998.999 198.297 992.151 204.044 989.317 206.802L991.339 259.485C992.798 259.52 994.256 259.627 995.693 259.791L999.235 217.837C998.055 211.17 998.952 199.63 1011.99 206.802C1014.11 207.722 1014.54 211.216 999.235 217.837L995.693 259.791C997.893 260.043 1000.04 260.427 1002.07 260.888L1006.32 231.629C1005.85 224.273 1008.16 211.768 1021.2 220.595C1021.49 221.745 1018.93 225.561 1006.32 231.629L1002.07 260.888C1006.03 261.789 1009.51 262.981 1011.99 264.042V270.939C1030.12 292.456 1019.54 312.547 1011.99 319.903V356.454C1006.93 358.594 1001.21 359.42 995.693 359.494C993.519 359.524 991.377 359.437 989.317 359.267C983.129 358.759 977.694 357.509 974.441 356.454V283.352Z" fill="#E5DFCD"/>
<path d="M974.441 283.352V264.042C975.544 263.194 976.732 262.484 977.983 261.895M974.441 283.352V356.454C977.694 357.509 983.129 358.759 989.317 359.267M974.441 283.352C979.164 279.214 993.285 273.422 1011.99 283.352M1011.99 283.352V319.903M1011.99 283.352V270.939M995.693 259.791V359.494M995.693 259.791C994.256 259.627 992.798 259.52 991.339 259.485M995.693 259.791L999.235 217.837M995.693 259.791C997.893 260.043 1000.04 260.427 1002.07 260.888M995.693 359.494C1001.21 359.42 1006.93 358.594 1011.99 356.454V319.903M995.693 359.494C993.519 359.524 991.377 359.437 989.317 359.267M989.317 359.267V259.485M989.317 259.485C985.337 259.583 981.42 260.279 977.983 261.895M989.317 259.485C989.99 259.469 990.665 259.469 991.339 259.485M1011.99 319.903C1019.54 312.547 1030.12 292.456 1011.99 270.939M1011.99 270.939V264.042C1009.51 262.981 1006.03 261.789 1002.07 260.888M977.983 261.895V220.595M977.983 220.595C984.831 215.768 991.584 206.94 963.815 210.251C961.926 211.4 962.114 215.078 977.983 220.595ZM991.339 259.485L989.317 206.802M989.317 206.802C987.428 200.136 987.334 188.596 1002.07 195.768C998.999 198.297 992.151 204.044 989.317 206.802ZM999.235 217.837C998.055 211.17 998.952 199.63 1011.99 206.802C1014.11 207.722 1014.54 211.216 999.235 217.837ZM1002.07 260.888L1006.32 231.629M1006.32 231.629C1005.85 224.273 1008.16 211.768 1021.2 220.595C1021.49 221.745 1018.93 225.561 1006.32 231.629Z" stroke="#1F4E2C" stroke-width="3"/>
<path d="M340.442 247.816C387.109 242.081 524.972 226.142 545.895 189.5C620.256 80.5813 454.895 91.9999 340.442 127.666C271.828 149.048 127.172 130.677 101.825 201.24C76.4771 271.802 300.327 252.746 340.442 247.816Z" fill="#E5DFCD"/>
<path d="M190.62 200.335C187.638 201.98 187.396 211.166 195.895 208.5C207.228 204.945 195.988 197.372 190.62 200.335Z" fill="black" stroke="black"/>
<path d="M351.546 92.8661L349.396 80.076C349.56 77.4008 350.004 74.8354 350.689 72.4017C358.38 45.0532 396.379 34.3255 408.221 71.1233C409.096 73.8437 409.829 76.8237 410.396 80.076L408.675 89.4552L408.049 92.8661L406.954 98.8349L405.86 104.804L403.826 115.888L402.262 124.415L401.48 128.679L401.011 131.236L400.229 135.5H393.451H384.979H373.965H366.34H358.715L357.568 128.679L355.417 115.888L355.131 114.183L353.553 104.804L351.546 92.8661Z" fill="#E5DFCD"/>
<path d="M349.396 80.076L351.546 92.8661M349.396 80.076H350.243M349.396 80.076C349.56 77.4008 350.004 74.8354 350.689 72.4017M410.396 80.076L408.675 89.4552M410.396 80.076C409.829 76.8237 409.096 73.8437 408.221 71.1233M410.396 80.076L409.548 80.0757M351.546 92.8661C351.546 92.8661 352.77 100.142 353.553 104.804M351.546 92.8661H352.784H370.576M408.049 92.8661H390.909M408.049 92.8661L406.954 98.8349M408.049 92.8661L408.675 89.4552M405.86 104.804L403.826 115.888M405.86 104.804L406.954 98.8349M405.86 104.804C405.86 104.804 399.628 104.804 390.909 104.804M353.553 104.804C354.053 107.777 354.746 111.895 355.131 114.183M353.553 104.804C364.949 104.804 379.909 104.804 390.909 104.804M403.826 115.888H355.417M403.826 115.888L402.262 124.415M355.417 115.888L357.568 128.679M355.417 115.888C355.417 115.888 355.306 115.226 355.131 114.183M357.568 128.679L358.715 135.5H366.34M357.568 128.679H384.979M401.48 128.679L402.262 124.415M401.48 128.679L401.011 131.236M401.48 128.679H384.979M393.451 135.5H400.229L401.011 131.236M393.451 135.5H384.979M393.451 135.5L400.615 86.0445L401.48 80.076M401.48 80.076H388.368M401.48 80.076L409.548 80.0757M384.979 135.5H373.965M384.979 135.5L385.24 131.236M388.368 80.076H373.965M388.368 80.076L386.908 103.951M373.965 135.5H366.34M373.965 135.5V121.004M373.965 80.076C368.599 79.7919 360.409 81.9521 370.576 92.8661M373.965 80.076V106.509M373.965 80.076H366.34M373.965 80.076C382.064 80.076 384.207 86.9916 379.048 90.9913M366.34 135.5L360.917 84.818M360.409 80.076H350.243M360.409 80.076H366.34M360.409 80.076L360.917 84.818M377.867 65.5802C377.428 64.9696 376.967 64.3957 376.507 63.8749C368.403 61.3263 364.841 65.7859 364.554 70.6963M377.867 65.5802C381.862 60.4642 391.251 53.9838 396.84 68.9909M377.867 65.5802C378.984 67.1358 379.956 68.9304 380.393 70.6963M396.84 68.9909C394.065 74.3912 386.89 82.2927 380.393 70.6963M396.84 68.9909C399.344 67.8545 405.125 66.69 408.221 71.1233M380.393 70.6963C381.468 75.0467 379.293 79.2231 368.034 79.2231C365.649 77.5083 364.36 74.0002 364.554 70.6963M373.965 121.004C369.446 118.73 360.071 116.911 358.715 127.826C360.127 131.236 364.815 137.376 372.271 134.647M373.965 121.004V106.509M385.813 121.857L385.578 125.694L385.344 129.531M385.813 121.857C386.106 121.576 386.431 121.289 386.784 121.004M385.813 121.857L386.908 103.951M402.262 124.415C400.113 119.665 397.18 118.038 394.298 118.001M401.011 131.236C392.474 139.763 382.437 127.826 385.24 131.236M384.979 128.679C385.771 121.175 385.552 126.12 385.344 129.531M385.344 129.531L385.24 131.236M370.576 92.8661H390.909M370.576 92.8661C372.834 88.89 364.738 84.5356 358.715 85.5998M373.965 106.509C371.497 112.477 370.606 123.733 386.784 121.004M373.965 106.509C360.409 96.8168 355.761 107.586 355.131 114.183M386.784 121.004C388.721 119.442 391.485 117.964 394.298 118.001M390.909 92.8661C391.157 98.835 394.713 108.385 406.954 98.8349M390.909 92.8661C391.42 90.2448 393.398 86.721 397.687 86.1392M408.675 89.4552C406.469 88.1009 404.508 87.2077 402.771 86.6783M350.243 80.076C350.808 82.0533 353.293 85.9262 358.715 85.5998M358.715 85.5998C355.696 86.1332 353.198 88.0277 352.784 92.0132C351.546 103.951 370.576 103.951 370.576 93.7186C374.388 93.493 377.191 92.431 379.048 90.9913M366.34 80.076C365.831 81.8163 364.034 85.2012 360.917 84.818M364.554 70.6963C361.21 68.9909 353.757 66.9445 350.689 72.4017M350.689 72.4017C358.38 45.0532 396.379 34.3255 408.221 71.1233M390.909 75.8124C390.627 79.002 391.587 85.5328 397.687 86.1392M397.687 86.1392C399.115 85.9454 400.799 86.0779 402.771 86.6783M402.771 86.6783C405.595 85.3302 410.904 82.1222 409.548 80.0757M379.048 90.9913C385.418 91.9004 395.907 95.765 386.908 103.951M394.298 118.001C388.863 116.16 382.437 109.919 390.909 104.804" stroke="black" stroke-width="1.6"/>
<path d="M431.686 195.299C451.078 198.047 497.388 181.9 510.129 176.147C553.979 158.992 514.605 144.161 477.773 145.894C440.94 147.627 404.132 151.542 412.817 180.726C416.121 191.83 416.18 193.102 431.686 195.299Z" fill="#CFC5AA"/>
<path d="M503.535 525.259C441.099 514.592 288.539 555.299 246.366 570.318C101.622 614.304 192.552 648.5 312.197 648.5C431.842 648.5 482.545 634.08 562.471 570.318C590.518 547.943 581.579 538.593 503.535 525.259Z" fill="#E5DFCD"/>
<path d="M472.75 555.691C427.154 548.47 315.741 576.026 284.942 586.193C179.238 615.969 231.351 631.5 318.727 631.5C406.103 631.5 438.069 610.196 515.79 586.193C562.371 571.807 529.745 564.717 472.75 555.691Z" fill="#CFC5AA"/>
<path d="M476.753 592.198C473.421 594.151 470.959 606.67 482.75 602.742C492.751 599.411 482.75 588.683 476.753 592.198Z" fill="black" stroke="black"/>
<path d="M898.523 470.542C836.93 451.232 720.92 488.333 679.315 515.522C536.525 595.148 710.469 616.5 828.5 616.5C946.531 616.5 971.106 625.609 1027.75 571.786C1084.39 517.962 975.515 494.679 898.523 470.542Z" fill="#CFC6AA"/>
<path d="M609.939 570.226L608 558.744C608.148 556.343 608.549 554.04 609.166 551.855C616.1 527.303 650.362 517.673 661.039 550.707C661.829 553.149 662.489 555.825 663 558.744L661.449 567.164L660.885 570.226L659.897 575.585L658.91 580.943L657.077 590.894L655.667 598.549L654.962 602.376L654.539 604.672L653.833 608.5H647.722H640.083H630.153H623.278H616.403L615.369 602.376L613.429 590.894L613.171 589.363L611.749 580.943L609.939 570.226Z" fill="#E5DFCD"/>
<path d="M608 558.744L609.939 570.226M608 558.744H608.764M608 558.744C608.148 556.343 608.549 554.04 609.166 551.855M663 558.744L661.449 567.164M663 558.744C662.489 555.825 661.829 553.149 661.039 550.707M663 558.744L662.236 558.744M609.939 570.226C609.939 570.226 611.042 576.758 611.749 580.943M609.939 570.226H611.056H627.097M660.885 570.226H645.431M660.885 570.226L659.897 575.585M660.885 570.226L661.449 567.164M658.91 580.943L657.077 590.894M658.91 580.943L659.897 575.585M658.91 580.943C658.91 580.943 653.291 580.943 645.431 580.943M611.749 580.943C612.2 583.612 612.824 587.309 613.171 589.363M611.749 580.943C622.024 580.943 635.512 580.943 645.431 580.943M657.077 590.894H613.429M657.077 590.894L655.667 598.549M613.429 590.894L615.369 602.376M613.429 590.894C613.429 590.894 613.329 590.299 613.171 589.363M615.369 602.376L616.403 608.5H623.278M615.369 602.376H640.083M654.962 602.376L655.667 598.549M654.962 602.376L654.539 604.672M654.962 602.376H640.083M647.722 608.5H653.833L654.539 604.672M647.722 608.5H640.083M647.722 608.5L654.182 564.102L654.962 558.744M654.962 558.744H643.139M654.962 558.744L662.236 558.744M640.083 608.5H630.153M640.083 608.5L640.318 604.672M643.139 558.744H630.153M643.139 558.744L641.823 580.177M630.153 608.5H623.278M630.153 608.5V595.487M630.153 558.744C625.315 558.489 617.931 560.429 627.097 570.226M630.153 558.744V582.474M630.153 558.744H623.278M630.153 558.744C637.455 558.744 639.388 564.953 634.736 568.543M623.278 608.5L618.388 563.001M617.931 558.744H608.764M617.931 558.744H623.278M617.931 558.744L618.388 563.001M633.671 545.731C633.275 545.183 632.859 544.668 632.444 544.2C625.138 541.912 621.927 545.916 621.667 550.324M633.671 545.731C637.273 541.138 645.738 535.321 650.778 548.793M633.671 545.731C634.678 547.128 635.555 548.739 635.948 550.324M650.778 548.793C648.276 553.641 641.807 560.734 635.948 550.324M650.778 548.793C653.035 547.773 658.248 546.727 661.039 550.707M635.948 550.324C636.918 554.229 634.957 557.979 624.806 557.979C622.655 556.439 621.493 553.29 621.667 550.324M630.153 595.487C626.079 593.445 617.625 591.812 616.403 601.611C617.676 604.672 621.903 610.184 628.625 607.734M630.153 595.487V582.474M640.835 596.252L640.624 599.697L640.412 603.141M640.835 596.252C641.1 596 641.393 595.742 641.711 595.487M640.835 596.252L641.823 580.177M655.667 598.549C653.729 594.284 651.084 592.824 648.486 592.791M654.539 604.672C646.841 612.327 637.792 601.611 640.318 604.672M640.083 602.376C640.798 595.64 640.6 600.08 640.412 603.141M640.412 603.141L640.318 604.672M627.097 570.226H645.431M627.097 570.226C629.133 566.657 621.834 562.748 616.403 563.703M630.153 582.474C627.928 587.832 627.124 597.936 641.711 595.487M630.153 582.474C617.931 573.773 613.739 583.441 613.171 589.363M641.711 595.487C643.458 594.084 645.95 592.758 648.486 592.791M645.431 570.226C645.654 575.585 648.86 584.158 659.897 575.585M645.431 570.226C645.891 567.873 647.675 564.71 651.542 564.187M661.449 567.164C659.46 565.949 657.692 565.147 656.125 564.671M608.764 558.744C609.273 560.519 611.514 563.996 616.403 563.703M616.403 563.703C613.681 564.182 611.428 565.883 611.056 569.461C609.939 580.177 627.097 580.177 627.097 570.992C630.534 570.789 633.062 569.836 634.736 568.543M623.278 558.744C622.819 560.307 621.199 563.345 618.388 563.001M621.667 550.324C618.653 548.793 611.932 546.956 609.166 551.855M609.166 551.855C616.1 527.303 650.362 517.673 661.039 550.707M645.431 554.917C645.176 557.78 646.042 563.643 651.542 564.187M651.542 564.187C652.829 564.014 654.348 564.132 656.125 564.671M656.125 564.671C658.671 563.461 663.458 560.581 662.236 558.744M634.736 568.543C640.479 569.359 649.936 572.829 641.823 580.177M648.486 592.791C643.585 591.138 637.792 585.536 645.431 580.943" stroke="black" stroke-width="1.6"/>
<path d="M972.452 520.883C946.702 517.396 880.261 500.3 862.711 503.757C802.531 513.643 857.089 553.798 906.577 555.134C956.065 556.471 1005.7 556.146 996.511 533.325C993.013 524.643 993.04 523.671 972.452 520.883Z" fill="#E5DFCD"/>
<path d="M913.524 533.994C910.469 535.291 908.212 543.605 919.023 540.997C930.633 538.196 919.023 531.66 913.524 533.994Z" fill="black" stroke="black"/>
<path d="M406.298 301.508C335.895 289.534 163.869 335.228 116.313 352.088C-46.8998 401.464 94.4518 456.046 229.364 456.046C364.277 456.046 499.476 448.903 472.755 352.088C462.589 315.254 462.589 311.082 406.298 301.508Z" fill="#CFC5AA"/>
<path d="M359.939 320.443C308.523 311.641 182.891 345.232 148.161 357.626C28.9658 393.924 132.196 434.049 230.723 434.049C329.25 434.049 408.472 450.023 408.472 357.626C408.472 341 424.208 331.446 359.939 320.443Z" fill="#E5DFCD"/>
<path d="M351.368 343.107C347.789 344.753 345.145 355.303 357.81 351.993C371.409 348.438 357.81 340.145 351.368 343.107Z" fill="black" stroke="black"/>
<path d="M57.101 538.374V487.363H50.6009C49.5897 483.616 48.1741 476.037 50.6009 475.691C53.0276 475.345 111.702 475.547 140.736 475.691C151.57 476.556 171.764 480.1 165.87 487.363H153.303L175.837 550.9C189.862 554.74 205.218 561.655 208.772 572.525V577.713C209.638 580.306 211.285 585.926 210.938 587.656C212.238 589.097 217.092 593.189 213.972 598.031H202.705C200.971 614.285 189.56 617.772 184.071 617.484C170.303 616.52 165.693 608.925 164.847 601.921H82.6683C79.8949 615.755 67.0679 617.772 61.001 617.052C55.8009 615.611 45.4873 609.703 45.834 597.598H40.2005H26.3334C24.0223 596.157 20.44 591.978 24.6001 586.791H30.2336L34.1337 569.067L41.9339 563.879V538.374H44.1006L37.2728 521.947C34.1337 532.322 26.4617 530.881 22 524.973L36.7337 520.65L37.2728 521.947L44.1006 538.374H50.6009L39.1605 509.842C31.7416 521.601 24.629 514.742 22 509.842L38.4671 508.113L39.1605 509.842L50.6009 538.374H57.101Z" fill="#E5DFCD"/>
<path d="M57.101 538.374V487.363M57.101 487.363H50.6009C49.5897 483.616 48.1741 476.037 50.6009 475.691C53.0276 475.345 111.702 475.547 140.736 475.691C151.57 476.556 171.764 480.1 165.87 487.363H153.303M57.101 487.363H63.6011M63.6011 487.363V538.374H67.0679M63.6011 487.363H74.4347M67.0679 538.374H50.6009M67.0679 538.374V557.827M38.4671 538.374H41.9339M41.9339 538.374V563.879M41.9339 538.374H44.1006M41.9339 563.879C48.0007 561.43 60.5677 557.827 67.0679 557.827M41.9339 563.879L34.1337 569.067L30.2336 586.791M67.0679 557.827H81.3682M50.6009 538.374L39.1605 509.842M50.6009 538.374H44.1006M39.1605 509.842L38.4671 508.113L22 509.842C24.629 514.742 31.7416 521.601 39.1605 509.842ZM44.1006 538.374L37.2728 521.947M37.2728 521.947L36.7337 520.65L22 524.973C26.4617 530.881 34.1337 532.322 37.2728 521.947ZM74.4347 487.363V521.947M74.4347 487.363H81.3682M74.4347 521.947C74.8681 521.37 76.8615 520.131 81.3682 519.785M74.4347 521.947C73.7139 524.104 73.7125 531.942 78.1201 547.452M81.3682 519.785V487.363M81.3682 519.785C91.4218 518.056 95.6686 537.049 96.5353 546.762M81.3682 487.363H146.803M81.3682 557.827C80.0846 554.044 79.012 550.591 78.1201 547.452M81.3682 557.827C82.6538 558.581 85.1349 559.897 88.3018 561.326M127.736 565.176V589.817M127.736 565.176H113.002M127.736 565.176C131.55 554.109 126.147 552.207 122.969 552.64H98.2687M127.736 593.708L81.8016 593.949L165.437 593.708M127.736 593.708H165.437M127.736 593.708V589.817M165.437 593.708C166.477 583.333 176.271 580.162 181.038 579.874C198.025 580.22 202.56 592.123 202.705 598.031M165.437 593.708C164.824 595.936 164.479 598.873 164.847 601.921M127.736 589.817H139.87L154.892 567.338M208.772 577.713V572.525C205.218 561.655 189.862 554.74 175.837 550.9M208.772 577.713H198.371M208.772 577.713C209.638 580.306 211.285 585.926 210.938 587.656M210.938 587.656H198.837M210.938 587.656C212.238 589.097 217.092 593.189 213.972 598.031H202.705M202.705 598.031C200.971 614.285 189.56 617.772 184.071 617.484C170.303 616.52 165.693 608.925 164.847 601.921M164.847 601.921H82.6683M82.6683 601.921C83.535 595.149 80.9349 581.344 63.6011 580.306C57.8232 581.027 46.1806 585.494 45.834 597.598M82.6683 601.921C79.8949 615.755 67.0679 617.772 61.001 617.052C55.8009 615.611 45.4873 609.703 45.834 597.598M45.834 597.598H40.2005M40.2005 597.598H26.3334C24.0223 596.157 20.44 591.978 24.6001 586.791H30.2336M40.2005 597.598V586.791H30.2336M146.803 487.363L168.471 549.119M146.803 487.363H153.303M168.471 549.119C164.752 548.336 161.33 547.787 158.504 547.452L157.204 563.879L154.892 567.338M168.471 549.119C170.832 549.616 173.313 550.208 175.837 550.9M175.837 550.9L153.303 487.363M154.892 567.338L149.837 562.582L152.551 559.556M157.204 554.369L156.428 555.233M152.551 559.556L134.236 538.806M152.551 559.556L156.428 555.233M134.236 538.806C130.625 541.976 123.749 547.193 125.136 542.697C126.869 537.077 138.136 526.269 142.037 525.837C145.112 525.496 142.529 530.733 138.112 535.348M134.236 538.806C135.611 537.778 136.927 536.585 138.112 535.348M138.112 535.348L156.428 555.233M113.002 565.176H98.2687C94.6346 564.023 91.1841 562.627 88.3018 561.326M113.002 565.176C111.558 559.844 107.369 548.835 102.169 547.452C100.763 547.078 98.7863 546.864 96.5353 546.762M78.1201 547.452C82.3879 547.031 90.4615 546.488 96.5353 546.762M96.5353 546.762L98.2687 552.64M98.2687 552.64C95.0908 553.243 88.6484 555.825 88.3018 561.326" stroke="#1F4E2C" stroke-width="4"/>
<path d="M133.39 80.2244C143.226 87.123 178.863 68.5351 195.451 58.3789L191.938 131.389C168.324 111.46 123.554 73.3258 133.39 80.2244Z" fill="#D5C84C"/>
<path d="M188.425 204.399L191.938 131.389M191.938 131.389L195.451 58.3789C178.863 68.5351 143.226 87.123 133.39 80.2244C123.554 73.3258 168.324 111.46 191.938 131.389Z" stroke="#988D29" stroke-width="6"/>
<path d="M443.306 81.2241C433.273 82.1597 415.976 78.0433 427.061 54.0934C422.124 45.8294 416.645 28.3659 434.229 24.6238C434.229 3.57429 466.719 -14.6686 473.408 24.6238C482.327 27.1185 495.769 36.5049 478.186 54.0934C484.717 63.137 490.705 81.2241 462.419 81.2241L462.689 87.7732L463.575 109.291H482.964C483.388 109.747 483.857 110.391 484.245 111.162C486.243 110.71 489.033 110.232 491.565 110.092C495.155 109.892 498.224 110.371 497.776 112.565C497.276 115.015 493.428 116.333 489.654 116.975C487.663 117.313 485.693 117.463 484.245 117.492C483.928 118.039 483.507 118.583 482.964 119.114H463.98L464.808 139.228H458.119L459.074 154.665H469.108V158.407H455.252L453.819 139.228H449.518L446.652 158.407H434.229V154.665H442.351L445.696 139.228H434.229L440.005 106.484C436.169 106.016 427.826 105.923 425.151 109.291C422.475 112.659 431.043 115.372 435.662 116.307L434.75 123.751C435.185 125.135 434.76 126.844 434.229 128.002L434.75 123.751C434.305 122.339 432.965 121.264 429.929 121.453C422.41 121.921 417.984 117.492 417.028 108.355C416.072 99.2182 439.007 99.9353 441.161 99.9353L443.306 87.7732V81.2241Z" fill="#D5C74C"/>
<path d="M443.306 87.7732H462.689M443.306 87.7732V81.2241C433.273 82.1597 415.976 78.0433 427.061 54.0934C422.124 45.8294 416.645 28.366 434.229 24.6238C434.229 3.57429 466.719 -14.6686 473.408 24.6238C482.327 27.1185 495.769 36.5049 478.186 54.0934C484.717 63.137 490.705 81.2241 462.419 81.2241L462.689 87.7732M443.306 87.7732L441.161 99.9353M462.689 87.7732L463.575 109.291M444.74 25.0918V29.3018M463.375 25.0918V29.3018M443.306 62.0458C446.97 65.0231 456.781 69.1915 466.719 62.0458M463.575 109.291H482.964C483.388 109.747 483.857 110.391 484.245 111.162M463.575 109.291L463.98 119.114M463.98 119.114L464.808 139.228H458.119M463.98 119.114H482.964C483.507 118.583 483.928 118.039 484.245 117.492M484.245 111.162C485.108 112.875 485.571 115.211 484.245 117.492M484.245 111.162C486.242 110.71 489.033 110.232 491.565 110.092C495.155 109.892 498.224 110.371 497.776 112.565C497.276 115.015 493.428 116.333 489.654 116.975C487.663 117.313 485.693 117.463 484.245 117.492M445.696 139.228H434.229L440.005 106.484M445.696 139.228L442.351 154.665H434.229V158.407H446.652L449.518 139.228M445.696 139.228H449.518M449.518 139.228H458.119M453.819 139.228L455.252 158.407H469.108V154.665H459.074L458.119 139.228M441.161 99.9353C439.007 99.9353 416.072 99.2182 417.028 108.355C417.984 117.492 422.41 121.921 429.929 121.453C435.943 121.079 435.301 125.663 434.229 128.002L435.662 116.307C431.043 115.372 422.475 112.659 425.151 109.291C427.826 105.923 436.169 106.016 440.005 106.484M441.161 99.9353L440.005 106.484M460.508 50.3515C458.278 48.1686 452.003 45.1125 444.74 50.3515C447.448 53.0022 454.392 56.7132 460.508 50.3515Z" stroke="black" stroke-width="3"/>
<path d="M488.499 157.918C496.666 159.226 510.299 162.723 499.499 166.254C485.999 170.667 481.999 157.918 488.499 157.918Z" fill="#D5C74C"/>
<path d="M494.999 70.1484L488.499 157.918M488.499 157.918C496.666 159.226 510.299 162.723 499.499 166.254C485.999 170.667 481.999 157.918 488.499 157.918Z" stroke="black" stroke-width="3"/>
<ellipse cx="499.999" cy="168.213" rx="10" ry="9.80667" fill="white"/>
<path d="M494 428.5C475.319 440.029 438.938 471.705 426.6 465.837C423.666 463.809 423.008 463.409 425.699 465.311C425.983 465.512 426.284 465.687 426.6 465.837C436.053 472.371 469.128 495.794 489.943 513.5L494 428.5Z" fill="#C87C63"/>
<path d="M485.885 598.5L489.943 513.5M489.943 513.5L494 428.5C474.84 440.324 437.06 473.343 425.699 465.311C414.338 457.28 462.667 490.298 489.943 513.5Z" stroke="#9E7959" stroke-width="6"/>
<path d="M299.492 531.319C312.428 538.479 309.343 581.291 306.183 601.802H293.08C295.217 606.091 301.165 614.892 307.856 615.787V622.5H279.977H252.098V615.787C256.558 614.892 261.019 606.091 262.692 601.802H252.098C244.849 577.189 252.098 539.15 256.001 536.353C256.512 535.987 257.041 535.205 257.574 534.116C252.403 537.286 241.503 540.045 239.273 525.725C236.485 507.824 255.882 488.025 259.903 486.008C264.364 483.771 279.977 474.82 300.607 486.008C308.228 491.602 322.688 506.146 319.565 519.571C315.662 536.353 306.183 533.556 299.492 531.319Z" fill="#C87C62"/>
<path d="M299.492 531.319C312.428 538.479 309.343 581.291 306.183 601.802H293.08M299.492 531.319C298.005 525.352 294.585 512.299 292.801 507.824C287.411 511.554 274.178 516.775 264.365 507.824C263.121 514.996 260.293 528.557 257.574 534.116M299.492 531.319C286.557 559.96 266.157 545.117 257.574 534.116M299.492 531.319C306.183 533.556 315.662 536.353 319.565 519.571C322.688 506.146 308.228 491.602 300.607 486.008C279.977 474.82 264.364 483.771 259.903 486.008C255.882 488.025 236.485 507.824 239.273 525.725C241.503 540.045 252.403 537.286 257.574 534.116M257.574 534.116C257.041 535.205 256.512 535.987 256.001 536.353C252.098 539.15 244.849 577.189 252.098 601.802H262.692M273.285 529.081C274.633 523.937 284.019 524.635 284.019 529.081M274.633 538.416C277.067 540.684 280.021 540.684 281.76 538.416M262.692 601.802C261.019 606.091 256.558 614.892 252.098 615.787V622.5H279.977M262.692 601.802H279.977M279.977 622.5H307.856V615.787C301.165 614.892 295.217 606.091 293.08 601.802M279.977 622.5V601.802M279.977 601.802H293.08M258.789 557.051L269.383 563.764C269.497 564.566 269.597 565.531 269.654 566.561M256.001 571.036C258.045 572.528 263.026 575.511 266.595 575.511C267.626 575.511 268.341 574.857 268.822 573.833M269.654 566.561C269.793 569.106 269.665 572.038 268.822 573.833M269.654 566.561C272.469 565.877 277.772 565.6 278.287 569.358M268.822 573.833C271.797 574.765 277.858 575.399 278.304 570.476C278.341 570.069 278.334 569.697 278.287 569.358M296.704 557.051L286.11 564.323C285.782 565.264 285.47 566.443 285.288 567.68M302.28 569.358C300.793 571.409 296.258 575.511 290.013 575.511C288.089 575.511 286.857 574.803 286.11 573.714M285.288 567.68C282.391 566.747 276.935 565.778 278.287 569.358M285.288 567.68C284.97 569.833 285.046 572.161 286.11 573.714M278.287 569.358C277.735 571.702 278.527 575.856 286.11 573.714M269.382 517.893V519.571H271.055V517.893H269.382ZM287.225 517.893V519.571H288.898V517.893H287.225Z" stroke="black" stroke-width="3"/>
<circle cx="340" cy="612.5" r="10" fill="white"/>
<path d="M313.5 621.5C316.333 616.833 324.1 609.1 332.5 615.5C343 623.5 328.5 627.5 313.5 621.5Z" fill="#C87C62"/>
<path d="M265 554.5C281.4 578.5 306.333 610.167 313.5 621.5M313.5 621.5C316.333 616.833 324.1 609.1 332.5 615.5C343 623.5 328.5 627.5 313.5 621.5Z" stroke="black" stroke-width="3"/>
<path d="M73.2982 402.626C68.7886 395.56 62.9825 380.41 75.8349 376.34C85.2063 373.372 91.125 376.464 93.5912 380.565L118.958 380.94C120.348 364.008 125.394 346.606 138.406 344.961C139.731 344.793 141.138 344.789 142.633 344.965C144.112 344.863 145.852 345.131 147.707 345.919C156.108 349.487 166.863 363.729 166.309 402.626H152.357H138.406H128.259H118.958H113.885H98.6646H85.1357H73.2982Z" fill="#998FAA"/>
<path d="M118.958 402.626C118.456 396.587 118.311 388.814 118.958 380.94M118.958 402.626H113.885M118.958 402.626H128.259M87.6723 386.516C91.9001 389.059 87.6723 375.922 83.4446 383.972C79.2168 392.021 89.3635 394.147 93.5912 389.059C95.3528 386.94 95.3529 383.495 93.5912 380.565M93.5912 380.565C91.125 376.464 85.2063 373.372 75.8349 376.34C62.9825 380.41 68.7886 395.56 73.2982 402.626H85.1357M93.5912 380.565L118.958 380.94M118.958 380.94C120.348 364.008 125.394 346.606 138.406 344.961M138.406 376.34L135.023 383.972H142.633M136.714 394.995H142.633M138.406 344.961C139.731 344.793 141.138 344.789 142.633 344.965C144.112 344.863 145.852 345.131 147.707 345.919M138.406 344.961C136.714 325.464 117.267 316.137 113.885 346.662M147.707 345.919C156.108 349.487 166.863 363.729 166.309 402.626H152.357M147.707 345.919C146.016 329.704 159.544 309.353 168 341.575M135.023 354.295L134.178 355.991H136.714H135.023M150.243 355.143L149.398 355.991H151.089M85.1357 402.626V414.5M85.1357 402.626H98.6646M98.6646 402.626V414.5M98.6646 402.626H113.885M113.885 402.626V414.5M128.259 402.626V414.5M128.259 402.626H138.406M138.406 402.626V414.5M138.406 402.626H152.357M152.357 402.626V414.5" stroke="black" stroke-width="3"/>
<path d="M415.264 238.726C404.51 244.482 365.548 228.973 347.411 220.5L351.252 281.413C377.07 264.786 426.019 232.97 415.264 238.726Z" fill="#998FAA"/>
<path d="M355.093 342.326L351.252 281.413M351.252 281.413L347.411 220.5C365.548 228.973 404.51 244.482 415.264 238.726C426.019 232.97 377.07 264.786 351.252 281.413Z" stroke="#827598" stroke-width="6"/>
<circle cx="178" cy="424.5" r="10" fill="white"/>
<path d="M147.5 426.5C150.333 421.833 163.6 420.1 172 426.5C182.5 434.5 158.5 442 147.5 426.5Z" fill="#998FAA"/>
<path d="M147.5 426.5C150.333 421.833 163.6 420.1 172 426.5C182.5 434.5 158.5 442 147.5 426.5ZM147.5 426.5L115 394" stroke="black" stroke-width="3"/>
</svg>
