<svg width="268" height="236" viewBox="0 0 268 236" fill="none" xmlns="http://www.w3.org/2000/svg">
<rect width="268" height="236" rx="79" fill="black"/>
<path d="M108.284 202.201C122.747 200.423 163.315 184.943 169.345 170.595C191.062 128.077 134.206 126.985 106.684 154.414C89.7616 171.279 40.2798 153.311 33.3227 181.102C26.3655 208.893 95.8521 203.729 108.284 202.201Z" fill="#E5DFCD"/>
<path d="M142.048 101.575C145.923 104.598 159.964 96.4514 166.5 92L165.116 124C155.812 115.265 138.172 98.5512 142.048 101.575Z" fill="#D5C84C"/>
<path d="M163.732 156L165.116 124M165.116 124L166.5 92C159.964 96.4514 145.923 104.598 142.048 101.575C138.172 98.5512 155.812 115.265 165.116 124Z" stroke="#988D29" stroke-width="2"/>
<path d="M162.471 156.185C161.296 156.672 160.428 159.789 164.586 158.811C169.051 157.761 164.586 155.31 162.471 156.185Z" fill="black" stroke="black"/>
<path d="M63.531 146.824C58.1795 147.35 48.9545 145.036 54.8666 131.57C52.2334 126.924 49.3114 117.105 58.6894 115.001C58.6894 103.166 76.0183 92.9094 79.586 115.001C84.3429 116.404 91.5122 121.681 82.1343 131.57C85.6172 136.655 88.8113 146.824 73.7248 146.824L73.8686 150.506L74.3413 162.604H84.6827C84.9087 162.861 85.1589 163.223 85.3659 163.656C86.431 163.402 87.9193 163.134 89.2697 163.054L92.5308 129.991L92.5825 129.466C93.5169 125.697 96.7618 119.157 102.266 123.154C107.771 127.152 98.0694 129.378 92.5308 129.991L89.2697 163.054C91.1843 162.942 92.8216 163.211 92.5825 164.445C92.3156 165.823 90.2633 166.564 88.2503 166.924C87.1886 167.115 86.1379 167.199 85.3659 167.215C85.1964 167.523 84.972 167.828 84.6827 168.127H74.5571L74.9989 179.436H71.4313L71.9409 188.115H77.2925V190.219H69.9023L69.1377 179.436H66.8442L65.3152 190.219H58.6894V188.115H63.0217L64.8056 179.436H58.6894L61.7704 161.026C59.7241 160.763 55.2747 160.711 53.8476 162.604C52.4205 164.498 56.9906 166.023 59.454 166.549L58.9673 170.734C59.1996 171.513 58.9726 172.473 58.6894 173.124L58.9673 170.734C58.7304 169.94 58.0157 169.336 56.396 169.442C52.386 169.705 50.0252 167.215 49.5155 162.078C49.0058 156.941 61.2379 157.344 62.3866 157.344L63.531 150.506V146.824Z" fill="#D5C74C"/>
<path d="M63.531 150.506H73.8686M63.531 150.506V146.824C58.1795 147.35 48.9545 145.036 54.8666 131.57C52.2334 126.924 49.3114 117.105 58.6894 115.001C58.6894 103.166 76.0183 92.9094 79.586 115.001C84.3429 116.404 91.5122 121.681 82.1343 131.57C85.6172 136.655 88.8113 146.824 73.7248 146.824L73.8686 150.506M63.531 150.506L62.3866 157.344M73.8686 150.506L74.3413 162.604M64.2959 115.264V117.631M74.2344 115.264V117.631M63.531 136.041C65.4849 137.715 70.7177 140.059 76.0183 136.041M74.3413 162.604H84.6827C84.9087 162.861 85.1589 163.223 85.3659 163.656M74.3413 162.604L74.5571 168.127M74.5571 168.127L74.9989 179.436H71.4313M74.5571 168.127H84.6827C84.972 167.828 85.1964 167.523 85.3659 167.215M85.3659 163.656C85.8261 164.619 86.0727 165.933 85.3659 167.215M85.3659 163.656C86.431 163.402 87.9193 163.134 89.2697 163.054M85.3659 167.215C86.1379 167.199 87.1886 167.115 88.2503 166.924M84.6827 190.219L88.2503 166.924M88.2503 166.924C90.2633 166.564 92.3156 165.823 92.5825 164.445C92.8216 163.211 91.1843 162.942 89.2697 163.054M89.2697 163.054L92.5308 129.991M92.5308 129.991L92.5825 129.466C93.5169 125.697 96.7618 119.157 102.266 123.154C107.771 127.152 98.0694 129.378 92.5308 129.991ZM64.8056 179.436H58.6894L61.7704 161.026M64.8056 179.436L63.0217 188.115H58.6894V190.219H65.3152L66.8442 179.436M64.8056 179.436H66.8442M66.8442 179.436H71.4313M69.1377 179.436L69.9023 190.219H77.2925V188.115H71.9409L71.4313 179.436M62.3866 157.344C61.2379 157.344 49.0058 156.941 49.5155 162.078C50.0252 167.215 52.386 169.705 56.396 169.442C59.6039 169.232 59.2616 171.809 58.6894 173.124L59.454 166.549C56.9906 166.023 52.4205 164.498 53.8476 162.604C55.2747 160.711 59.7241 160.763 61.7704 161.026M62.3866 157.344L61.7704 161.026M72.7054 129.466C71.5162 128.239 68.1694 126.521 64.2959 129.466C65.74 130.957 69.4436 133.043 72.7054 129.466Z" stroke="black" stroke-width="1.5"/>
<path d="M96.2756 179.497L95.5 174.846C95.5594 173.873 95.7196 172.94 95.9665 172.055C98.7402 162.11 112.445 158.209 116.716 171.59C117.031 172.58 117.296 173.663 117.5 174.846L116.88 178.256L116.654 179.497L116.259 181.667L115.864 183.838L115.131 187.869L114.567 190.969L114.285 192.519L114.115 193.45L113.833 195H111.389H108.333H104.361H101.611H98.8611L98.4474 192.519L97.6718 187.869L97.5684 187.248L96.9996 183.838L96.2756 179.497Z" fill="#E5DFCD"/>
<path d="M95.5 174.846L96.2756 179.497M95.5 174.846H95.8056M95.5 174.846C95.5594 173.873 95.7196 172.94 95.9665 172.055M117.5 174.846L116.88 178.256M117.5 174.846C117.296 173.663 117.031 172.58 116.716 171.59M117.5 174.846L117.194 174.846M96.2756 179.497C96.2756 179.497 96.7169 182.142 96.9996 183.838M96.2756 179.497H96.7222H103.139M116.654 179.497H110.472M116.654 179.497L116.259 181.667M116.654 179.497L116.88 178.256M115.864 183.838L115.131 187.869M115.864 183.838L116.259 181.667M115.864 183.838C115.864 183.838 113.617 183.838 110.472 183.838M96.9996 183.838C97.1799 184.919 97.4296 186.416 97.5684 187.248M96.9996 183.838C101.109 183.838 106.505 183.838 110.472 183.838M115.131 187.869H97.6718M115.131 187.869L114.567 190.969M97.6718 187.869L98.4474 192.519M97.6718 187.869C97.6718 187.869 97.6316 187.628 97.5684 187.248M98.4474 192.519L98.8611 195H101.611M98.4474 192.519H108.333M114.285 192.519L114.567 190.969M114.285 192.519L114.115 193.45M114.285 192.519H108.333M111.389 195H113.833L114.115 193.45M111.389 195H108.333M111.389 195L113.973 177.016L114.285 174.846M114.285 174.846H109.556M114.285 174.846L117.194 174.846M108.333 195H104.361M108.333 195L108.427 193.45M109.556 174.846H104.361M109.556 174.846L109.029 183.528M104.361 195H101.611M104.361 195V189.729M104.361 174.846C102.426 174.742 99.4722 175.528 103.139 179.497M104.361 174.846V184.458M104.361 174.846H101.611M104.361 174.846C107.282 174.846 108.055 177.361 106.194 178.815M101.611 195L99.6552 176.57M99.4722 174.846H95.8056M99.4722 174.846H101.611M99.4722 174.846L99.6552 176.57M105.768 169.575C105.61 169.353 105.444 169.144 105.278 168.955C102.355 168.028 101.071 169.649 100.967 171.435M105.768 169.575C107.209 167.714 110.595 165.358 112.611 170.815M105.768 169.575C106.171 170.14 106.522 170.793 106.679 171.435M112.611 170.815C111.61 172.779 109.023 175.652 106.679 171.435M112.611 170.815C113.514 170.402 115.599 169.978 116.716 171.59M106.679 171.435C107.067 173.017 106.283 174.536 102.222 174.536C101.362 173.912 100.897 172.636 100.967 171.435M104.361 189.729C102.731 188.902 99.35 188.241 98.8611 192.209C99.3704 193.45 101.061 195.682 103.75 194.69M104.361 189.729V184.458M108.634 190.039L108.55 191.434L108.465 192.829M108.634 190.039C108.74 189.937 108.857 189.832 108.984 189.729M108.634 190.039L109.029 183.528M114.567 190.969C113.791 189.242 112.734 188.65 111.694 188.637M114.115 193.45C111.036 196.55 107.417 192.209 108.427 193.45M108.333 192.519C108.619 189.791 108.54 191.589 108.465 192.829M108.465 192.829L108.427 193.45M103.139 179.497H110.472M103.139 179.497C103.953 178.051 101.033 176.467 98.8611 176.854M104.361 184.458C103.471 186.628 103.15 190.721 108.984 189.729M104.361 184.458C99.4722 180.933 97.7956 184.85 97.5684 187.248M108.984 189.729C109.683 189.161 110.68 188.623 111.694 188.637M110.472 179.497C110.562 181.667 111.844 185.14 116.259 181.667M110.472 179.497C110.656 178.544 111.37 177.262 112.917 177.051M116.88 178.256C116.084 177.764 115.377 177.439 114.75 177.247M95.8056 174.846C96.0093 175.565 96.9056 176.973 98.8611 176.854M98.8611 176.854C97.7723 177.048 96.8713 177.737 96.7222 179.187C96.2756 183.528 103.139 183.528 103.139 179.807C104.514 179.725 105.525 179.339 106.194 178.815M101.611 174.846C101.428 175.479 100.779 176.71 99.6552 176.57M100.967 171.435C99.7611 170.815 97.073 170.071 95.9665 172.055M95.9665 172.055C98.7402 162.11 112.445 158.209 116.716 171.59M110.472 173.295C110.37 174.455 110.717 176.83 112.917 177.051M112.917 177.051C113.432 176.98 114.039 177.028 114.75 177.247M114.75 177.247C115.769 176.756 117.683 175.59 117.194 174.846M106.194 178.815C108.492 179.146 112.275 180.551 109.029 183.528M111.694 188.637C109.734 187.967 107.417 185.698 110.472 183.838" stroke="black"/>
</svg>
