<svg width="268" height="236" viewBox="0 0 268 236" fill="none" xmlns="http://www.w3.org/2000/svg">
<rect width="268" height="236" rx="79" fill="black"/>
<path d="M151.169 133.852C127.387 128.687 69.2746 148.396 53.21 155.668C-1.92499 176.964 70.3649 226.411 106 198C143 168.5 132.047 187.55 173.5 160.5C183.709 153.838 180.898 140.308 151.169 133.852Z" fill="#D5C74C"/>
<path d="M195.624 82.7165C189.423 86.7323 166.958 75.9121 156.5 70L158.715 112.5C173.601 100.899 201.824 78.7008 195.624 82.7165Z" fill="#D5C74C"/>
<path d="M160.929 155L158.715 112.5M158.715 112.5L156.5 70C166.958 75.9121 189.423 86.7323 195.624 82.7165C201.824 78.7008 173.601 100.899 158.715 112.5Z" stroke="#81792D" stroke-width="2"/>
<path d="M157.859 155.247C156.214 155.896 154.999 160.053 160.82 158.748C167.072 157.348 160.82 154.08 157.859 155.247Z" fill="black" stroke="black"/>
<path d="M41.5958 149.994V124.848H38.43C37.9375 123.001 37.248 119.265 38.43 119.094C39.6119 118.924 68.1893 119.023 82.3302 119.094C87.6067 119.52 97.442 121.268 94.5716 124.848H88.4509L99.426 156.169C106.257 158.062 113.736 161.471 115.466 166.829V169.387C115.889 170.665 116.691 173.436 116.522 174.288C117.155 174.998 119.519 177.016 117.999 179.402H112.512C111.667 187.415 106.11 189.134 103.436 188.992C96.7305 188.517 94.4852 184.773 94.0732 181.32H54.0483C52.6975 188.14 46.4501 189.134 43.4953 188.779C40.9626 188.069 35.9394 185.156 36.1083 179.189H33.3645H26.6106C25.4849 178.479 23.7402 176.419 25.7664 173.862H28.5101L30.4097 165.124L34.2087 162.567V149.994H35.264L31.9385 141.896C30.4097 147.011 26.673 146.3 24.5 143.388L31.676 141.257L31.9385 141.896L35.264 149.994H38.43L32.8579 135.929C29.2446 141.726 25.7804 138.344 24.5 135.929L32.5202 135.077L32.8579 135.929L38.43 149.994H41.5958Z" fill="#E5DFCD"/>
<path d="M41.5958 149.994V124.848M41.5958 124.848H38.43C37.9375 123.001 37.248 119.265 38.43 119.094C39.6119 118.924 68.1893 119.023 82.3302 119.094C87.6067 119.52 97.442 121.268 94.5716 124.848H88.4509M41.5958 124.848H44.7617M44.7617 124.848V149.994H46.4502M44.7617 124.848H50.0382M46.4502 149.994H38.43M46.4502 149.994V159.584M32.5202 149.994H34.2087M34.2087 149.994V162.567M34.2087 149.994H35.264M34.2087 162.567C37.1635 161.36 43.2843 159.584 46.4502 159.584M34.2087 162.567L30.4097 165.124L28.5101 173.862M46.4502 159.584H53.4151M38.43 149.994L32.8579 135.929M38.43 149.994H35.264M32.8579 135.929L32.5202 135.077L24.5 135.929C25.7804 138.344 29.2446 141.726 32.8579 135.929ZM35.264 149.994L31.9385 141.896M31.9385 141.896L31.676 141.257L24.5 143.388C26.673 146.3 30.4097 147.011 31.9385 141.896ZM50.0382 124.848V141.896M50.0382 124.848H53.4151M50.0382 141.896C50.2492 141.612 51.2201 141.001 53.4151 140.831M50.0382 141.896C49.6871 142.96 49.6864 146.824 51.8331 154.469M53.4151 140.831V124.848M53.4151 140.831C58.3117 139.978 60.3801 149.341 60.8022 154.129M53.4151 124.848H85.285M53.4151 159.584C52.7899 157.719 52.2675 156.017 51.8331 154.469M53.4151 159.584C54.0412 159.956 55.2496 160.604 56.792 161.309M75.9984 163.207V175.353M75.9984 163.207H68.8224M75.9984 163.207C77.8558 157.751 75.2245 156.813 73.6768 157.027H61.6464M75.9984 177.271L53.6262 177.39L94.3606 177.271M75.9984 177.271H94.3606M75.9984 177.271V175.353M94.3606 177.271C94.8671 172.157 99.6371 170.594 101.959 170.452C110.232 170.623 112.441 176.49 112.512 179.402M94.3606 177.271C94.0619 178.37 93.8939 179.818 94.0732 181.32M75.9984 175.353H81.9081L89.2248 164.272M115.466 169.387V166.829C113.736 161.471 106.257 158.062 99.426 156.169M115.466 169.387H110.401M115.466 169.387C115.889 170.665 116.691 173.436 116.522 174.288M116.522 174.288H110.628M116.522 174.288C117.155 174.998 119.519 177.016 117.999 179.402H112.512M112.512 179.402C111.667 187.415 106.11 189.134 103.436 188.992C96.7305 188.517 94.4852 184.773 94.0732 181.32M94.0732 181.32H54.0483M54.0483 181.32C54.4704 177.982 53.204 171.177 44.7617 170.665C41.9476 171.02 36.2771 173.222 36.1083 179.189M54.0483 181.32C52.6975 188.14 46.4502 189.134 43.4953 188.779C40.9626 188.069 35.9394 185.156 36.1083 179.189M36.1083 179.189H33.3645M33.3645 179.189H26.6106C25.4849 178.479 23.7402 176.419 25.7664 173.862H28.5101M33.3645 179.189V173.862H28.5101M85.285 124.848L95.838 155.291M85.285 124.848H88.4509M95.838 155.291C94.0267 154.905 92.36 154.634 90.9836 154.469L90.3505 162.567L89.2248 164.272M95.838 155.291C96.9881 155.536 98.1965 155.828 99.426 156.169M99.426 156.169L88.4509 124.848M89.2248 164.272L86.7624 161.928L88.0843 160.436M90.3505 157.879L89.9728 158.305M88.0843 160.436L79.1643 150.207M88.0843 160.436L89.9728 158.305M79.1643 150.207C77.4055 151.77 74.0567 154.341 74.7321 152.125C75.5763 149.355 81.0639 144.027 82.9634 143.814C84.4612 143.646 83.2031 146.228 81.0518 148.502M79.1643 150.207C79.8338 149.7 80.4749 149.112 81.0518 148.502M81.0518 148.502L89.9728 158.305M68.8224 163.207H61.6464C59.8764 162.638 58.1959 161.95 56.792 161.309M68.8224 163.207C68.1189 160.578 66.0787 155.151 63.5459 154.469C62.8611 154.285 61.8985 154.179 60.8022 154.129M51.8331 154.469C53.9117 154.262 57.8439 153.994 60.8022 154.129M60.8022 154.129L61.6464 157.027M61.6464 157.027C60.0986 157.324 56.9609 158.597 56.792 161.309" stroke="#1F4E2C"/>
<path d="M120.99 129.77V123.372C121.327 123.091 121.689 122.856 122.071 122.661V108.977C117.23 107.149 117.172 105.931 117.749 105.55C126.221 104.453 124.16 107.378 122.071 108.977V122.661C123.12 122.125 124.315 121.895 125.529 121.863C125.734 121.857 125.94 121.857 126.146 121.863L125.529 104.407C124.953 102.199 124.924 98.3752 129.419 100.751C128.483 101.589 126.393 103.493 125.529 104.407L126.146 121.863C126.591 121.874 127.036 121.91 127.474 121.964L128.555 108.063C128.195 105.855 128.468 102.031 132.445 104.407C133.093 104.712 133.223 105.87 128.555 108.063L127.474 121.964C128.145 122.047 128.801 122.175 129.419 122.327L130.716 112.633C130.572 110.196 131.278 106.053 135.255 108.977C135.344 109.358 134.562 110.622 130.716 112.633L129.419 122.327C130.627 122.626 131.691 123.021 132.445 123.372V125.657C137.978 132.786 134.75 139.443 132.445 141.881V153.991C130.902 154.7 129.158 154.973 127.474 154.998C126.811 155.008 126.157 154.979 125.529 154.923C123.641 154.754 121.983 154.34 120.99 153.991V129.77Z" fill="#E5DFCD"/>
<path d="M120.99 129.77V123.372C121.327 123.091 121.689 122.856 122.071 122.661M120.99 129.77V153.991C121.983 154.34 123.641 154.754 125.529 154.923M120.99 129.77C122.431 128.399 126.739 126.48 132.445 129.77M132.445 129.77V141.881M132.445 129.77V125.657M127.474 121.964V154.998M127.474 121.964C127.036 121.91 126.591 121.874 126.146 121.863M127.474 121.964L128.555 108.063M127.474 121.964C128.145 122.047 128.801 122.175 129.419 122.327M127.474 154.998C129.158 154.973 130.902 154.7 132.445 153.991V141.881M127.474 154.998C126.811 155.008 126.157 154.979 125.529 154.923M125.529 154.923V121.863M125.529 121.863C124.315 121.895 123.12 122.125 122.071 122.661M125.529 121.863C125.734 121.857 125.94 121.857 126.146 121.863M132.445 141.881C134.75 139.443 137.978 132.786 132.445 125.657M132.445 125.657V123.372C131.691 123.021 130.627 122.626 129.419 122.327M122.071 122.661V108.977M122.071 108.977C124.16 107.378 126.221 104.453 117.749 105.55C117.172 105.931 117.23 107.149 122.071 108.977ZM126.146 121.863L125.529 104.407M125.529 104.407C124.953 102.199 124.924 98.3752 129.419 100.751C128.483 101.589 126.393 103.493 125.529 104.407ZM128.555 108.063C128.195 105.855 128.468 102.031 132.445 104.407C133.093 104.712 133.223 105.87 128.555 108.063ZM129.419 122.327L130.716 112.633M130.716 112.633C130.572 110.196 131.278 106.053 135.255 108.977C135.344 109.358 134.562 110.622 130.716 112.633Z" stroke="#1F4E2C"/>
</svg>
