<svg width="268" height="236" viewBox="0 0 268 236" fill="none" xmlns="http://www.w3.org/2000/svg">
<rect width="268" height="236" rx="79" fill="black"/>
<path d="M68.8913 203.697V197.575H30V188.432V162.432V136.432V125.82L69.2964 126.065V122.473L71.565 119.697V125.82H144V136.432V188.432V197.575H71.565V200.758L68.8913 203.697Z" fill="#D5C74C"/>
<path d="M68.8912 197.575V203.697L71.565 200.758V197.575M68.8912 197.575L69.2964 126.065M68.8912 197.575H30V188.432M71.565 197.575H144V188.432M71.565 197.575V125.82M71.565 125.82H144V136.432M71.565 125.82V119.697L69.2964 122.473V126.065M69.2964 126.065L69.2376 136.432H30M69.2964 126.065L30 125.82V136.432M69.2964 188.432H30M71.565 188.432H109.16M144 188.432H109.16M144 188.432V136.432M109.16 188.432V162.432M144 136.432H71.565H109.16V162.432M109.16 162.432H71.565M69.2964 162.432H30M30 162.432V136.432M30 162.432V188.432" stroke="white"/>
<path d="M151.477 113.871C151.094 115.364 151.221 118.815 154.799 120.674C155.294 119.184 155.322 115.738 151.477 113.871Z" fill="#AED385"/>
<path d="M157.751 108.694C154.812 108.047 153.109 110.093 152.625 111.197C156.369 112.663 158.253 119.548 157.763 121.129C160.924 121.693 162.498 119.695 162.89 118.626C159.203 117.083 157.286 110.244 157.751 108.694Z" fill="#AED385"/>
<path d="M161.182 109.624C162.568 110.144 165.135 112.153 164.31 116.03C162.862 115.485 160.209 113.442 161.182 109.624Z" fill="#AED385"/>
<path d="M151.477 113.871C151.094 115.364 151.221 118.815 154.799 120.674C155.294 119.184 155.322 115.738 151.477 113.871Z" stroke="#AED385"/>
<path d="M157.751 108.694C154.812 108.047 153.109 110.093 152.625 111.197C156.369 112.663 158.253 119.548 157.763 121.129C160.924 121.693 162.498 119.695 162.89 118.626C159.203 117.083 157.286 110.244 157.751 108.694Z" stroke="#AED385"/>
<path d="M161.182 109.624C162.568 110.144 165.135 112.153 164.31 116.03C162.862 115.485 160.209 113.442 161.182 109.624Z" stroke="#AED385"/>
<path d="M151.195 92.1463C149.694 92.4972 146.693 94.2069 146.702 98.2389C148.251 97.9881 151.319 96.4185 151.195 92.1463Z" fill="#AED385"/>
<path d="M158.687 95.3128C157.901 92.4075 155.299 91.8447 154.096 91.9265C154.529 95.9238 149.298 100.78 147.669 101.077C148.632 104.14 151.131 104.611 152.261 104.464C151.922 100.482 157.098 95.617 158.687 95.3128Z" fill="#AED385"/>
<path d="M159.451 98.7841C159.632 100.254 159.038 103.459 155.22 104.521C155.032 102.986 155.616 99.6882 159.451 98.7841Z" fill="#AED385"/>
<path d="M151.195 92.1463C149.694 92.4972 146.693 94.2069 146.702 98.2389C148.251 97.9881 151.319 96.4185 151.195 92.1463Z" stroke="#AED385"/>
<path d="M158.687 95.3128C157.901 92.4075 155.299 91.8447 154.096 91.9265C154.529 95.9238 149.298 100.78 147.669 101.077C148.632 104.14 151.131 104.611 152.261 104.464C151.922 100.482 157.098 95.617 158.687 95.3128Z" stroke="#AED385"/>
<path d="M159.451 98.7841C159.632 100.254 159.038 103.459 155.22 104.521C155.032 102.986 155.616 99.6882 159.451 98.7841Z" stroke="#AED385"/>
<path d="M129.299 104.875C128.319 106.026 126.946 109.121 129.299 112.298C130.376 111.199 131.884 108.174 129.299 104.875Z" fill="#AED385"/>
<path d="M137.055 103.013C134.743 101.178 132.362 102.249 131.461 103.013C134.129 105.916 132.827 112.792 131.715 113.975C134.257 115.831 136.504 114.748 137.309 113.975C134.725 111.03 135.978 104.178 137.055 103.013Z" fill="#AED385"/>
<path d="M139.677 105.308C140.675 106.363 142.073 109.238 139.677 112.298C138.636 111.196 137.177 108.254 139.677 105.308Z" fill="#AED385"/>
<path d="M129.299 104.875C128.319 106.026 126.946 109.121 129.299 112.298C130.376 111.199 131.884 108.174 129.299 104.875Z" stroke="#AED385"/>
<path d="M137.055 103.013C134.743 101.178 132.362 102.249 131.461 103.013C134.129 105.916 132.827 112.792 131.715 113.975C134.257 115.831 136.504 114.748 137.309 113.975C134.725 111.03 135.978 104.178 137.055 103.013Z" stroke="#AED385"/>
<path d="M139.677 105.308C140.675 106.363 142.073 109.238 139.677 112.298C138.636 111.196 137.177 108.254 139.677 105.308Z" stroke="#AED385"/>
<path d="M119.856 177.953L124.093 176.867M119.856 177.953C119.419 179.574 119.736 182.272 124.498 180.097C125.159 179.637 126.003 178.348 124.093 176.867M119.856 177.953L119.115 174.769M124.093 176.867C123.802 176.552 122.979 173.784 121.961 170.028M114.593 151.291L113.958 148.879M113.958 148.879L116.158 148.36M113.958 148.879C113.194 147.043 112.05 145.587 110.872 144.484M116.158 148.36L116.561 150.348M116.158 148.36C115.882 146.348 115.821 141.916 117.794 140.28M117.794 140.28C117.443 140.664 117.073 140.998 116.69 141.287M117.794 140.28C118.271 139.884 119.143 138.795 120.09 137.211M112.767 105.755C111.61 105.235 110.113 104.867 108.415 104.872M112.767 105.755L120.09 137.211M112.767 105.755C113.461 106.159 114.116 106.572 114.735 106.995M106.972 141.947C107.685 142.281 108.726 142.623 109.925 142.798M106.972 141.947C105.293 141.412 103.678 140.568 102.178 139.486M106.972 141.947C107.635 142.188 108.644 142.704 109.722 143.517M94.5099 114.75C94.874 114.008 95.3041 113.283 95.8039 112.582C96.3956 111.751 96.9967 111.002 97.6034 110.328M94.5099 114.75L100.63 138.251M94.5099 114.75C93.8626 116.07 93.4237 117.445 93.1709 118.847M94.5099 114.75L117.841 109.457M100.63 138.251C101.13 138.69 101.647 139.103 102.178 139.486M100.63 138.251C100.126 137.807 99.6396 137.337 99.1723 136.842M105.19 140.716L97.6034 110.328M97.6034 110.328C98.7387 109.066 99.8934 108.066 101.041 107.285M97.6034 110.328L114.735 106.995M101.041 107.285L109.925 142.798M101.041 107.285C102.131 106.544 103.214 106.001 104.269 105.62M109.925 142.798C110.961 142.949 112.115 142.975 113.277 142.762M113.277 142.762L104.269 105.62M113.277 142.762C114.443 142.549 115.618 142.095 116.69 141.287M104.269 105.62C105.726 105.093 107.128 104.875 108.415 104.872M108.415 104.872L116.69 141.287M120.09 137.211C120.541 136.458 121.009 135.592 121.459 134.636M117.841 109.457L122.585 131.911M117.841 109.457C118.874 110.415 119.756 111.403 120.505 112.412M117.841 109.457C116.927 108.61 115.896 107.787 114.735 106.995M122.585 131.911C122.239 132.88 121.856 133.793 121.459 134.636M122.585 131.911C122.694 131.607 122.799 131.297 122.9 130.982M102.178 139.486L121.459 134.636M99.1723 136.842L122.9 130.982M99.1723 136.842C98.2802 135.898 97.4589 134.866 96.725 133.768M122.9 130.982C123.241 129.918 123.532 128.796 123.746 127.632M96.725 133.768L123.746 127.632M96.725 133.768C95.9594 132.623 95.2889 131.406 94.7323 130.143M123.746 127.632C124.012 126.183 124.157 124.67 124.128 123.126M94.7323 130.143L124.128 123.126M94.7323 130.143C94.2115 128.96 93.7903 127.737 93.4843 126.493M124.128 123.126C124.102 121.765 123.941 120.38 123.606 118.994M93.4843 126.493L123.606 118.994M93.4843 126.493C93.1725 125.226 92.9803 123.938 92.9238 122.649M123.606 118.994C123.289 117.68 122.816 116.366 122.156 115.07M92.9238 122.649L122.156 115.07M92.9238 122.649C92.8679 121.375 92.945 120.1 93.1709 118.847M122.156 115.07C121.699 114.173 121.152 113.285 120.505 112.412M93.1709 118.847L120.505 112.412M117.541 152.709C117.373 152.023 117.215 151.373 117.068 150.768L113.761 151.749L115.669 159.953M117.541 152.709C117.491 155.637 117.045 161.185 115.669 159.953M117.541 152.709C118.207 155.423 119.02 158.692 119.846 161.938M115.669 159.953L117.435 167.544M119.846 161.938C119.629 164.129 118.842 168.318 117.435 167.544M119.846 161.938C120.571 164.784 121.306 167.611 121.961 170.028M117.435 167.544L119.115 174.769M121.961 170.028C121.485 171.855 120.248 175.361 119.115 174.769M110.872 144.484C104.527 139.736 97.4802 143.02 92.2047 124.376C91.5069 117.578 93.195 110.85 102.422 105.778C105.392 104.146 110.511 101.747 117.083 108.078C119.72 110.399 124.031 115.446 124.772 121.115C125.559 127.144 123.098 134.602 117.481 141.971C116.19 143.028 112.831 144.818 109.722 143.517M110.872 144.484C110.488 144.125 110.101 143.802 109.722 143.517" stroke="white"/>
<path d="M103.416 178.455L106.135 181.882M103.416 178.455C101.758 178.717 99.4229 180.106 103.35 183.568C104.039 183.984 105.561 184.23 106.135 181.882M103.416 178.455L106.022 176.481M106.135 181.882C106.303 181.488 108.495 179.608 111.511 177.148M125.619 162.785L127.563 161.221M127.563 161.221L128.934 163.019M127.563 161.221C128.928 159.776 129.791 158.137 130.319 156.613M128.934 163.019L127.282 164.197M128.934 163.019C130.658 161.947 134.681 160.085 136.979 161.22M136.979 161.22C136.485 161.056 136.029 160.854 135.61 160.622M136.979 161.22C137.535 161.494 138.884 161.847 140.717 162.066M166.458 142.56C166.462 141.291 166.188 139.774 165.491 138.226M166.458 142.56L140.717 162.066M166.458 142.56C166.372 143.358 166.262 144.125 166.128 144.863M131.047 152.016C131.032 152.804 131.144 153.894 131.473 155.06M131.047 152.016C130.851 150.266 130.963 148.447 131.34 146.636M131.047 152.016C131.096 152.72 131.036 153.852 130.734 155.168M150.804 129.553C151.63 129.583 152.467 129.681 153.312 129.851C154.311 130.053 155.24 130.297 156.103 130.576M150.804 129.553L131.838 144.719M150.804 129.553C149.335 129.5 147.901 129.66 146.517 130M150.804 129.553L165.145 148.702M131.838 144.719C131.64 145.355 131.473 145.995 131.34 146.636M131.838 144.719C132.037 144.078 132.268 143.442 132.53 142.814M131.445 149.888L156.103 130.576M156.103 130.576C157.718 131.099 159.102 131.745 160.282 132.475M156.103 130.576L166.128 144.863M160.282 132.475L131.473 155.06M160.282 132.475C161.404 133.169 162.341 133.937 163.119 134.744M131.473 155.06C131.757 156.068 132.204 157.132 132.871 158.106M132.871 158.106L163.119 134.744M132.871 158.106C133.541 159.085 134.434 159.973 135.61 160.622M163.119 134.744C164.194 135.861 164.964 137.052 165.491 138.226M165.491 138.226L135.61 160.622M140.717 162.066C141.589 162.171 142.57 162.245 143.627 162.267M165.145 148.702L146.574 162.185M165.145 148.702C164.692 150.036 164.149 151.244 163.532 152.339M165.145 148.702C165.547 147.523 165.878 146.245 166.128 144.863M146.574 162.185C145.548 162.264 144.558 162.286 143.627 162.267M146.574 162.185C146.896 162.161 147.222 162.13 147.55 162.094M131.34 146.636L143.627 162.267M132.53 142.814L147.55 162.094M132.53 142.814C133.028 141.614 133.636 140.444 134.34 139.326M147.55 162.094C148.661 161.972 149.805 161.78 150.954 161.501M134.34 139.326L150.954 161.501M134.34 139.326C135.073 138.16 135.911 137.052 136.838 136.029M150.954 161.501C152.386 161.153 153.827 160.669 155.225 160.014M136.838 136.029L155.225 160.014M136.838 136.029C137.706 135.072 138.651 134.188 139.662 133.402M155.225 160.014C156.458 159.436 157.657 158.724 158.786 157.853M139.662 133.402L158.786 157.853M139.662 133.402C140.693 132.601 141.791 131.9 142.944 131.324M158.786 157.853C159.856 157.028 160.864 156.061 161.778 154.93M142.944 131.324L161.778 154.93M142.944 131.324C144.085 130.753 145.281 130.304 146.517 130M161.778 154.93C162.411 154.147 162.999 153.286 163.532 152.339M146.517 130L163.532 152.339M125.526 166.054C126.083 165.621 126.613 165.211 127.106 164.83L124.862 162.211L118.148 167.297M125.526 166.054C122.831 167.201 117.583 169.055 118.148 167.297M125.526 166.054C123.319 167.768 120.664 169.843 118.037 171.92M118.148 167.297L111.935 172.003M118.037 171.92C115.948 172.615 111.802 173.603 111.935 172.003M118.037 171.92C115.734 173.742 113.452 175.565 111.511 177.148M111.935 172.003L106.022 176.481M111.511 177.148C109.648 177.458 105.943 177.758 106.022 176.481M130.319 156.613C132.069 148.883 126.199 143.786 141.075 131.371C146.998 127.963 153.83 126.763 162.221 133.123C164.922 135.17 169.199 138.866 166.096 147.448C165.052 150.802 162.199 156.796 157.324 159.782C152.139 162.958 144.325 163.75 135.307 161.623C133.815 160.875 130.812 158.537 130.734 155.168M130.319 156.613C130.491 156.115 130.627 155.63 130.734 155.168" stroke="white"/>
</svg>
